<?xml version="1.0" encoding="UTF-8" standalone="no"?>
<svg
   xmlns:dc="http://purl.org/dc/elements/1.1/"
   xmlns:cc="http://creativecommons.org/ns#"
   xmlns:rdf="http://www.w3.org/1999/02/22-rdf-syntax-ns#"
   xmlns:svg="http://www.w3.org/2000/svg"
   xmlns="http://www.w3.org/2000/svg"
   xmlns:sodipodi="http://sodipodi.sourceforge.net/DTD/sodipodi-0.dtd"
   xmlns:inkscape="http://www.inkscape.org/namespaces/inkscape"
   version="1.1"
   id="Layer_1"
   x="0px"
   y="0px"
   viewBox="0 0 9.9999998 8.8962013"
   enable-background="new 0 0 288 288"
   xml:space="preserve"
   sodipodi:docname="10e-5 - S Cell.svg"
   width="10"
   height="8.8962011"
   inkscape:version="1.0 (4035a4fb49, 2020-05-01)"><metadata
   id="metadata832"><rdf:RDF><cc:Work
       rdf:about=""><dc:format>image/svg+xml</dc:format><dc:type
         rdf:resource="http://purl.org/dc/dcmitype/StillImage" /><dc:title></dc:title></cc:Work></rdf:RDF></metadata><defs
   id="defs830" /><sodipodi:namedview
   inkscape:document-rotation="0"
   pagecolor="#ffffff"
   bordercolor="#666666"
   borderopacity="1"
   objecttolerance="10"
   gridtolerance="10"
   guidetolerance="10"
   inkscape:pageopacity="0"
   inkscape:pageshadow="2"
   inkscape:window-width="1366"
   inkscape:window-height="705"
   id="namedview828"
   showgrid="false"
   inkscape:zoom="2.6418296"
   inkscape:cx="21.518147"
   inkscape:cy="38.364156"
   inkscape:window-x="-8"
   inkscape:window-y="-8"
   inkscape:window-maximized="1"
   inkscape:current-layer="Layer_1" />














































<g
   transform="scale(0.1)"
   id="g1587"><g
     transform="matrix(0.52188005,0,0,0.52188005,-26.520472,-28.543615)"
     style="fill:#ffffff;fill-opacity:1;stroke:#545454;stroke-opacity:1"
     id="Eukaryote_Base">
	<g
   style="fill:#ffffff;fill-opacity:1;stroke:#545454;stroke-opacity:1"
   id="g8">
		<path
   style="fill:#ffffff;fill-opacity:1;stroke:#545454;stroke-opacity:1"
   id="path2"
   d="m 74.6,73 c -3.9,2.9 -3.9,2.9 -6.5,6.6 C 56.7,96 51,116.4 52,136.4 c 0.9,20 8.3,39.7 20.6,55.5 3.7,4.8 7.8,9.3 12.7,12.7 6.7,4.8 14.5,7.6 22.1,10.4 7.6,2.8 15.2,5.5 23.2,7 6.7,1.2 13.6,1.4 20.4,1.7 15.2,0.5 31.5,0.8 44.4,-7.4 7.6,-4.8 13.3,-12.1 20.2,-17.8 4.6,-3.8 9.9,-7 13.8,-11.6 3.4,-4.1 5.6,-9.1 7.2,-14.1 8,-25.1 2.6,-54.3 -13.9,-74.7 -7.5,-9.3 -16.9,-16.7 -26.3,-24.1 -3.1,-2.4 -6.1,-4.9 -9.3,-7.2 -3,-2.3 -6,-4.7 -9.3,-6.4 -8.2,-4.2 -17.9,-4.3 -27.1,-4.3 -13.2,0 -26.5,0 -39.6,2.2 C 98,60.4 85.1,64.9 74.6,73"
   fill="#FB6154" />
		<g
   style="fill:#ffffff;fill-opacity:1;stroke:#545454;stroke-opacity:1"
   id="g6">
			<path
   style="fill:#ffffff;fill-opacity:1;stroke:#545454;stroke-opacity:1"
   id="path4"
   d="m 74.3,72.5 c -2.6,1.9 -4.5,3.8 -6.4,6.4 -2.7,3.8 -5.1,7.8 -7.1,12 -4.1,8.4 -7,17.5 -8.4,26.8 -2.8,18.2 -0.1,37 7.3,53.8 3.7,8.4 8.5,16.3 14.3,23.3 3.1,3.8 6.5,7.2 10.5,10.1 3.9,2.8 8.1,5 12.5,6.9 4.4,1.8 8.8,3.5 13.3,5.1 5.1,1.8 10.3,3.6 15.6,4.9 9.9,2.4 20.2,2.6 30.3,2.8 9.2,0.2 18.6,0 27.5,-2.5 4.2,-1.2 8.3,-2.9 12,-5.2 3.8,-2.4 7.1,-5.4 10.2,-8.4 3.5,-3.3 6.8,-6.8 10.5,-9.8 3.6,-2.9 7.6,-5.5 10.9,-8.7 6.6,-6.3 9.7,-15.2 11.6,-24 3.6,-16.8 1.7,-34.6 -5.1,-50.3 -3.5,-8 -8.2,-15.3 -14,-21.7 -6.7,-7.3 -14.5,-13.5 -22.2,-19.6 -4.1,-3.2 -8.1,-6.4 -12.2,-9.6 -3.7,-2.8 -7.5,-5.3 -12,-6.8 -9.2,-3.1 -19.3,-2.5 -28.9,-2.5 -19.8,0.1 -40.3,1.1 -58.5,9.8 -4,1.9 -8,4.3 -11.7,7.2 -0.6,0.5 0,1.6 0.6,1.1 C 90.3,61.8 109.8,58 128.8,57 c 9.8,-0.5 19.7,-0.6 29.6,-0.3 4.6,0.2 9.3,0.6 13.8,2 4.9,1.5 9,4.2 13,7.2 7.8,6 15.6,12 23,18.3 6.9,5.9 13.4,12.4 18.4,20.1 9.2,14 13.7,31 13,47.7 -0.3,8.8 -2,17.8 -5.6,25.9 -1.9,4.3 -4.4,8.2 -7.9,11.4 -3.3,3 -7,5.5 -10.5,8.3 -6.9,5.6 -12.5,12.8 -20,17.8 -7.6,5 -16.6,6.9 -25.5,7.6 -9.4,0.7 -19,0.3 -28.4,-0.3 -10.4,-0.6 -20.1,-3.2 -29.9,-6.6 C 103,213 93.8,210 86,204.5 78.3,199.1 72.4,191.4 67.4,183.6 57.8,168.2 52.4,150 52.4,131.8 52.5,113.7 58,95.5 68.3,80.5 c 0.9,-1.3 1.7,-2.6 2.8,-3.7 1.1,-1.2 2.5,-2.2 3.8,-3.1 0.7,-0.6 0,-1.8 -0.6,-1.2 z"
   fill="#545454" />
		</g>
	</g>
	<g
   style="fill:#ffffff;fill-opacity:1;stroke:#545454;stroke-opacity:1"
   id="g16">
		<path
   style="fill:#ffffff;fill-opacity:1;stroke:#545454;stroke-opacity:1"
   id="path10"
   d="m 92.1,71.2 c -2.6,2.5 -3.5,2.6 -5.8,5.9 -10.3,14.6 -15.4,32.7 -14.6,50.6 0.8,17.9 7.5,35.4 18.5,49.5 3.3,4.2 7,8.2 11.4,11.4 6,4.3 13,6.8 19.9,9.3 6.8,2.5 13.7,4.9 20.9,6.2 6.1,1.1 12.3,1.3 18.4,1.5 13.7,0.4 28.4,0.6 40,-6.6 6.8,-4.3 11.9,-10.8 18.2,-15.9 4.2,-3.4 8.9,-6.3 12.4,-10.4 3.1,-3.6 5,-8.1 6.5,-12.6 7.2,-22.4 2.4,-48.3 -12.5,-66.6 C 218.6,85.2 210.1,78.6 201.7,72 198.9,69.8 196.1,67.7 193.4,65.5 190.7,63.4 188,61.3 185,59.8 177.6,56 168.9,56 160.6,56 c -11.9,0 -23.9,0 -35.7,2 -11.7,2 -23.3,5.9 -32.8,13.2"
   fill="#F6A1A1" />
		<g
   style="fill:#ffffff;fill-opacity:1;stroke:#545454;stroke-opacity:1"
   id="g14">
			<path
   style="fill:#ffffff;fill-opacity:1;stroke:#545454;stroke-opacity:1"
   id="path12"
   d="m 91.7,70.7 c -2.4,2.3 -4.7,4.2 -6.6,7 -2.4,3.5 -4.5,7.3 -6.3,11.1 -3.6,7.7 -5.9,15.8 -7,24.2 -2.2,16.3 0.7,33 7.7,47.8 3.6,7.6 8.2,14.7 13.8,20.9 5.7,6.3 12.5,10.6 20.3,13.7 8.5,3.4 17.3,6.7 26.2,8.6 9,1.9 18.3,2 27.4,2.2 8.1,0.1 16.3,-0.2 24.1,-2.5 8,-2.4 14.2,-7.2 20.2,-12.9 3.1,-3 6.3,-6.1 9.7,-8.8 3.2,-2.5 6.7,-4.8 9.6,-7.8 5.4,-5.6 8,-13.4 9.6,-20.9 3.2,-15 1.3,-31 -4.9,-44.9 -3.2,-7.1 -7.5,-13.5 -12.7,-19.2 -6,-6.5 -13.1,-12 -20.1,-17.4 -3.6,-2.8 -7.2,-5.6 -10.8,-8.4 -3.4,-2.6 -6.9,-4.8 -11,-6.1 -8.2,-2.6 -17.1,-2.1 -25.5,-2 -17.9,0.1 -36.4,0.9 -52.8,8.7 -3.8,1.8 -7.4,4 -10.7,6.5 -0.6,0.5 0,1.6 0.6,1.1 13.9,-10.5 31.3,-13.8 48.3,-14.7 8.9,-0.4 17.9,-0.6 26.8,-0.3 4.2,0.1 8.4,0.6 12.4,1.8 4.2,1.3 7.8,3.5 11.3,6.1 6.9,5.2 13.9,10.6 20.5,16.1 6.4,5.4 12.4,11.2 17,18.2 8.4,12.5 12.5,27.7 11.9,42.7 -0.3,7.5 -1.7,15 -4.6,22 -1.6,4 -3.8,7.7 -7,10.6 -2.9,2.7 -6.2,5 -9.3,7.4 -6.4,5 -11.4,11.5 -18.2,16 -6.7,4.5 -14.7,6.4 -22.7,7 -8.3,0.7 -16.8,0.3 -25.2,-0.2 -9.2,-0.5 -17.8,-2.5 -26.4,-5.4 -8,-2.8 -16.3,-5.4 -23.5,-10 -7.1,-4.6 -12.7,-11.4 -17.3,-18.4 -8.8,-13.6 -14,-29.7 -14.1,-46 -0.2,-16.4 4.6,-32.9 13.9,-46.4 1.8,-2.7 4,-4.5 6.4,-6.7 0.5,-0.3 -0.5,-1.3 -1,-0.7 z"
   fill="#545454" />
		</g>
	</g>
	<g
   style="fill:#ffffff;fill-opacity:1;stroke:#545454;stroke-opacity:1"
   id="g24">
		<path
   style="fill:#ffffff;fill-opacity:1;stroke:#545454;stroke-opacity:1"
   id="path18"
   d="m 141.4,68.6 c -12.9,3.2 -24.8,8.1 -33.2,18.4 -2.6,3.2 -4.7,6.7 -6.7,10.3 -2.2,4.1 -4.1,8.4 -5.4,12.9 -2.3,7.9 -2.9,16.3 -3,24.5 -0.1,5.2 0,10.5 0.9,15.5 1.1,5.6 3.1,11.1 6.2,15.9 7.5,12.1 20.4,20.2 34.1,24.1 13.7,4 28.2,4.2 42.4,3.2 12.5,-0.8 26.1,-3 34.8,-12 2.6,-2.8 4.7,-6 6.6,-9.4 5.6,-9.9 9.8,-20.6 11.3,-31.8 1.5,-11.2 0.1,-23 -5,-33.1 -5.7,-11.2 -15.2,-22.5 -26.2,-28.5 -11,-6 -19.4,-8 -32.4,-10.9 -7.4,-1.7 -15.1,-1.4 -23.3,0.7"
   fill="#F7C797" />
		<g
   style="fill:#ffffff;fill-opacity:1;stroke:#545454;stroke-opacity:1"
   id="g22">
			<path
   style="fill:#ffffff;fill-opacity:1;stroke:#545454;stroke-opacity:1"
   id="path20"
   d="m 141.3,68 c -12.3,3.1 -24.6,8 -32.9,18 -4.6,5.5 -8.2,12 -10.9,18.7 -2.9,7.3 -4.2,15.1 -4.6,22.9 -0.4,7.8 -0.7,15.8 0.8,23.5 1.3,6.7 4.1,13.1 8.2,18.6 7.6,10.2 18.9,17.2 30.9,20.9 14.7,4.6 30.4,4.7 45.6,3.6 12.2,-0.9 25.7,-3.2 34.3,-12.8 4.8,-5.3 8.1,-12.1 11,-18.6 2.9,-6.7 5.2,-13.8 6.3,-21 2.1,-14.1 -0.4,-27.9 -7.9,-40.1 -3.6,-5.8 -8,-11.3 -13.1,-15.9 -5,-4.5 -10.7,-7.9 -16.8,-10.7 -5.7,-2.5 -11.6,-4.4 -17.7,-5.9 -7,-1.7 -14,-3.5 -21.3,-3.1 -3.7,0.2 -7.3,0.8 -10.9,1.7 -0.8,0.2 -0.4,1.4 0.3,1.2 7.2,-1.8 14.7,-2.4 22.1,-0.9 6.2,1.3 12.5,2.8 18.5,4.7 5.9,1.9 11.7,4.4 16.9,7.7 5.6,3.5 10.5,8.1 14.7,13.2 4.3,5.2 8.1,11.1 10.6,17.3 2.6,6.4 3.8,13.3 3.8,20.2 0.1,14.3 -4.8,28.2 -11.8,40.5 -3.3,5.9 -7.3,11.1 -13.3,14.5 -5.3,3.1 -11.4,4.6 -17.5,5.6 -6.8,1 -13.7,1.4 -20.5,1.5 -7.5,0.1 -15,-0.2 -22.4,-1.5 -12.8,-2.2 -25.2,-7.2 -34.9,-16.1 -4.6,-4.3 -8.4,-9.4 -11,-15.1 -3.1,-6.9 -4.2,-14.2 -4.2,-21.7 -0.1,-7.6 0.2,-15.4 1.6,-22.9 1.4,-7.3 4.2,-14.2 7.9,-20.6 3.4,-6 7.7,-11.4 13.3,-15.5 4.9,-3.6 10.4,-6.2 16.2,-8.1 2.9,-1 5.9,-1.8 8.8,-2.6 1,-0.2 0.7,-1.4 -0.1,-1.2 z"
   fill="#545454" />
		</g>
	</g>
</g><g
     transform="matrix(0.52188005,0,0,0.52188005,-26.520472,-28.543615)"
     id="RER">
	<path
   id="path27"
   d="m 165.1,120.1 c -1.3,0.4 -2.7,-0.2 -3.3,-1.4 -0.6,-1.2 -0.3,-2.7 0.7,-3.6"
   stroke-miterlimit="10"
   stroke-linejoin="round"
   stroke-linecap="round"
   stroke="#545454"
   fill="#acead7" />
	<path
   id="path29"
   d="m 123,140.9 c 0.2,0.3 0.5,0.5 0.4,0.9 0,0.2 -0.1,0.3 -0.3,0.4 -0.3,0.2 -0.7,0.2 -1,0.4 -0.3,0.2 -0.6,0.8 -0.4,1.2 0.1,0.2 0.3,0.4 0.4,0.5 0.5,0.4 0.9,1 1.2,1.8 0.1,0.2 0.1,0.4 0,0.6 0,0.1 -0.1,0.1 -0.1,0.1 -0.6,0.5 -0.5,1.9 0,2.6 0.5,0.7 1.2,0.8 1.9,0.8 0.7,0 1.4,-0.1 2,0.1 0.2,0.1 0.5,0.4 0.4,0.8 0,0.1 -0.1,0.2 -0.1,0.3 0,0.1 0.1,0.2 0.2,0.3 0.1,0 0.2,-0.1 0.3,-0.1 0,0.5 0,1 0,1.4 0.1,0.4 0.2,0.9 0.5,1 0.2,0.1 0.4,-0.1 0.5,-0.2 0.1,-0.1 0.2,-0.2 0.3,-0.1 0.1,0 0.1,0.2 0.1,0.2 0,0.2 0.1,0.4 0.1,0.6 0.2,-0.4 0.8,0.1 0.9,0.6 0.1,0.5 0.3,1.1 0.6,1.2 0.2,0.1 0.5,-0.2 0.7,-0.2 0.6,-0.1 1,0.9 1.6,1.1 0.6,0.2 1.4,-0.5 1.9,0.1 0.1,0.2 0.2,0.5 0.3,0.8 0.3,0.6 0.9,0.8 1.3,0.4 0.2,-0.2 0.3,-0.4 0.5,-0.5 0.4,-0.2 0.8,0.2 1.1,0.4 0.5,0.4 1.1,0.6 1.7,0.6 0.2,0 0.4,0 0.5,-0.2 0.2,-0.2 0.4,-0.6 0.6,-0.9 0.9,-0.8 1.9,1.7 2.8,0.9 0.1,-0.1 0.2,-0.4 0.4,-0.5 0.2,-0.1 0.3,-0.1 0.5,-0.1 0.7,0.1 1.4,0.2 2.1,0.3 0.4,0.1 1,0 1.2,-0.6 0.1,-0.2 0,-0.5 0.1,-0.7 0.1,-0.8 0.9,-0.9 1.4,-0.6 0.2,0.1 0.3,0.2 0.5,0.3 0.4,0.1 0.9,-0.8 0.7,-1.4 1,0.1 2,0.2 3,0.3 0.4,0 0.9,0 1,-0.6 0.1,-0.3 -0.1,-0.7 -0.1,-1.1 0,-0.5 0.3,-0.9 0.7,-1 0.3,-0.1 0.6,0 1,0.2 0,-1 0.4,-1.9 0.9,-2.4 0.5,-0.5 1.3,-0.6 1.8,-0.2 0,-0.5 0,-1 0,-1.5 0.4,0.1 0.7,0.5 1,0.8 0.3,0.3 0.8,0.5 1.1,0.3 0.4,-0.2 0.8,-0.8 0.5,-1.3 0.1,-0.4 -0.1,-0.8 -0.3,-1 -0.2,-0.1 -0.5,-0.1 -0.8,0 -0.3,0 -0.6,0.1 -0.8,-0.2 -0.1,-0.1 -0.2,-0.3 -0.2,-0.5 0,-0.1 0.1,-0.3 0.1,-0.4 0.5,-1.1 1.5,-1.2 2.4,-1.6 0.5,-0.2 1,-0.8 0.9,-1.6 0,-0.4 -0.3,-0.8 -0.6,-0.9 -0.3,-0.1 -0.6,-0.1 -0.9,-0.1 -0.5,0 -1,0 -1.5,0 -0.1,0 -0.3,0 -0.4,-0.2 -0.1,-0.3 0.1,-0.5 0.3,-0.6 0.4,-0.2 0.8,-0.5 1.2,-0.8 0.1,0 0.3,0 0.4,0 0.4,-0.2 0.8,-0.4 1,-0.8 0.2,-0.4 0.3,-1.1 -0.1,-1.4 -0.2,-0.2 -0.6,-0.2 -0.6,-0.6 0,-0.3 0.3,-0.5 0.4,-0.8 0.2,-0.3 0.1,-0.7 -0.1,-1 -0.1,-0.1 -0.3,-0.2 -0.4,-0.3 -0.1,-0.1 -0.3,-0.2 -0.3,-0.4 0,-0.4 0.6,-0.5 0.6,-0.9 0.1,-0.3 -0.2,-0.5 -0.4,-0.7 -0.2,-0.1 -0.5,-0.3 -0.5,-0.6 0,-0.3 0.4,-0.5 0.5,-0.9 0.1,-0.4 -0.2,-0.7 -0.5,-0.9 -0.3,-0.2 -0.6,-0.4 -0.6,-0.8 -0.1,-0.5 0.4,-0.8 0.6,-1.2 0.2,-0.5 0.1,-1.2 -0.3,-1.4 -0.2,-0.1 -0.4,-0.1 -0.7,-0.2 -0.2,-0.1 -0.4,-0.3 -0.4,-0.6 0,-0.4 0.5,-0.7 0.6,-1.1 0,-0.3 -0.1,-0.5 -0.3,-0.7 -0.2,-0.1 -0.4,-0.2 -0.6,-0.1 -0.2,0 -0.3,0.1 -0.5,0 -0.2,0 -0.3,-0.2 -0.3,-0.4 0,-0.1 0.1,-0.3 0.1,-0.4 0.1,-0.4 -0.2,-0.7 -0.5,-0.9 -0.3,-0.1 -0.6,-0.1 -0.9,-0.1 -0.3,0 -0.6,-0.3 -0.7,-0.7 0,-0.5 0,-1.1 0.2,-1.6 0.1,-0.2 0.1,-0.4 0.1,-0.7 0,-0.3 -0.1,-0.5 -0.2,-0.6 -0.1,-0.1 -0.2,-0.1 -0.3,-0.1 -0.4,0 -0.8,0 -1.2,0 0,-0.4 0.2,-0.7 0.3,-1 0.1,-0.3 0.2,-0.8 0,-1 -0.2,-0.2 -0.4,-0.2 -0.6,-0.2 -0.1,0 -0.2,0 -0.4,0 -0.1,0 -0.1,0 -0.2,0 -0.2,-0.1 -0.1,-0.5 0,-0.8 0.1,-0.3 -0.2,-0.6 -0.4,-0.6 -0.2,0 -0.5,0.2 -0.7,0.3 -0.2,0.1 -0.6,0.3 -0.7,0 -0.2,-0.6 -0.4,-1.2 -0.8,-1.5 -0.6,-0.4 -1.3,0 -1.8,0.5 -0.5,0.6 -1,1.3 -1.6,1.6 -0.2,0.1 -0.4,0.1 -0.6,-0.1 -0.2,-0.4 0.1,-0.9 0.3,-1.4 0.1,-0.5 0,-1.1 -0.3,-1.4 -0.3,-0.2 -0.8,0 -0.9,0.4 -0.1,0.3 -0.1,0.6 -0.3,0.9 -0.3,0.5 -0.9,0.2 -1.2,-0.2 -0.3,-0.4 -0.8,-1 -1.2,-0.8 -0.3,-0.2 -0.1,-0.9 -0.4,-1.2 -0.1,-0.1 -0.1,-0.1 -0.2,-0.1 -0.2,0 -0.4,0 -0.6,0.2 -0.2,0.1 -0.3,0.3 -0.4,0.5 -0.1,0.2 -0.4,0.2 -0.5,0 -0.2,-0.2 -0.1,-0.6 -0.2,-0.8 -0.1,-0.1 -0.2,-0.1 -0.3,-0.1 -0.3,0 -0.6,0.2 -0.8,0.5 -0.2,0.3 -0.4,0.6 -0.6,0.9 -0.2,0.3 -0.6,0.3 -0.9,0 -0.1,-0.1 -0.1,-0.2 -0.2,-0.3 -0.2,-0.3 -0.6,-0.1 -0.8,0.3 -0.2,0.3 -0.3,0.7 -0.6,0.9 -0.2,0.1 -0.3,0.1 -0.5,0.1 -0.3,0 -0.7,0 -0.9,-0.3 -0.1,-0.1 -0.1,-0.2 -0.2,-0.3 -0.1,-0.1 -0.2,-0.1 -0.3,-0.1 -0.2,0 -0.4,0 -0.5,0.1 -0.3,0.2 -0.3,0.8 -0.2,1.3 -0.3,0 -0.7,-0.1 -1,-0.1 -0.2,0 -0.4,0 -0.5,0.1 -0.2,0.2 -0.1,0.7 -0.2,0.9 -0.1,0.2 -0.4,0.1 -0.6,0.1 -0.2,-0.1 -0.3,-0.2 -0.5,-0.1 -0.6,0.3 -1,1.2 -1.3,2 -0.2,0 -0.3,-0.4 -0.3,-0.7 0,-0.3 0.1,-0.6 0.2,-0.9 0.1,-1 -0.6,-1.8 -1.3,-1.6 -0.6,0.2 -1.1,1.2 -1.2,2.2 -0.1,0.7 0,1.4 -0.1,2.1 -0.1,0.7 -0.5,1.4 -1,1.2 -0.2,-0.1 -0.4,-0.3 -0.6,-0.5 -0.6,-0.5 -1.5,0.1 -1.7,1.1 -0.1,0.3 -0.1,0.8 -0.3,1 -0.4,0.4 -0.9,-0.6 -1.4,-0.5 -0.4,0.1 -0.5,0.9 -0.5,1.5 0,0.6 0,1.4 -0.3,1.7 -0.2,0.2 -0.5,0.2 -0.8,0.3 -0.6,0.2 -1.2,0.8 -1.3,1.7 -0.1,0.9 0.5,1.9 1.1,1.7 0.2,-0.1 0.4,-0.3 0.7,-0.4 0.2,-0.1 0.6,0 0.6,0.4 0,0.3 -0.1,0.6 -0.2,0.9 -0.4,0.3 -0.7,0.7 -0.8,1.2 0.3,-0.1 0.8,-0.1 1,0.3 0.1,0.3 0,0.7 -0.2,1 -0.2,0.2 -0.5,0.4 -0.7,0.7 -0.2,0.2 -0.3,0.6 -0.2,1 0.2,0.4 0.8,0.5 0.7,1 0,0.3 -0.3,0.4 -0.4,0.6 -0.2,0.1 -0.4,0.4 -0.2,0.7 0.1,0.3 0.5,0.1 0.8,0.2 0.2,0.1 0.3,0.5 0.2,0.9 -0.1,0.3 -0.3,0.6 -0.4,0.9 -0.1,0.3 -0.1,0.7 0.1,0.9 -0.1,0.6 0.4,0.5 0.6,0.9 z"
   stroke-miterlimit="10"
   stroke-linejoin="round"
   stroke-linecap="round"
   stroke="#545454"
   fill="#9bdbea" />
	<path
   id="path31"
   d="m 161.3,143.8 c 0,3.6 0.9,7.2 2.5,10.5 0.5,1.1 1.4,2.2 2.5,2.2 1.2,0 2.1,-1.3 3.3,-1.4 1.4,-0.1 2.3,1.3 3.1,2.4 0.8,1.1 2.5,2.1 3.5,1.2 0.5,-0.5 0.6,-1.3 0.9,-1.9 0.7,-1.8 2.9,-2.5 4.9,-2.7 1.9,-0.1 4,0.1 5.8,-0.6 1.8,-0.8 3.2,-3.1 2,-4.7 -0.7,-1.1 -2.3,-1.4 -2.8,-2.6 -0.8,-1.7 0.9,-3.4 2.5,-4.5 1.5,-1.1 3.2,-2.9 2.2,-4.5 -0.8,-1.3 -2.7,-1.2 -3.8,-2.3 -2.9,-2.7 2.9,-8.4 0.1,-11.2 -0.6,-0.6 -1.5,-0.9 -2.1,-1.5 -2.3,-2.4 2,-6.7 0.3,-9.6 -1.3,-2.3 -5.4,-2 -6.1,-4.5 -0.3,-0.9 0,-1.8 -0.1,-2.7 -0.1,-2.5 -3,-4.4 -5.3,-3.5 -0.5,0.2 -1,0.5 -1.5,0.6 -1.7,0.3 -3,-1.4 -4,-2.7 -1,-1.4 -2.8,-2.7 -4.2,-1.8 -0.9,0.6 -1.1,1.8 -1.8,2.6 -1.6,1.6 -4.3,0.1 -6,-1.4 -1.7,-1.5 -4.2,-3.1 -6,-1.7 1.1,1.1 -0.9,2.7 -2.5,2.8 -1.6,0.2 -3.8,1 -3.2,2.5 0.2,0.5 0.8,1 0.8,1.5 0.2,1.6 -3,1.5 -3.2,3.1 -0.1,0.8 0.6,1.5 0.4,2.3 -0.2,0.8 -1.2,1.1 -1.5,1.8 -0.5,1 0.5,2.1 1.5,2.5 1,0.3 2.2,0.2 3.2,0.6 2.2,0.8 2.9,3.5 3.1,5.7 0.2,2.3 0.1,4.8 1.5,6.6 1.1,1.4 2.7,2.1 4.1,3.1 4,3 5,8.5 5.7,13.4"
   stroke-miterlimit="10"
   stroke="#545454"
   fill="#efab5e" />
</g><g
     transform="matrix(0.52188005,0,0,0.52188005,-26.520472,-28.543615)"
     id="g85">
	<g
   id="g83">
		<path
   id="path81"
   d="m 133.4,132.8 c 2.2,0 2.2,-3.4 0,-3.4 -2.2,-0.1 -2.2,3.4 0,3.4 z"
   fill="#57c3dc" />
	</g>
</g><path
     id="path165"
     d="m 51.291843,57.984099 c -0.887196,-0.05219 -1.722204,0 -2.557212,0.26094 -0.626256,0.208752 -1.252512,0.574068 -1.617828,1.148136 -0.52188,0.78282 -0.417504,1.82658 0.104376,2.6094 0.52188,0.78282 1.356888,1.3047 2.191896,1.56564 0.469692,0.156564 0.991572,0.26094 1.513452,0.313128 0.939384,0.156564 1.878768,0.313128 2.818152,0.469692 0.939384,0.156564 1.930956,0.313128 2.765965,-0.104376 1.148136,-0.574068 1.513452,-2.08752 1.095948,-3.287844 -0.417504,-1.200324 -1.513453,-2.035332 -2.713777,-2.452836 -1.200324,-0.417504 -1.774392,-0.574068 -3.026904,-0.626256 z"
     stroke-miterlimit="10"
     stroke="#545454"
     fill="#689b51"
     style="stroke-width:0.52188" /><path
     id="path167"
     d="m 71.384225,63.150711 c -0.208752,0 -0.365316,0 -0.574068,0.05219 -0.156564,0.05219 -0.26094,0.104376 -0.365316,0.26094 -0.104376,0.156564 -0.104376,0.417504 0,0.574068 0.104376,0.156564 0.26094,0.26094 0.469692,0.313128 0.104376,0.05219 0.208752,0.05219 0.313128,0.05219 0.208752,0.05219 0.417504,0.05219 0.626256,0.104376 0.208752,0.05219 0.417504,0.05219 0.626256,0 0.26094,-0.104376 0.313128,-0.469692 0.26094,-0.730632 -0.104376,-0.26094 -0.313128,-0.469692 -0.574068,-0.52188 -0.26094,-0.104376 -0.417504,-0.104376 -0.678444,-0.104376 z"
     stroke-miterlimit="10"
     stroke="#545454"
     fill="#ce4f43"
     style="stroke-width:0.52188" /><path
     id="path169"
     d="m 48.786819,15.607438 c -0.208752,0 -0.365316,0 -0.574068,0.05219 -0.156564,0.05219 -0.26094,0.104376 -0.365316,0.26094 -0.104376,0.156564 -0.104376,0.417504 0,0.574068 0.104376,0.156564 0.26094,0.26094 0.469692,0.313128 0.104376,0.05219 0.208752,0.05219 0.313128,0.05219 0.208752,0.05219 0.417504,0.05219 0.626256,0.104376 0.208752,0.05219 0.417504,0.05219 0.626256,0 0.26094,-0.104376 0.313128,-0.469692 0.26094,-0.730632 -0.104376,-0.26094 -0.313128,-0.469692 -0.574068,-0.52188 -0.26094,-0.104376 -0.417504,-0.104376 -0.678444,-0.104376 z"
     stroke-miterlimit="10"
     stroke="#545454"
     fill="#ce4f43"
     style="stroke-width:0.52188" /><path
     id="path171"
     d="m 77.385846,24.009706 c -0.208753,0 -0.365317,0 -0.574069,0.05219 -0.156564,0.05219 -0.26094,0.104376 -0.365316,0.260941 -0.104376,0.156564 -0.104376,0.417504 0,0.574068 0.104376,0.156564 0.26094,0.26094 0.469692,0.313128 0.104376,0.05219 0.208752,0.05219 0.313129,0.05219 0.208752,0.05219 0.417504,0.05219 0.626256,0.104376 0.208752,0.05219 0.417504,0.05219 0.626256,0 0.26094,-0.104376 0.313128,-0.469692 0.26094,-0.730632 -0.104376,-0.26094 -0.313128,-0.469693 -0.574068,-0.521881 -0.26094,-0.104376 -0.417504,-0.104376 -0.678444,-0.104376 z"
     stroke-miterlimit="10"
     stroke="#545454"
     fill="#ce4f43"
     style="stroke-width:0.52188" /><path
     id="path173"
     d="m 28.694437,37.630776 c -0.208752,0 -0.365316,0 -0.574068,0.05219 -0.156564,0.05219 -0.26094,0.104376 -0.365316,0.26094 -0.104376,0.156564 -0.104376,0.417504 0,0.574068 0.104376,0.156564 0.26094,0.26094 0.469692,0.313128 0.104376,0.05219 0.208752,0.05219 0.313128,0.05219 0.208752,0.05219 0.417504,0.05219 0.626256,0.104376 0.208752,0.05219 0.417504,0.05219 0.626256,0 0.26094,-0.104376 0.313128,-0.469692 0.26094,-0.730632 -0.104376,-0.26094 -0.313128,-0.469692 -0.574068,-0.52188 -0.26094,-0.104376 -0.417504,-0.104376 -0.678444,-0.104376 z"
     stroke-miterlimit="10"
     stroke="#545454"
     fill="#ce4f43"
     style="stroke-width:0.52188" /><path
     id="path175"
     d="m 72.427985,30.846335 c -0.208752,0 -0.365316,0 -0.574068,0.05219 -0.156564,0.05219 -0.26094,0.104376 -0.365316,0.26094 -0.104376,0.156564 -0.104376,0.417504 0,0.574068 0.104376,0.156564 0.26094,0.26094 0.469692,0.313128 0.104376,0.05219 0.208752,0.05219 0.313128,0.05219 0.208752,0.05219 0.417504,0.05219 0.626256,0.104376 0.208752,0.05219 0.417504,0.05219 0.626256,0 0.26094,-0.104376 0.313128,-0.469692 0.26094,-0.730632 -0.104376,-0.26094 -0.313128,-0.469692 -0.574068,-0.52188 -0.26094,-0.104376 -0.417504,-0.104376 -0.678444,-0.104376 z"
     stroke-miterlimit="10"
     stroke="#545454"
     fill="#ce4f43"
     style="stroke-width:0.52188" /><path
     id="path177"
     d="m 42.889574,63.150711 c -0.208752,0 -0.365316,0 -0.574068,0.05219 -0.156564,0.05219 -0.26094,0.104376 -0.365316,0.26094 -0.104376,0.156564 -0.104376,0.417504 0,0.574068 0.104376,0.156564 0.26094,0.26094 0.469692,0.313128 0.104376,0.05219 0.208752,0.05219 0.313128,0.05219 0.208752,0.05219 0.417504,0.05219 0.626256,0.104376 0.208752,0.05219 0.417504,0.05219 0.626256,0 0.26094,-0.104376 0.313128,-0.469692 0.26094,-0.730632 -0.104376,-0.26094 -0.313128,-0.469692 -0.574068,-0.52188 -0.26094,-0.104376 -0.417504,-0.104376 -0.678444,-0.104376 z"
     stroke-miterlimit="10"
     stroke="#545454"
     fill="#ce4f43"
     style="stroke-width:0.52188" /><path
     id="path179"
     d="m 80.725878,45.928669 c -0.208752,0 -0.365316,0 -0.574068,0.05219 -0.156564,0.05219 -0.26094,0.104376 -0.365316,0.26094 -0.104376,0.156564 -0.104376,0.417504 0,0.574068 0.104376,0.156564 0.26094,0.26094 0.469692,0.313128 0.104376,0.05219 0.208752,0.05219 0.313128,0.05219 0.208752,0.05219 0.417504,0.05219 0.626256,0.104376 0.208752,0.05219 0.417504,0.05219 0.626256,0 0.26094,-0.104376 0.313128,-0.469692 0.26094,-0.730632 -0.104376,-0.26094 -0.313128,-0.469692 -0.574068,-0.52188 -0.26094,-0.104376 -0.417504,-0.104376 -0.678444,-0.104376 z"
     stroke-miterlimit="10"
     stroke="#545454"
     fill="#ce4f43"
     style="stroke-width:0.52188" /><g
     transform="matrix(0.52188005,0,0,0.52188005,-26.520472,-28.543615)"
     id="g415">
	<g
   id="g413">
		<path
   id="path411"
   d="m 131.5,146.9 c 2.2,0 2.2,-3.4 0,-3.4 -2.2,0 -2.2,3.4 0,3.4 z"
   fill="#57c3dc" />
	</g>
</g><g
     transform="matrix(0.52188005,0,0,0.52188005,-26.520472,-28.543615)"
     id="g421">
	<g
   id="g419">
		<path
   id="path417"
   d="m 137,155.8 c 2.2,0 2.2,-3.4 0,-3.4 -2.2,0 -2.2,3.4 0,3.4 z"
   fill="#57c3dc" />
	</g>
</g><g
     transform="matrix(0.52188005,0,0,0.52188005,-26.520472,-28.543615)"
     id="g427">
	<g
   id="g425">
		<path
   id="path423"
   d="m 143,152.1 c 2.2,0 2.2,-3.4 0,-3.4 -2.2,0 -2.2,3.4 0,3.4 z"
   fill="#57c3dc" />
	</g>
</g><g
     transform="matrix(0.52188005,0,0,0.52188005,-26.520472,-28.543615)"
     id="g433">
	<g
   id="g431">
		<path
   id="path429"
   d="m 149.9,154 c 2.2,0 2.2,-3.4 0,-3.4 -2.2,0 -2.2,3.4 0,3.4 z"
   fill="#57c3dc" />
	</g>
</g><g
     transform="matrix(0.52188005,0,0,0.52188005,-26.520472,-28.543615)"
     id="g439">
	<g
   id="g437">
		<path
   id="path435"
   d="m 127.9,139.3 c 2.2,0 2.2,-3.4 0,-3.4 -2.2,-0.1 -2.2,3.4 0,3.4 z"
   fill="#57c3dc" />
	</g>
</g><g
     transform="matrix(0.52188005,0,0,0.52188005,-26.520472,-28.543615)"
     id="g445">
	<g
   id="g443">
		<path
   id="path441"
   d="m 136.1,142 c 2.2,0 2.2,-3.4 0,-3.4 -2.2,0 -2.2,3.4 0,3.4 z"
   fill="#57c3dc" />
	</g>
</g><g
     transform="matrix(0.52188005,0,0,0.52188005,-26.520472,-28.543615)"
     id="g451">
	<g
   id="g449">
		<path
   id="path447"
   d="m 136.1,124.5 c 2.2,0 2.2,-3.4 0,-3.4 -2.2,0 -2.2,3.4 0,3.4 z"
   fill="#57c3dc" />
	</g>
</g><g
     transform="matrix(0.52188005,0,0,0.52188005,-26.520472,-28.543615)"
     id="g457">
	<g
   id="g455">
		<path
   id="path453"
   d="m 127.2,128.5 c 2.2,0 2.2,-3.4 0,-3.4 -2.2,0 -2.2,3.4 0,3.4 z"
   fill="#57c3dc" />
	</g>
</g><g
     transform="matrix(0.52188005,0,0,0.52188005,-26.520472,-28.543615)"
     id="Mitochondrian">
	<g
   id="g465">
		<path
   id="path459"
   d="m 214,120.8 c 1.4,-0.1 2.7,0 4,0.4 1.1,0.4 2.2,1 2.9,2.1 0.8,1.1 1.2,2.8 0.8,4.2 -0.3,1.2 -1.1,2 -2,2.4 -0.9,0.4 -1.8,0.5 -2.7,0.6 -3.3,0.2 -6.6,0.5 -9.9,0.7 -1.3,0.1 -2.6,0.2 -3.8,-0.4 -1.2,-0.6 -2.3,-2.1 -2.2,-3.9 0,-1.3 0.6,-2.5 1.4,-3.3 1.5,-1.8 3.5,-2.6 5.5,-2.9 1.8,-0.3 4,-0.2 6,0.1"
   fill="#ce4f43" />
		<g
   id="g463">
			<path
   id="path461"
   d="m 214,121.2 c 2,-0.1 4.3,0.1 5.9,1.6 1.6,1.5 2.2,4.4 0.5,6.1 -1.5,1.5 -4.2,1.3 -6.1,1.4 -2,0.1 -4,0.3 -5.9,0.4 -1.8,0.1 -4.1,0.5 -5.6,-0.8 -2,-1.7 -1.5,-4.5 0.1,-6.3 2.7,-3.1 7.3,-2.9 11.1,-2.4 0.5,0.1 0.5,-0.8 0,-0.9 -4.6,-0.6 -11,-0.4 -13.1,4.7 -0.7,1.8 -0.4,3.8 1,5.2 1.7,1.8 4.2,1.4 6.5,1.2 3.2,-0.2 6.5,-0.2 9.7,-0.7 1.9,-0.3 3.5,-1.3 4.1,-3.2 0.5,-1.9 -0.2,-4.1 -1.6,-5.4 -1.8,-1.6 -4.2,-1.9 -6.5,-1.8 -0.7,0.1 -0.7,0.9 -0.1,0.9 z"
   fill="#545454" />
		</g>
	</g>
	<g
   id="g473">
		<path
   id="path467"
   d="m 213.9,120.7 c 1.4,0 2.6,0 3.9,0.3 1.1,0.3 1.8,1.1 2.8,1.5 1.3,0.6 1.1,2 0.8,3 -0.3,0.9 -1.1,1.4 -1.9,1.7 -0.8,0.3 -1.7,0.3 -2.7,0.4 -3.2,0.2 -6.4,0.3 -9.6,0.5 -1.3,0.1 -2.5,0 -3.7,-0.3 -1.7,-0.4 -2.2,-1.5 -2.2,-2.8 0,-0.9 0.6,-1.8 1.3,-2.4 1.4,-1.3 3.3,-1.9 5.3,-2.1 1.9,-0.1 4.1,0 6,0.2"
   fill="#fb6154" />
		<g
   id="g471">
			<path
   id="path469"
   d="m 213.9,121.1 c 1.9,0 3.7,0.1 5.3,1.1 0.9,0.5 1.9,1 2,2.1 0,1 -0.7,1.8 -1.5,2.3 -1.5,0.9 -3.8,0.6 -5.5,0.7 -1.8,0.1 -3.6,0.2 -5.4,0.3 -1.8,0.1 -3.9,0.3 -5.6,-0.3 -2.5,-1 -1.2,-3.7 0.5,-4.9 2.9,-1.9 6.9,-1.6 10.2,-1.3 0.5,0.1 0.5,-0.8 0,-0.9 -3.8,-0.4 -10.8,-0.8 -12.7,3.7 -2,4.7 5,4.7 7.6,4.5 3,-0.2 6.1,-0.2 9.1,-0.5 1.6,-0.2 3.3,-0.8 3.9,-2.4 0.6,-1.4 0.3,-2.7 -1,-3.5 -2.3,-1.5 -4.2,-1.9 -6.9,-1.9 -0.6,0.2 -0.6,1 0,1 z"
   fill="#545454" />
		</g>
	</g>
	<g
   id="g481">
		<path
   id="path475"
   d="m 217.3,122.8 c 0.2,0.1 0.3,0.2 0.3,0.4 0,0.2 -0.1,0.4 -0.2,0.5 -0.1,0.1 -0.2,0.2 -0.3,0.2 -0.3,0.1 -0.8,-0.1 -0.9,-0.5 0,-0.1 0,-0.1 0,-0.2 0,-0.1 0.1,-0.1 0.1,-0.2 0.1,-0.1 0.2,-0.3 0.4,-0.3 0.1,-0.1 0.3,-0.1 0.5,0"
   fill="#f37a75" />
		<g
   id="g479">
			<path
   id="path477"
   d="m 217.3,122.8 c 0.6,0.3 0,1.3 -0.6,0.9 -0.3,-0.2 -0.4,-0.4 -0.2,-0.7 0.2,-0.2 0.4,-0.4 0.7,-0.2 0.1,0.1 0.2,-0.1 0.1,-0.1 -0.4,-0.2 -0.8,0.1 -1,0.4 -0.2,0.3 0.1,0.8 0.4,0.9 0.8,0.4 1.6,-0.9 0.7,-1.3 -0.2,-0.1 -0.2,0.1 -0.1,0.1 z"
   fill="#f6a1a1" />
		</g>
	</g>
	<g
   id="g489">
		<path
   id="path483"
   d="m 211.8,123.3 c 0.2,0.1 0.4,0.3 0.4,0.6 0,0.2 -0.2,0.5 -0.4,0.6 -0.3,0.1 -0.6,0 -0.8,-0.2 -0.2,-0.2 -0.1,-0.6 0.1,-0.8 0.2,-0.2 0.5,-0.2 0.7,-0.2"
   fill="#f37a75" />
		<g
   id="g487">
			<path
   id="path485"
   d="m 211.8,123.4 c 0.3,0.1 0.4,0.5 0.2,0.8 -0.2,0.2 -0.5,0.3 -0.8,0.2 -0.3,-0.1 -0.4,-0.4 -0.3,-0.7 0.2,-0.3 0.5,-0.3 0.9,-0.3 0.1,0 0.1,-0.2 0,-0.2 -0.4,0 -0.9,0.1 -1,0.5 -0.1,0.4 0.1,0.7 0.5,0.8 0.4,0.1 0.8,-0.1 1,-0.4 0.2,-0.4 0,-0.8 -0.4,-0.9 -0.2,0 -0.2,0.2 -0.1,0.2 z"
   fill="#f6a1a1" />
		</g>
	</g>
	<g
   id="g497">
		<path
   id="path491"
   d="m 206.4,122.6 c 0.2,-0.1 0.3,0 0.5,0.1 0.1,0.1 0.2,0.3 0.2,0.5 0,0.1 0,0.2 -0.1,0.3 -0.1,0.1 -0.1,0.1 -0.2,0.1 -0.2,0.1 -0.4,0.1 -0.6,0 -0.1,-0.1 -0.2,-0.2 -0.2,-0.3 -0.1,-0.2 -0.1,-0.3 0,-0.5 0,-0.1 0.1,-0.2 0.4,-0.2"
   fill="#f37a75" />
		<g
   id="g495">
			<path
   id="path493"
   d="m 206.4,122.7 c 0.2,-0.1 0.4,0.1 0.5,0.3 0,0.1 0,0.3 0,0.4 -0.1,0.1 -0.2,0.1 -0.3,0.1 -0.2,0.1 -0.5,0.1 -0.6,-0.2 -0.1,-0.2 -0.1,-0.7 0.3,-0.6 0.1,0 0.1,-0.1 0,-0.2 -0.4,-0.1 -0.6,0.3 -0.5,0.6 0.1,0.4 0.3,0.6 0.7,0.5 0.2,0 0.4,-0.1 0.5,-0.2 0.1,-0.1 0.1,-0.3 0.1,-0.5 0,-0.3 -0.3,-0.6 -0.7,-0.5 -0.2,0.1 -0.1,0.3 0,0.3 z"
   fill="#f6a1a1" />
		</g>
	</g>
	<g
   id="g505">
		<path
   id="path499"
   d="m 206.3,125.6 c 0.1,0.1 0.1,0.2 0.1,0.3 0,0.1 -0.1,0.3 -0.2,0.4 -0.1,0.1 -0.3,0.1 -0.4,0.2 -0.1,0 -0.2,0 -0.3,0 -0.3,0 -0.5,-0.4 -0.4,-0.7 0.1,-0.3 0.4,-0.5 0.7,-0.5 0.1,-0.1 0.3,0 0.5,0.3"
   fill="#f37a75" />
		<g
   id="g503">
			<path
   id="path501"
   d="m 206.2,125.6 c 0.2,0.4 0,0.6 -0.4,0.8 -0.3,0.1 -0.6,0 -0.7,-0.3 -0.1,-0.5 0.8,-1.1 1.1,-0.5 0,0 0.2,-0.1 0.1,-0.2 -0.4,-0.7 -1.6,0 -1.3,0.8 0.2,0.4 0.6,0.4 1,0.3 0.4,-0.2 0.5,-0.5 0.3,-1 0,-0.1 -0.1,0 -0.1,0.1 z"
   fill="#f6a1a1" />
		</g>
	</g>
	<g
   id="g513">
		<path
   id="path507"
   d="m 214.3,125.2 c 0.2,-0.1 0.4,0 0.4,0.2 0.1,0.1 0.1,0.3 0.1,0.5 0,0.1 0,0.1 0,0.2 0,0.1 -0.1,0.1 -0.1,0.1 -0.2,0.2 -0.6,0.2 -0.9,0.1 -0.3,-0.1 -0.5,-0.4 -0.5,-0.7 0,-0.1 0,-0.3 0.1,-0.4 0.1,-0.1 0.2,-0.1 0.3,-0.1 0.2,0 0.5,0 0.7,0"
   fill="#f37a75" />
		<g
   id="g511">
			<path
   id="path509"
   d="m 214.3,125.2 c 0.3,-0.1 0.4,0.2 0.4,0.5 0,0.2 -0.1,0.3 -0.3,0.4 -0.2,0.1 -0.5,0.1 -0.8,0 -0.2,-0.1 -0.4,-0.5 -0.3,-0.8 0.2,-0.3 0.8,-0.2 1,-0.2 0.1,0 0.1,-0.2 0,-0.2 -0.4,0 -1.1,-0.1 -1.2,0.4 -0.1,0.5 0.3,0.9 0.8,1 0.3,0.1 0.9,-0.1 1,-0.5 0.1,-0.4 -0.2,-0.9 -0.6,-0.8 -0.1,0.1 -0.1,0.3 0,0.2 z"
   fill="#f6a1a1" />
		</g>
	</g>
	<g
   id="g521">
		<path
   id="path515"
   d="m 209.2,125.3 c 0.2,0 0.2,0.3 0.1,0.4 -0.1,0.1 -0.3,0.2 -0.4,0.2 -0.2,0 -0.3,0 -0.4,-0.1 -0.1,-0.1 -0.2,-0.4 -0.1,-0.5 0.1,-0.2 0.3,-0.2 0.5,-0.2 0.2,0 0.4,0.2 0.4,0.4"
   fill="#f37a75" />
		<g
   id="g519">
			<path
   id="path517"
   d="m 209.1,125.4 c 0.1,0 0.1,0.2 0.1,0.3 0,0.1 -0.2,0.1 -0.3,0.1 -0.2,0 -0.5,0 -0.5,-0.3 0,-0.2 0.2,-0.4 0.4,-0.4 0.2,0 0.4,0.1 0.5,0.3 0,0.1 0.2,0 0.1,-0.1 -0.2,-0.3 -0.5,-0.5 -0.9,-0.4 -0.3,0.1 -0.4,0.5 -0.2,0.8 0.2,0.3 0.7,0.3 1,0.1 0.2,-0.2 0.3,-0.6 -0.1,-0.7 -0.2,0.1 -0.2,0.2 -0.1,0.3 z"
   fill="#f6a1a1" />
		</g>
	</g>
	<g
   id="g529">
		<path
   id="path523"
   d="m 175.8,85.5 c -1.1,0.8 -2.1,1.5 -2.9,2.5 -0.6,0.9 -1.1,1.9 -1.1,3.2 0,1.3 0.6,2.8 1.7,3.7 0.9,0.7 2,0.9 2.9,0.8 0.9,-0.1 1.7,-0.6 2.4,-1.1 2.7,-1.6 5.4,-3.2 8.1,-4.9 1.1,-0.6 2.1,-1.3 2.7,-2.4 0.6,-1.1 0.6,-2.9 -0.4,-4.2 -0.8,-1 -1.8,-1.6 -2.9,-1.8 -2.1,-0.5 -4.1,-0.1 -5.8,0.7 -1.7,0.9 -3.3,2.2 -4.7,3.5"
   fill="#ce4f43" />
		<g
   id="g527">
			<path
   id="path525"
   d="m 175.6,85.1 c -3.1,2.1 -6.1,6.4 -2.7,9.8 1.5,1.5 3.5,1.5 5.3,0.6 2.8,-1.4 5.4,-3.2 8.1,-4.9 1.8,-1.1 3.9,-2.2 4.2,-4.5 0.2,-1.9 -0.7,-3.6 -2.3,-4.6 -4.5,-2.7 -9.3,0.6 -12.6,3.6 -0.4,0.4 0.2,1 0.6,0.6 2.7,-2.5 5.9,-4.9 9.8,-4.1 2.2,0.4 4.1,2.4 3.6,4.7 -0.4,2 -2.7,2.9 -4.3,3.9 -1.5,0.9 -3.1,1.8 -4.6,2.8 -1.6,1 -3.6,2.7 -5.6,2.2 -2,-0.5 -3.1,-2.9 -2.7,-4.9 0.4,-2 2,-3.4 3.7,-4.4 0.4,-0.4 0,-1.1 -0.5,-0.8 z"
   fill="#545454" />
		</g>
	</g>
	<g
   id="g537">
		<path
   id="path531"
   d="m 175.9,85.4 c -1.1,0.7 -2,1.4 -2.8,2.4 -0.6,0.8 -0.9,1.8 -1.4,2.7 -0.7,1.2 0.2,2.2 1.1,2.7 0.7,0.5 1.6,0.5 2.5,0.3 0.8,-0.2 1.5,-0.7 2.3,-1.1 2.6,-1.6 5.1,-3.2 7.7,-4.8 1,-0.6 1.9,-1.4 2.7,-2.3 1.1,-1.2 0.9,-2.4 0.2,-3.3 -0.5,-0.7 -1.5,-1 -2.3,-1.1 -1.8,-0.2 -3.6,0.4 -5.2,1.3 -1.9,0.7 -3.5,2 -4.8,3.2"
   fill="#fb6154" />
		<g
   id="g535">
			<path
   id="path533"
   d="m 175.6,85 c -2,1.3 -3.1,2.6 -4.1,4.7 -0.6,1.4 -0.8,2.4 0.6,3.5 1.4,1.1 3.1,0.8 4.6,-0.1 2.5,-1.3 4.8,-3 7.2,-4.5 2.2,-1.4 7.7,-5.1 3.6,-7.8 -3.9,-2.4 -9.1,1.8 -11.9,4.2 -0.5,0.4 0.1,1 0.5,0.6 2.5,-2.2 6.2,-5.2 9.8,-4.4 0.8,0.2 1.5,0.5 1.9,1.2 0.8,1.3 -0.2,2.4 -1.2,3.3 -1.2,1.1 -2.6,1.9 -4,2.7 -1.3,0.8 -2.6,1.6 -3.8,2.4 -1.2,0.7 -2.5,1.8 -3.8,2.1 -1.5,0.4 -3.4,-0.4 -3,-2.4 0.1,-0.3 0.3,-0.7 0.5,-1 0.8,-1.8 1.9,-2.8 3.6,-3.9 0.4,-0.2 0,-0.9 -0.5,-0.6 z"
   fill="#545454" />
		</g>
	</g>
	<g
   id="g545">
		<path
   id="path539"
   d="m 174.3,88.8 c -0.1,0.1 -0.1,0.4 0,0.5 0.1,0.2 0.3,0.2 0.4,0.3 0.1,0 0.2,0 0.3,0 0.3,-0.1 0.5,-0.5 0.4,-0.9 0,-0.1 0,-0.1 -0.1,-0.1 -0.1,-0.1 -0.1,-0.1 -0.2,-0.1 -0.2,0 -0.3,-0.1 -0.5,-0.1 -0.2,0 -0.3,0.1 -0.4,0.3"
   fill="#f37a75" />
		<g
   id="g543">
			<path
   id="path541"
   d="m 174.2,88.8 c -0.5,0.8 1,1.3 1.3,0.5 0.1,-0.3 0.1,-0.7 -0.2,-0.8 -0.4,-0.2 -0.9,-0.2 -1.1,0.3 0,0 0.2,0.1 0.2,0 0.1,-0.3 0.5,-0.2 0.7,-0.2 0.3,0.1 0.3,0.4 0.2,0.6 -0.3,0.6 -1.3,0.2 -1,-0.4 0.1,0 0,-0.1 -0.1,0 z"
   fill="#f6a1a1" />
		</g>
	</g>
	<g
   id="g553">
		<path
   id="path547"
   d="m 178.8,86.3 c -0.2,0.2 -0.1,0.5 0,0.6 0.1,0.2 0.4,0.3 0.6,0.2 0.3,-0.1 0.5,-0.3 0.5,-0.6 0,-0.3 -0.2,-0.6 -0.5,-0.6 -0.1,0 -0.3,0.2 -0.6,0.4"
   fill="#f37a75" />
		<g
   id="g551">
			<path
   id="path549"
   d="m 178.8,86.2 c -0.2,0.3 -0.1,0.7 0.2,0.9 0.3,0.2 0.8,0.1 1,-0.2 0.2,-0.3 0.2,-0.7 -0.1,-1 -0.3,-0.3 -0.7,-0.1 -1,0.2 -0.1,0.1 0,0.2 0.1,0.1 0.2,-0.2 0.5,-0.3 0.8,-0.2 0.2,0.2 0.3,0.5 0.1,0.7 -0.2,0.2 -0.5,0.3 -0.7,0.2 -0.3,-0.1 -0.3,-0.4 -0.2,-0.7 0,0 -0.2,-0.1 -0.2,0 z"
   fill="#f6a1a1" />
		</g>
	</g>
	<g
   id="g561">
		<path
   id="path555"
   d="m 182.7,82.7 c -0.2,0 -0.3,0.2 -0.3,0.3 0,0.2 0,0.3 0.1,0.4 0.1,0.1 0.1,0.2 0.2,0.2 0.1,0 0.1,0 0.2,0 0.2,-0.1 0.4,-0.1 0.5,-0.3 0,-0.1 0,-0.2 0,-0.3 0,-0.1 -0.1,-0.3 -0.3,-0.4 -0.1,0 -0.3,0 -0.4,0.1"
   fill="#f37a75" />
		<g
   id="g559">
			<path
   id="path557"
   d="m 182.6,82.7 c -0.3,0.1 -0.4,0.5 -0.3,0.8 0.1,0.1 0.2,0.3 0.3,0.3 0.2,0 0.4,0 0.5,-0.1 0.9,-0.4 0.1,-1.6 -0.5,-1 0,0.1 0.1,0.2 0.2,0.1 0.3,-0.3 0.9,0.5 0.3,0.8 -0.2,0.1 -0.4,0.1 -0.6,-0.1 -0.1,-0.2 -0.1,-0.5 0.1,-0.6 0.2,-0.1 0.1,-0.3 0,-0.2 z"
   fill="#f6a1a1" />
		</g>
	</g>
	<g
   id="g569">
		<path
   id="path563"
   d="m 184.3,85 c 0,0.1 0,0.2 0.1,0.3 0.1,0.1 0.2,0.2 0.4,0.2 0.1,0 0.3,0 0.4,-0.1 0.1,0 0.2,-0.1 0.2,-0.1 0.2,-0.2 0.2,-0.6 -0.1,-0.8 -0.2,-0.2 -0.6,-0.2 -0.9,0 0,0.1 -0.2,0.3 -0.1,0.5"
   fill="#f37a75" />
		<g
   id="g567">
			<path
   id="path565"
   d="m 184.3,85 c 0,0.4 0.3,0.6 0.7,0.6 0.4,-0.1 0.8,-0.3 0.7,-0.7 -0.1,-0.9 -1.5,-0.8 -1.4,0.1 0,0 0.2,0 0.2,-0.1 -0.1,-0.6 1,-0.6 1.1,0 0,0.3 -0.2,0.4 -0.4,0.5 -0.1,0 -0.3,0.1 -0.4,0 -0.2,-0.1 -0.2,-0.2 -0.3,-0.4 -0.1,-0.1 -0.3,-0.1 -0.2,0 z"
   fill="#f6a1a1" />
		</g>
	</g>
	<g
   id="g577">
		<path
   id="path571"
   d="m 177.9,89.1 c -0.2,0 -0.3,0.2 -0.2,0.4 0,0.2 0.1,0.3 0.2,0.4 0,0 0.1,0.1 0.1,0.1 0,0 0.1,0 0.2,0 0.3,0 0.6,-0.1 0.8,-0.4 0.2,-0.2 0.2,-0.5 0.1,-0.8 -0.1,-0.1 -0.2,-0.2 -0.3,-0.2 -0.1,0 -0.2,0 -0.3,0.1 -0.2,0.1 -0.4,0.2 -0.5,0.4"
   fill="#f37a75" />
		<g
   id="g575">
			<path
   id="path573"
   d="m 177.9,89 c -0.4,0.2 -0.3,0.6 -0.1,0.9 0.3,0.4 0.8,0.2 1.1,-0.1 0.3,-0.3 0.4,-0.9 0,-1.2 -0.4,-0.3 -0.9,0.1 -1.2,0.3 -0.1,0.1 0,0.2 0.1,0.1 0.2,-0.1 0.4,-0.4 0.7,-0.4 0.4,-0.1 0.5,0.5 0.4,0.8 -0.1,0.2 -0.3,0.4 -0.6,0.4 -0.2,0 -0.3,-0.1 -0.4,-0.2 -0.1,-0.2 -0.2,-0.5 0.1,-0.6 0.1,0.1 0,-0.1 -0.1,0 z"
   fill="#f6a1a1" />
		</g>
	</g>
	<g
   id="g585">
		<path
   id="path579"
   d="m 182,86.3 c -0.1,0.1 0,0.3 0.1,0.4 0.1,0.1 0.3,0 0.4,-0.1 0.1,-0.1 0.2,-0.2 0.3,-0.3 0,-0.2 -0.1,-0.4 -0.2,-0.5 -0.2,-0.1 -0.4,0 -0.5,0.1 -0.1,0.1 -0.2,0.3 -0.1,0.5"
   fill="#f37a75" />
		<g
   id="g583">
			<path
   id="path581"
   d="m 182,86.3 c -0.2,0.2 0,0.5 0.3,0.6 0.3,0 0.7,-0.2 0.8,-0.5 0,-0.3 -0.3,-0.5 -0.6,-0.5 -0.4,0 -0.6,0.4 -0.5,0.8 0,0.1 0.2,0.1 0.2,0 0,-0.2 0,-0.4 0.2,-0.5 0.2,-0.1 0.4,-0.1 0.5,0.1 0.1,0.2 0,0.4 -0.2,0.5 -0.1,0.1 -0.2,0.1 -0.3,0.1 -0.1,0 -0.2,-0.2 -0.1,-0.3 -0.2,-0.3 -0.3,-0.4 -0.3,-0.3 z"
   fill="#f6a1a1" />
		</g>
	</g>
	<g
   id="g651">
		<g
   id="g593">
			<path
   id="path587"
   d="m 114.1,162.1 c -1.3,0.8 -2.4,1.6 -3.3,2.8 -0.8,1 -1.3,2.2 -1.4,3.7 0,1.5 0.6,3.2 1.8,4.2 1,0.9 2.2,1.1 3.3,1 1.1,-0.1 1.9,-0.6 2.8,-1.2 3.1,-1.8 6.2,-3.6 9.3,-5.3 1.2,-0.7 2.5,-1.4 3.2,-2.7 0.7,-1.3 0.8,-3.3 -0.3,-4.8 -0.8,-1.2 -2.1,-1.8 -3.2,-2.2 -2.4,-0.7 -4.7,-0.3 -6.7,0.7 -1.9,0.9 -3.9,2.3 -5.5,3.8"
   fill="#ce4f43" />
			<g
   id="g591">
				<path
   id="path589"
   d="m 113.9,161.7 c -3,1.9 -5.8,4.9 -4.6,8.8 1.2,3.7 4.7,4.4 7.8,2.7 2.4,-1.3 4.8,-2.7 7.1,-4.1 1.9,-1.1 4.3,-2 5.6,-3.9 2.1,-2.9 0.2,-6.7 -2.9,-7.9 -5,-1.9 -9.6,1.2 -13.2,4.4 -0.4,0.4 0.2,1 0.6,0.6 3.3,-2.9 7.6,-5.9 12.2,-4.2 2.4,0.9 4.1,3.3 3,5.8 -0.9,2 -3.4,3 -5.2,4.1 -1.8,1.1 -3.7,2.1 -5.5,3.1 -1.8,1 -3.9,2.7 -6.1,1.9 -2.4,-0.8 -3.3,-3.8 -2.7,-6 0.6,-2.1 2.5,-3.6 4.3,-4.7 0.5,-0.1 0.1,-0.9 -0.4,-0.6 z"
   fill="#545454" />
			</g>
		</g>
		<g
   id="g601">
			<path
   id="path595"
   d="m 114.2,162 c -1.3,0.8 -2.4,1.6 -3.3,2.6 -0.8,0.9 -1,2 -1.6,3 -0.9,1.3 0.2,2.5 1.1,3.1 0.8,0.6 1.8,0.6 2.8,0.4 1,-0.2 1.8,-0.8 2.6,-1.2 3,-1.8 5.9,-3.5 8.9,-5.3 1.2,-0.7 2.2,-1.5 3.1,-2.5 1.3,-1.4 1.1,-2.7 0.3,-3.8 -0.6,-0.8 -1.6,-1.2 -2.6,-1.3 -2,-0.3 -4.1,0.3 -6,1.3 -1.9,1 -3.8,2.3 -5.3,3.7"
   fill="#fb6154" />
			<g
   id="g599">
				<path
   id="path597"
   d="m 113.9,161.6 c -2.1,1.4 -3.5,2.7 -4.6,5 -0.9,1.8 -1.2,3.2 0.7,4.5 1.7,1.2 3.8,0.4 5.4,-0.5 2.7,-1.5 5.4,-3.2 8,-4.8 1.8,-1.1 4.4,-2.4 5.4,-4.5 0.8,-1.6 -0.2,-3.5 -1.7,-4.3 -4.5,-2.2 -10,2 -13.2,4.6 -0.5,0.4 0.1,1 0.5,0.7 2.8,-2.3 6.1,-4.8 9.8,-4.9 2.8,-0.1 5.2,2.1 3,4.6 -1.3,1.5 -3.1,2.4 -4.8,3.4 -1.6,0.9 -3.1,1.9 -4.7,2.8 -1.6,0.9 -3.3,2.4 -5.2,2.6 -0.7,0.1 -1.2,0 -1.8,-0.3 -0.9,-0.4 -0.9,-0.5 -1,-1.6 -0.2,-1.1 -0.1,-1.1 0.3,-1.9 0.1,-0.3 0.2,-0.6 0.4,-0.9 0.9,-1.7 2.4,-2.7 3.9,-3.7 0.5,-0.4 0.1,-1.1 -0.4,-0.8 z"
   fill="#545454" />
			</g>
		</g>
		<g
   id="g609">
			<path
   id="path603"
   d="m 112.3,165.9 c -0.1,0.2 -0.1,0.4 0,0.6 0.1,0.2 0.3,0.3 0.5,0.3 0.1,0 0.3,0 0.4,0 0.4,-0.1 0.6,-0.6 0.5,-1 0,-0.1 0,-0.1 -0.1,-0.2 -0.1,-0.1 -0.1,-0.1 -0.2,-0.1 -0.2,0 -0.4,-0.1 -0.5,-0.1 -0.3,0.1 -0.5,0.2 -0.6,0.5"
   fill="#f37a75" />
			<g
   id="g607">
				<path
   id="path605"
   d="m 112.2,165.8 c -0.6,0.9 1.1,1.5 1.4,0.6 0.1,-0.3 0.1,-0.8 -0.2,-0.9 -0.4,-0.2 -1,-0.2 -1.2,0.3 0,0 0.2,0.1 0.2,0 0.1,-0.3 0.6,-0.3 0.9,-0.2 0.3,0.1 0.3,0.4 0.2,0.7 -0.3,0.8 -1.6,0.2 -1.2,-0.4 0.1,-0.1 0,-0.2 -0.1,-0.1 z"
   fill="#f6a1a1" />
			</g>
		</g>
		<g
   id="g617">
			<path
   id="path611"
   d="m 117.6,163.1 c -0.2,0.2 -0.2,0.5 0,0.8 0.2,0.2 0.5,0.3 0.7,0.2 0.3,-0.1 0.6,-0.4 0.6,-0.7 0,-0.3 -0.3,-0.6 -0.6,-0.7 -0.3,0 -0.5,0.1 -0.7,0.4"
   fill="#f37a75" />
			<g
   id="g615">
				<path
   id="path613"
   d="m 117.5,163 c -0.2,0.3 -0.2,0.8 0.1,1 0.3,0.3 0.9,0.2 1.2,-0.1 0.3,-0.3 0.3,-0.8 0,-1.1 -0.4,-0.4 -0.9,-0.1 -1.3,0.2 0,0 0.1,0.1 0.2,0.1 0.2,-0.2 0.5,-0.4 0.8,-0.2 0.3,0.1 0.4,0.5 0.3,0.8 -0.2,0.3 -0.5,0.4 -0.8,0.3 -0.4,-0.1 -0.5,-0.5 -0.3,-0.9 0,-0.1 -0.1,-0.2 -0.2,-0.1 z"
   fill="#f6a1a1" />
			</g>
		</g>
		<g
   id="g625">
			<path
   id="path619"
   d="m 122,159.2 c -0.2,0 -0.3,0.2 -0.3,0.4 0,0.2 0,0.4 0.1,0.5 0.1,0.1 0.1,0.2 0.2,0.2 0.1,0 0.2,0 0.2,0 0.2,-0.1 0.4,-0.1 0.5,-0.3 0.1,-0.1 0,-0.3 0,-0.4 0,-0.2 -0.1,-0.3 -0.3,-0.4 -0.1,-0.2 -0.3,-0.2 -0.4,0"
   fill="#f37a75" />
			<g
   id="g623">
				<path
   id="path621"
   d="m 122,159.1 c -0.4,0.1 -0.5,0.5 -0.3,0.9 0.1,0.2 0.2,0.3 0.3,0.4 0.2,0.1 0.4,0 0.6,-0.1 0.9,-0.5 0,-1.8 -0.6,-1.2 0,0.1 0.1,0.2 0.2,0.1 0.4,-0.4 1.1,0.6 0.3,0.9 -0.2,0.1 -0.5,0.1 -0.6,-0.1 -0.1,-0.2 -0.1,-0.6 0.2,-0.7 0,-0.1 0,-0.3 -0.1,-0.2 z"
   fill="#f6a1a1" />
			</g>
		</g>
		<g
   id="g633">
			<path
   id="path627"
   d="m 123.9,161.8 c 0,0.1 0,0.2 0.1,0.4 0.1,0.1 0.2,0.2 0.4,0.2 0.2,0 0.3,0 0.5,-0.1 0.1,0 0.2,-0.1 0.3,-0.1 0.3,-0.2 0.2,-0.7 0,-0.9 -0.3,-0.2 -0.7,-0.2 -1,0 -0.2,0 -0.4,0.2 -0.3,0.5"
   fill="#f37a75" />
			<g
   id="g631">
				<path
   id="path629"
   d="m 123.8,161.8 c 0,0.4 0.3,0.8 0.8,0.7 0.4,-0.1 0.9,-0.3 0.8,-0.8 0,-1 -1.7,-0.9 -1.6,0.1 0,0.1 0.2,0.1 0.2,0 -0.1,-0.7 1.2,-0.8 1.3,0 0,0.3 -0.2,0.5 -0.5,0.5 -0.1,0 -0.3,0.1 -0.5,0 -0.2,-0.1 -0.3,-0.3 -0.3,-0.5 -0.1,-0.1 -0.2,-0.1 -0.2,0 z"
   fill="#f6a1a1" />
			</g>
		</g>
		<g
   id="g641">
			<path
   id="path635"
   d="m 116.4,166.2 c -0.2,0 -0.3,0.2 -0.3,0.4 0,0.2 0.1,0.4 0.2,0.5 0,0 0.1,0.1 0.1,0.1 0.1,0 0.1,0 0.2,0 0.3,0 0.6,-0.1 0.9,-0.4 0.3,-0.3 0.2,-0.6 0.1,-0.9 -0.1,-0.1 -0.2,-0.2 -0.3,-0.3 -0.1,0 -0.3,0 -0.4,0.1 -0.2,0.1 -0.4,0.2 -0.6,0.4"
   fill="#f37a75" />
			<g
   id="g639">
				<path
   id="path637"
   d="m 116.4,166.1 c -0.5,0.2 -0.4,0.8 -0.1,1.1 0.3,0.4 0.9,0.2 1.2,-0.1 0.3,-0.3 0.4,-0.9 0.1,-1.3 -0.4,-0.4 -1.1,0 -1.4,0.3 -0.1,0.1 0,0.2 0.1,0.1 0.2,-0.2 0.5,-0.4 0.8,-0.4 0.5,-0.1 0.5,0.6 0.4,1 -0.1,0.2 -0.4,0.4 -0.8,0.4 -0.4,0 -0.9,-0.8 -0.3,-1 0.2,0.1 0.1,-0.1 0,-0.1 z"
   fill="#f6a1a1" />
			</g>
		</g>
		<g
   id="g649">
			<path
   id="path643"
   d="m 121.1,163.2 c -0.1,0.1 -0.1,0.4 0.1,0.4 0.2,0.1 0.4,0 0.5,-0.1 0.1,-0.1 0.3,-0.2 0.3,-0.4 0.1,-0.2 -0.1,-0.4 -0.3,-0.5 -0.2,-0.1 -0.4,0 -0.6,0.1 -0.2,0.2 -0.2,0.4 -0.2,0.6"
   fill="#f37a75" />
			<g
   id="g647">
				<path
   id="path645"
   d="m 121.1,163.2 c -0.2,0.2 0,0.6 0.3,0.6 0.3,0 0.8,-0.2 0.9,-0.6 0,-0.4 -0.3,-0.6 -0.7,-0.6 -0.4,0.1 -0.6,0.5 -0.6,0.9 0,0.1 0.2,0.1 0.2,0 0,-0.2 0,-0.5 0.2,-0.6 0.2,-0.1 0.5,-0.1 0.6,0.1 0.1,0.2 0,0.5 -0.2,0.6 -0.1,0.1 -0.3,0.1 -0.4,0.1 -0.1,0 -0.2,-0.2 -0.1,-0.3 0,-0.2 -0.1,-0.3 -0.2,-0.2 z"
   fill="#f6a1a1" />
			</g>
		</g>
	</g>
	<g
   id="g659">
		<path
   id="path653"
   d="m 207.7,160.8 c -0.3,-1.4 -0.7,-2.6 -1.5,-3.7 -0.6,-0.9 -1.5,-1.8 -2.8,-2.2 -1.2,-0.4 -2.9,-0.4 -4.1,0.4 -1,0.6 -1.6,1.6 -1.7,2.5 -0.2,0.9 0,1.8 0.2,2.7 0.6,3.2 1.3,6.3 2,9.5 0.3,1.2 0.5,2.5 1.4,3.5 0.9,1 2.6,1.6 4.2,1.1 1.2,-0.4 2.2,-1.3 2.8,-2.2 1.3,-1.9 1.5,-4 1.3,-5.9 -0.3,-1.8 -1,-3.9 -1.8,-5.7"
   fill="#ce4f43" />
		<g
   id="g657">
			<path
   id="path655"
   d="m 208.2,160.7 c -0.5,-2.2 -1.5,-4.4 -3.5,-5.6 -1.6,-1 -3.9,-1.1 -5.5,-0.1 -1.7,1 -2.2,2.8 -1.9,4.7 0.4,3 1.2,6 1.8,9 0.4,2.1 0.7,4.6 2.7,5.9 1.7,1.1 3.9,0.9 5.5,-0.3 4.4,-3.3 2.8,-9.4 0.9,-13.6 -0.2,-0.5 -1,-0.1 -0.8,0.4 1.5,3.5 2.8,7.8 0.5,11.2 -1.4,2 -4,2.9 -6,1.3 -1.6,-1.3 -1.7,-3.9 -2.1,-5.8 -0.4,-1.8 -0.8,-3.6 -1.1,-5.4 -0.4,-1.8 -1.2,-4.1 0,-5.8 1.3,-1.7 3.9,-1.8 5.6,-0.8 1.8,1.1 2.6,3.2 3.1,5.1 0.1,0.6 0.9,0.4 0.8,-0.2 z"
   fill="#545454" />
		</g>
	</g>
	<g
   id="g667">
		<path
   id="path661"
   d="m 207.9,160.9 c -0.3,-1.3 -0.7,-2.5 -1.3,-3.6 -0.5,-0.9 -1.5,-1.4 -2.2,-2.3 -0.9,-1.1 -2.2,-0.5 -3,0.1 -0.7,0.5 -1.1,1.4 -1.1,2.3 -0.1,0.9 0.1,1.7 0.3,2.6 0.7,3 1.4,6.1 2.1,9.1 0.3,1.2 0.7,2.3 1.3,3.4 0.8,1.5 2,1.6 3.2,1.3 0.9,-0.3 1.5,-1.1 1.9,-1.9 0.8,-1.7 0.9,-3.7 0.5,-5.5 -0.4,-1.8 -1.1,-3.7 -1.7,-5.5"
   fill="#fb6154" />
		<g
   id="g665">
			<path
   id="path663"
   d="m 208.3,160.8 c -0.6,-2.4 -1.5,-3.9 -3.2,-5.6 -1.2,-1.2 -2.4,-1.5 -3.9,-0.4 -1.3,1 -1.5,2.6 -1.2,4.1 0.4,3 1.4,6.1 2,9.1 0.6,2.6 2.4,8.8 6.3,5.7 3.6,-2.9 1.3,-9.4 0,-12.9 -0.2,-0.5 -1,-0.3 -0.8,0.2 1.2,3 2.5,6.6 1.5,9.8 -0.5,1.6 -2.3,3.9 -4.1,2.3 -1.4,-1.2 -1.7,-3.6 -2.1,-5.3 -0.4,-1.7 -0.8,-3.5 -1.2,-5.2 -0.4,-1.6 -1.1,-3.5 -0.9,-5.1 0.1,-1.1 0.8,-2.2 1.9,-2.5 1.1,-0.3 2,0.8 2.6,1.5 1.3,1.3 1.8,2.8 2.3,4.5 0.1,0.6 0.9,0.4 0.8,-0.2 z"
   fill="#545454" />
		</g>
	</g>
	<g
   id="g675">
		<path
   id="path669"
   d="m 205,158.2 c -0.1,-0.2 -0.3,-0.2 -0.5,-0.2 -0.2,0 -0.3,0.2 -0.4,0.3 -0.1,0.1 -0.1,0.2 -0.1,0.3 0,0.3 0.3,0.6 0.7,0.7 0.1,0 0.1,0 0.2,0 0.1,0 0.1,-0.1 0.2,-0.2 0.1,-0.1 0.2,-0.3 0.2,-0.4 0,-0.2 0,-0.3 -0.1,-0.4"
   fill="#f37a75" />
		<g
   id="g673">
			<path
   id="path671"
   d="m 205.1,158.2 c -0.5,-0.7 -1.6,0.4 -1,1 0.2,0.2 0.7,0.4 1,0.1 0.2,-0.3 0.4,-0.8 0.1,-1.1 -0.1,-0.1 -0.2,0 -0.1,0.1 0.2,0.2 0.1,0.5 0,0.7 -0.2,0.2 -0.5,0.3 -0.7,0 -0.5,-0.5 0.2,-1.4 0.6,-0.9 0,0.2 0.2,0.1 0.1,0.1 z"
   fill="#f6a1a1" />
		</g>
	</g>
	<g
   id="g683">
		<path
   id="path677"
   d="m 205.9,163.5 c -0.1,-0.2 -0.4,-0.3 -0.6,-0.2 -0.2,0.1 -0.4,0.3 -0.4,0.5 0,0.3 0.1,0.6 0.4,0.7 0.3,0.1 0.6,0 0.8,-0.3 0,-0.1 -0.1,-0.4 -0.2,-0.7"
   fill="#f37a75" />
		<g
   id="g681">
			<path
   id="path679"
   d="m 206,163.5 c -0.2,-0.3 -0.6,-0.4 -1,-0.1 -0.3,0.2 -0.3,0.7 -0.2,1 0.2,0.3 0.5,0.4 0.9,0.3 0.5,-0.2 0.5,-0.7 0.3,-1.2 0,0 -0.2,0 -0.1,0.1 0.1,0.2 0.2,0.6 0,0.8 -0.2,0.2 -0.5,0.2 -0.8,-0.1 -0.2,-0.2 -0.2,-0.5 0,-0.8 0.2,-0.3 0.6,-0.3 0.8,0 0,0.2 0.2,0.1 0.1,0 z"
   fill="#f6a1a1" />
		</g>
	</g>
	<g
   id="g691">
		<path
   id="path685"
   d="m 208.1,168.4 c 0,-0.2 -0.1,-0.3 -0.2,-0.4 -0.1,-0.1 -0.3,-0.1 -0.5,0 -0.1,0 -0.2,0.1 -0.2,0.2 0,0.1 0,0.1 0,0.2 0,0.2 0,0.4 0.1,0.6 0.1,0.1 0.2,0.1 0.3,0.1 0.2,0 0.3,0 0.4,-0.1 0.1,-0.2 0.2,-0.4 0.1,-0.6"
   fill="#f37a75" />
		<g
   id="g689">
			<path
   id="path687"
   d="m 208.2,168.4 c 0,-0.4 -0.4,-0.6 -0.8,-0.5 -0.4,0.1 -0.5,0.4 -0.4,0.8 0.1,0.8 1.5,0.5 1.2,-0.3 -0.1,-0.1 -0.2,0 -0.2,0.1 0.2,0.4 -0.8,0.7 -0.9,0.1 0,-0.2 0,-0.5 0.2,-0.5 0.3,-0.1 0.6,0 0.6,0.3 0.1,0.2 0.3,0.2 0.3,0 z"
   fill="#f6a1a1" />
		</g>
	</g>
	<g
   id="g699">
		<path
   id="path693"
   d="m 205.3,169.3 c -0.1,0 -0.2,0 -0.3,0 -0.1,0 -0.3,0.2 -0.3,0.3 -0.1,0.1 -0.1,0.3 -0.1,0.4 0,0.1 0,0.2 0,0.3 0.1,0.3 0.5,0.4 0.8,0.2 0.3,-0.2 0.4,-0.5 0.3,-0.8 0,-0.2 -0.2,-0.4 -0.4,-0.4"
   fill="#f37a75" />
		<g
   id="g697">
			<path
   id="path695"
   d="m 205.3,169.2 c -0.2,0 -0.4,-0.1 -0.6,0.1 -0.1,0.1 -0.2,0.3 -0.2,0.5 0,0.4 0.1,0.8 0.5,0.9 0.8,0.1 1.2,-1.3 0.3,-1.5 0,0 -0.1,0.1 0,0.2 0.6,0.1 0.3,1.2 -0.3,1.1 -0.3,0 -0.4,-0.3 -0.4,-0.5 0,-0.1 0,-0.3 0.1,-0.4 0.1,-0.2 0.3,-0.2 0.5,-0.2 0.2,0 0.3,-0.1 0.1,-0.2 z"
   fill="#f6a1a1" />
		</g>
	</g>
	<g
   id="g707">
		<path
   id="path701"
   d="m 203.5,161.7 c 0,-0.2 -0.1,-0.3 -0.3,-0.4 -0.2,0 -0.3,0 -0.5,0 -0.1,0 -0.1,0 -0.1,0.1 0,0 -0.1,0.1 -0.1,0.1 -0.1,0.3 -0.1,0.6 0.1,0.9 0.2,0.3 0.5,0.4 0.8,0.3 0.1,0 0.2,-0.1 0.3,-0.2 0.1,-0.1 0.1,-0.2 0,-0.3 0,-0.2 -0.1,-0.4 -0.2,-0.7"
   fill="#f37a75" />
		<g
   id="g705">
			<path
   id="path703"
   d="m 203.6,161.7 c 0,-0.5 -0.6,-0.5 -1,-0.4 -0.4,0.2 -0.4,0.8 -0.2,1.1 0.2,0.3 0.7,0.6 1.1,0.4 0.5,-0.2 0.2,-0.9 0.1,-1.3 0,-0.1 -0.2,-0.1 -0.2,0 0.1,0.2 0.2,0.5 0.2,0.8 0,0.5 -0.5,0.4 -0.8,0.2 -0.2,-0.2 -0.3,-0.5 -0.3,-0.8 0,-0.2 0.1,-0.3 0.3,-0.4 0.2,-0.1 0.6,0 0.6,0.3 0,0.2 0.2,0.2 0.2,0.1 z"
   fill="#f6a1a1" />
		</g>
	</g>
	<g
   id="g715">
		<path
   id="path709"
   d="m 204.8,166.6 c -0.1,-0.1 -0.3,-0.2 -0.4,0 -0.1,0.1 -0.1,0.3 -0.1,0.5 0,0.1 0.1,0.3 0.2,0.4 0.2,0.1 0.4,0.1 0.5,-0.1 0.1,-0.1 0.1,-0.4 0.1,-0.5 -0.1,-0.2 -0.3,-0.3 -0.5,-0.3"
   fill="#f37a75" />
		<g
   id="g713">
			<path
   id="path711"
   d="m 204.9,166.5 c -0.1,-0.3 -0.5,-0.2 -0.6,0.1 -0.1,0.3 0,0.8 0.3,0.9 0.3,0.1 0.6,-0.1 0.7,-0.4 0,-0.4 -0.2,-0.6 -0.6,-0.7 -0.1,0 -0.1,0.1 0,0.2 0.2,0 0.4,0.1 0.4,0.3 0.1,0.2 0,0.5 -0.2,0.5 -0.2,0.1 -0.4,-0.2 -0.4,-0.4 0,-0.1 0,-0.2 0,-0.3 0.1,-0.1 0.2,-0.2 0.3,0 0,0 0.1,-0.1 0.1,-0.2 z"
   fill="#f6a1a1" />
		</g>
	</g>
	<g
   id="g781">
		<g
   id="g723">
			<path
   id="path717"
   d="m 134.1,87 c 1.2,0.8 2.3,1.6 3.1,2.8 0.7,1 1.2,2.1 1.2,3.5 0,1.4 -0.6,3 -1.8,4 -1,0.8 -2.2,1 -3.1,0.9 -1,-0.2 -1.8,-0.6 -2.7,-1.2 -2.9,-1.8 -5.9,-3.5 -8.8,-5.3 -1.2,-0.7 -2.3,-1.4 -3,-2.7 -0.6,-1.2 -0.6,-3.1 0.4,-4.6 0.8,-1.1 2,-1.7 3.2,-2 2.3,-0.6 4.5,-0.2 6.4,0.8 1.7,1 3.6,2.4 5.1,3.8"
   fill="#ce4f43" />
			<g
   id="g721">
				<path
   id="path719"
   d="m 133.8,87.4 c 1.7,1.1 3.5,2.6 4,4.6 0.6,2.3 -0.6,5.2 -3.1,5.7 -2.1,0.4 -4.2,-1.4 -5.9,-2.4 -1.7,-1.1 -3.5,-2.1 -5.2,-3.1 -1.6,-1 -3.6,-1.8 -4.3,-3.7 -1,-2.4 0.8,-4.7 3,-5.5 4.4,-1.5 8.4,1.5 11.5,4.3 0.4,0.4 1,-0.2 0.6,-0.6 -3.6,-3.3 -8.8,-6.8 -13.7,-3.9 -1.8,1.1 -2.8,3 -2.5,5.1 0.4,2.4 2.5,3.6 4.4,4.7 2.8,1.7 5.6,3.5 8.5,5.1 1.9,1 4,1.4 5.8,0 1.6,-1.3 2.3,-3.6 1.9,-5.6 -0.5,-2.4 -2.5,-4.1 -4.4,-5.4 -0.6,-0.4 -1,0.4 -0.6,0.7 z"
   fill="#545454" />
			</g>
		</g>
		<g
   id="g731">
			<path
   id="path725"
   d="m 134,86.9 c 1.2,0.8 2.2,1.6 3.1,2.6 0.7,0.9 0.9,2 1.5,2.9 0.8,1.3 -0.2,2.4 -1.1,3 -0.8,0.5 -1.8,0.5 -2.7,0.3 -0.9,-0.2 -1.7,-0.8 -2.5,-1.2 -2.8,-1.7 -5.6,-3.5 -8.4,-5.3 -1.1,-0.7 -2.1,-1.5 -2.9,-2.5 -1.2,-1.3 -1,-2.6 -0.2,-3.6 0.6,-0.8 1.6,-1.1 2.6,-1.2 2,-0.2 4,0.4 5.7,1.4 1.6,0.9 3.4,2.3 4.9,3.6"
   fill="#fb6154" />
			<g
   id="g729">
				<path
   id="path727"
   d="m 133.8,87.3 c 1.8,1.2 3,2.3 3.9,4.3 0.4,1 1.1,1.8 0.1,3 -0.7,0.9 -1.9,1 -2.9,0.8 -1.6,-0.4 -3.2,-1.7 -4.6,-2.6 -1.4,-0.9 -2.8,-1.7 -4.2,-2.6 -1.4,-0.9 -2.9,-1.7 -4.1,-2.8 -1,-1 -1.9,-2.1 -1.1,-3.5 0.6,-1.1 1.9,-1.4 3,-1.4 3.8,-0.3 7.2,2.4 9.9,4.8 0.3,0.3 1,-0.3 0.5,-0.7 -3.1,-2.7 -8.2,-6.8 -12.6,-4.7 -1.5,0.7 -2.4,2.4 -1.8,4 0.8,2.1 3.4,3.5 5.2,4.6 2.6,1.6 5.1,3.3 7.7,4.8 1.6,0.9 3.4,1.5 5.1,0.4 1.4,-1 1.7,-2.2 1,-3.7 -0.5,-1.1 -0.9,-2.1 -1.6,-3 -0.9,-1 -1.9,-1.7 -3,-2.4 -0.5,-0.4 -1,0.3 -0.5,0.7 z"
   fill="#545454" />
			</g>
		</g>
		<g
   id="g739">
			<path
   id="path733"
   d="m 135.7,90.7 c 0.1,0.2 0.1,0.4 0,0.5 -0.1,0.2 -0.3,0.3 -0.5,0.3 -0.1,0 -0.2,0 -0.4,0 -0.4,-0.1 -0.5,-0.6 -0.4,-0.9 0,-0.1 0,-0.1 0.1,-0.2 0.1,-0.1 0.1,-0.1 0.2,-0.1 0.2,0 0.3,-0.1 0.5,-0.1 0.2,0 0.3,0.1 0.4,0.3"
   fill="#f37a75" />
			<g
   id="g737">
				<path
   id="path735"
   d="m 135.7,90.7 c 0.4,0.6 -0.8,1.1 -1.1,0.4 -0.1,-0.3 -0.1,-0.6 0.2,-0.7 0.3,-0.1 0.7,-0.1 0.8,0.2 0,0.1 0.2,0.1 0.2,0 -0.2,-0.4 -0.7,-0.4 -1.1,-0.3 -0.4,0.1 -0.4,0.6 -0.3,0.9 0.4,0.9 1.9,0.3 1.4,-0.5 -0.1,-0.2 -0.2,-0.1 -0.1,0 z"
   fill="#f6a1a1" />
			</g>
		</g>
		<g
   id="g747">
			<path
   id="path741"
   d="m 130.7,87.9 c 0.2,0.2 0.2,0.5 0,0.7 -0.2,0.2 -0.4,0.3 -0.7,0.2 -0.3,-0.1 -0.6,-0.3 -0.6,-0.7 0,-0.3 0.3,-0.6 0.6,-0.6 0.3,0 0.5,0.2 0.7,0.4"
   fill="#f37a75" />
			<g
   id="g745">
				<path
   id="path743"
   d="m 130.6,87.9 c 0.2,0.2 0.1,0.6 -0.2,0.8 -0.3,0.2 -0.6,0.1 -0.8,-0.2 -0.2,-0.3 -0.2,-0.6 0.1,-0.8 0.3,-0.2 0.7,0 0.9,0.2 0.1,0 0.2,-0.1 0.1,-0.2 -0.3,-0.2 -0.7,-0.5 -1.1,-0.2 -0.3,0.2 -0.4,0.7 -0.1,1 0.2,0.3 0.7,0.4 1.1,0.2 0.3,-0.2 0.5,-0.6 0.2,-1 -0.1,0 -0.2,0.1 -0.2,0.2 z"
   fill="#f6a1a1" />
			</g>
		</g>
		<g
   id="g755">
			<path
   id="path749"
   d="m 126.6,84 c 0.2,0 0.3,0.2 0.3,0.4 0,0.2 0,0.3 -0.1,0.5 -0.1,0.1 -0.1,0.2 -0.2,0.2 -0.1,0 -0.2,0 -0.2,0 -0.2,-0.1 -0.4,-0.1 -0.5,-0.3 0,-0.1 0,-0.2 0,-0.4 0,-0.2 0.1,-0.3 0.3,-0.4 0,-0.1 0.2,-0.1 0.4,0"
   fill="#f37a75" />
			<g
   id="g753">
				<path
   id="path751"
   d="m 126.5,84.1 c 0.3,0.1 0.3,0.4 0.2,0.7 -0.2,0.2 -0.4,0.2 -0.6,0.1 -0.6,-0.3 0,-1.2 0.4,-0.8 0.1,0.1 0.2,0 0.1,-0.1 -0.5,-0.6 -1.4,0.7 -0.6,1.1 0.2,0.1 0.4,0.2 0.5,0.1 0.2,0 0.3,-0.2 0.4,-0.4 0.2,-0.3 0.1,-0.8 -0.3,-0.9 -0.1,0 -0.2,0.2 -0.1,0.2 z"
   fill="#f6a1a1" />
			</g>
		</g>
		<g
   id="g763">
			<path
   id="path757"
   d="m 124.7,86.5 c 0,0.1 0,0.2 -0.1,0.3 -0.1,0.1 -0.2,0.2 -0.4,0.2 -0.2,0 -0.3,0 -0.5,-0.1 -0.1,0 -0.2,-0.1 -0.2,-0.1 -0.2,-0.2 -0.2,-0.6 0.1,-0.9 0.2,-0.2 0.6,-0.2 0.9,0 0.2,0.1 0.3,0.3 0.2,0.6"
   fill="#f37a75" />
			<g
   id="g761">
				<path
   id="path759"
   d="m 124.6,86.5 c 0,0.2 -0.1,0.3 -0.2,0.4 -0.1,0.1 -0.3,0 -0.4,0 -0.3,-0.1 -0.5,-0.2 -0.5,-0.5 0,-0.7 1.2,-0.6 1.1,0.1 0,0 0.2,0 0.2,-0.1 0.1,-0.9 -1.5,-1 -1.5,0 0,0.4 0.3,0.7 0.8,0.8 0.5,0.1 0.8,-0.2 0.8,-0.6 -0.1,-0.2 -0.2,-0.2 -0.3,-0.1 z"
   fill="#f6a1a1" />
			</g>
		</g>
		<g
   id="g771">
			<path
   id="path765"
   d="m 131.7,90.9 c 0.2,0 0.3,0.2 0.3,0.4 0,0.2 -0.1,0.3 -0.2,0.5 0,0 -0.1,0.1 -0.1,0.1 -0.1,0 -0.1,0 -0.2,0 -0.3,0 -0.6,-0.1 -0.8,-0.4 -0.2,-0.2 -0.2,-0.6 -0.1,-0.9 0.1,-0.1 0.2,-0.2 0.3,-0.2 0.1,0 0.2,0 0.3,0.1 0.2,0.1 0.4,0.2 0.6,0.4"
   fill="#f37a75" />
			<g
   id="g769">
				<path
   id="path767"
   d="m 131.7,91 c 0.3,0.1 0.2,0.4 0.1,0.6 -0.1,0.2 -0.3,0.3 -0.5,0.2 -0.3,-0.1 -0.5,-0.2 -0.6,-0.5 -0.1,-0.3 -0.1,-0.9 0.4,-0.9 0.3,0 0.5,0.3 0.8,0.4 0.1,0.1 0.2,0 0.1,-0.1 -0.3,-0.3 -0.9,-0.8 -1.3,-0.4 -0.3,0.3 -0.3,0.9 0,1.2 0.3,0.3 0.9,0.5 1.2,0.1 0.2,-0.3 0.3,-0.8 -0.1,-1 -0.1,0.2 -0.2,0.4 -0.1,0.4 z"
   fill="#f6a1a1" />
			</g>
		</g>
		<g
   id="g779">
			<path
   id="path773"
   d="m 127.3,87.9 c 0.1,0.1 0,0.3 -0.1,0.4 -0.2,0.1 -0.3,0 -0.5,-0.1 -0.1,-0.1 -0.3,-0.2 -0.3,-0.4 0,-0.2 0.1,-0.4 0.3,-0.5 0.2,-0.1 0.4,0 0.6,0.1 0.1,0.1 0.2,0.4 0.2,0.6"
   fill="#f37a75" />
			<g
   id="g777">
				<path
   id="path775"
   d="m 127.2,88 c 0.1,0.1 0,0.3 -0.1,0.3 -0.1,0 -0.3,0 -0.4,-0.1 -0.2,-0.1 -0.4,-0.3 -0.2,-0.6 0.1,-0.2 0.4,-0.2 0.6,-0.1 0.2,0.1 0.2,0.4 0.2,0.6 0,0.1 0.2,0.1 0.2,0 0,-0.4 -0.1,-0.8 -0.5,-0.8 -0.3,-0.1 -0.7,0.2 -0.6,0.5 0.1,0.3 0.4,0.6 0.8,0.6 0.3,0 0.5,-0.4 0.3,-0.6 -0.2,0 -0.3,0.1 -0.3,0.2 z"
   fill="#f6a1a1" />
			</g>
		</g>
	</g>
</g></g>
<g
   id="SER"
   transform="translate(-50.81718,-54.693822)">
</g>







</svg>
