<?xml version="1.0" encoding="UTF-8" standalone="no"?>
<svg
   xmlns:dc="http://purl.org/dc/elements/1.1/"
   xmlns:cc="http://creativecommons.org/ns#"
   xmlns:rdf="http://www.w3.org/1999/02/22-rdf-syntax-ns#"
   xmlns:svg="http://www.w3.org/2000/svg"
   xmlns="http://www.w3.org/2000/svg"
   xmlns:sodipodi="http://sodipodi.sourceforge.net/DTD/sodipodi-0.dtd"
   xmlns:inkscape="http://www.inkscape.org/namespaces/inkscape"
   inkscape:version="1.0 (4035a4fb49, 2020-05-01)"
   sodipodi:docname="10e-2 - B Man.svg"
   id="svg734"
   preserveAspectRatio="xMidYMid meet"
   viewBox="0 0 42.848843 127.5"
   height="127.5pt"
   width="42.848843pt"
   version="1.0">
  <defs
     id="defs738" />
  <sodipodi:namedview
     inkscape:current-layer="g732"
     inkscape:window-maximized="1"
     inkscape:window-y="-8"
     inkscape:window-x="-8"
     inkscape:cy="58.592541"
     inkscape:cx="1.109107"
     inkscape:zoom="3.5664698"
     showgrid="false"
     id="namedview736"
     inkscape:window-height="705"
     inkscape:window-width="1366"
     inkscape:pageshadow="2"
     inkscape:pageopacity="0"
     guidetolerance="10"
     gridtolerance="10"
     objecttolerance="10"
     borderopacity="1"
     bordercolor="#666666"
     pagecolor="#ffffff" />
  <metadata
     id="metadata728">
Created by potrace 1.15, written by Peter Selinger 2001-2017
<rdf:RDF>
  <cc:Work
     rdf:about="">
    <dc:format>image/svg+xml</dc:format>
    <dc:type
       rdf:resource="http://purl.org/dc/dcmitype/StillImage" />
    <dc:title></dc:title>
  </cc:Work>
</rdf:RDF>
</metadata>
  <g
     id="g732"
     stroke="none"
     fill="#000000"
     transform="matrix(0.00106651,0,0,-0.00106651,-4.3920607,13.069316)">
    <path
       style="fill:#ffffff;fill-opacity:1;stroke:#000000;stroke-width:70.2813;stroke-miterlimit:4;stroke-dasharray:none;stroke-opacity:1"
       id="path730"
       d="m 21226.446,12041.575 c -379.776,-169.9 -1239.269,-699.587 -1519.104,-909.463 -279.834,-229.865 -1519.103,-1459.1392 -1708.991,-1698.9976 -99.941,-129.9233 -269.841,-399.764 -379.776,-599.6461 -109.935,-199.882 -239.858,-439.7404 -279.835,-519.6932 -369.781,-669.6048 -409.758,-919.4573 -409.758,-2638.4427 0,-1459.1388 -29.982,-1758.9618 -159.905,-1868.8969 -119.93,-99.9411 -139.918,-249.8526 -99.941,-679.5989 209.876,-2208.69638 319.811,-2568.48402 859.492,-2668.42503 599.646,-119.92922 939.446,-669.60478 909.464,-1469.13287 -9.995,-269.8407 29.982,-549.6756 89.947,-619.6343 179.893,-209.8761 59.964,-3038.2067 -149.912,-3597.8764 -79.953,-229.8643 -609.64,-1379.186 -809.522,-1748.9677 -89.947,-169.8997 -629.629,-509.6992 -1778.95,-1099.3511 -2348.614,-1209.2863 -3088.177,-1599.0562 -3268.071,-1758.9618 -79.953,-79.9528 -189.888,-139.9174 -229.865,-139.9174 -49.97,0 -669.604,-389.77 -1379.186,-859.493 -1698.9968,-1129.333 -2208.6959,-1649.026 -2858.3125,-2958.254 -289.829,-569.663 -519.6933,-1089.357 -519.6933,-1149.321 0,-59.965 -59.9646,-239.859 -139.9174,-399.764 -79.9528,-149.912 -219.8702,-479.717 -309.8171,-729.57 -209.8762,-539.681 -279.8349,-699.587 -539.6815,-1319.221 -119.9292,-259.847 -209.8761,-509.699 -209.8761,-559.67 0,-79.953 -209.8761,-569.664 -389.77,-919.457 -49.9705,-89.947 -119.9292,-359.788 -159.9056,-599.646 -39.9764,-249.853 -109.9351,-489.711 -149.9115,-549.676 -79.9528,-99.941 -149.9115,-509.699 -239.8584,-1349.203 -239.8585,-2128.744 -299.8231,-2598.467 -379.7759,-2598.467 -129.9233,0 -99.941,-2938.265 39.9764,-3078.183 89.9469,-89.947 89.9469,-149.911 0,-239.858 -69.9587,-69.959 -119.9292,-349.794 -119.9292,-629.629 0,-469.722 -69.9587,-819.516 -309.8171,-1649.026 -119.9292,-399.764 -379.7759,-1659.021 -459.7287,-2238.679 -59.9646,-439.74 89.9469,-1219.28 399.7641,-2108.755 259.8466,-729.57 259.8466,-719.576 329.8053,-1149.322 39.9764,-189.888 99.941,-389.77 139.9174,-449.735 49.9705,-49.97 109.9351,-369.781 149.9115,-699.587 79.9529,-599.646 519.6933,-2108.755 799.5281,-2718.395 79.9529,-169.9 149.9116,-339.8 149.9116,-369.782 0,-59.964 129.9233,-349.793 699.587,-1609.05 359.7877,-779.54 1599.0562,-3947.67 1599.0562,-4067.599 0,-39.977 109.9351,-309.817 239.8585,-599.646 129.9233,-289.829 359.7876,-799.528 499.705,-1129.334 379.7759,-839.504 819.5163,-1469.133 2018.8082,-2868.307 1369.192,-1609.05 1539.092,-1958.844 1539.092,-3248.083 0,-569.663 -49.971,-1039.386 -109.935,-1099.351 -129.924,-129.923 -59.965,-2068.779 99.941,-2828.33 99.941,-469.723 509.699,-1609.051 819.516,-2348.614 109.935,-249.853 259.847,-959.434 449.735,-2078.773 259.846,-1589.062 429.746,-2608.461 589.652,-3517.924 89.946,-489.711 209.876,-1299.233 279.834,-1798.938 69.959,-489.711 159.906,-959.434 209.876,-1039.387 89.947,-129.923 229.865,-3697.817 319.812,-7805.393 19.988,-1179.304 79.953,-2238.678 129.923,-2348.613 49.971,-109.936 139.917,-649.617 199.882,-1199.293 59.965,-549.675 179.894,-1379.186 269.841,-1848.908 79.953,-469.723 209.876,-1209.287 269.841,-1649.027 69.958,-439.74 149.911,-839.504 179.893,-899.469 39.977,-49.971 99.941,-459.729 139.918,-899.469 39.976,-439.741 109.935,-839.505 149.911,-899.469 39.977,-49.971 109.935,-669.605 149.912,-1379.186 39.976,-699.587 109.935,-1289.239 149.911,-1319.222 39.977,-29.982 109.935,-629.628 149.912,-1349.203 39.976,-719.576 109.935,-1319.222 149.911,-1349.204 39.977,-29.982 109.935,-609.64 149.912,-1299.233 39.976,-689.593 109.935,-1279.245 159.905,-1309.227 269.841,-159.906 9.995,-849.499 -569.663,-1519.104 -199.882,-239.858 -489.711,-669.604 -639.623,-969.427 -269.84,-539.682 -279.835,-549.676 -99.941,-779.54 219.87,-269.841 1009.404,-1968.838 929.452,-1968.838 -29.983,0 19.988,-89.947 119.929,-199.882 239.858,-259.847 149.911,-989.416 -189.888,-1599.054 -789.534,-1429.16 -1459.139,-2758.37 -1459.139,-2928.27 0,-69.96 -69.959,-219.87 -149.911,-329.81 -189.888,-259.85 -179.894,-639.62 29.982,-909.46 89.947,-109.94 459.729,-439.74 819.516,-729.57 l 649.617,-519.7 1549.086,39.98 c 1539.091,39.98 1549.085,39.98 2188.708,389.77 779.54,419.75 1369.192,1079.36 2528.507,2838.33 1019.399,1539.09 1279.245,2138.73 1279.245,2948.256 0,319.811 39.977,609.64 89.947,639.622 39.977,29.982 109.935,399.764 149.912,819.516 29.982,419.753 99.941,819.517 159.905,889.475 49.971,69.959 129.924,399.764 159.906,739.564 39.976,339.799 109.935,639.622 149.911,669.605 109.936,69.958 119.93,1409.168 9.994,1479.127 -49.97,29.982 -89.946,199.882 -99.941,379.775 -9.994,179.894 -59.964,559.67 -119.929,829.511 -59.964,279.835 -159.905,749.557 -209.876,1049.38 -59.964,299.823 -139.917,639.623 -199.882,749.558 -269.841,599.646 -319.811,2278.655 -359.788,12682.514 -19.988,6366.243 9.995,10723.671 59.965,10793.63 49.971,59.964 119.929,629.628 159.906,1259.256 39.976,629.629 109.935,1199.293 149.911,1249.263 39.977,59.965 99.941,569.664 139.918,1149.322 39.976,569.663 109.935,1089.357 149.911,1149.321 49.971,49.971 119.929,389.77 159.906,749.558 39.976,359.788 109.935,699.587 159.905,759.552 49.971,59.964 119.93,509.699 149.912,999.41 39.976,489.711 99.941,939.445 149.911,999.41 39.977,49.97 109.936,479.717 139.918,949.439 69.959,889.475 219.87,1389.18 369.782,1169.31 39.976,-69.958 79.952,-249.852 79.952,-389.77 0,-139.917 29.983,-289.829 69.959,-329.805 39.977,-29.982 79.953,-139.917 89.947,-239.858 9.994,-89.947 119.929,-459.729 249.853,-819.517 669.604,-1918.867 949.439,-2818.336 1049.38,-3348.024 29.982,-219.87 99.941,-439.74 139.918,-499.705 39.976,-49.97 109.935,-259.846 139.917,-449.734 39.976,-189.888 109.935,-439.741 159.906,-549.676 49.97,-109.935 189.888,-509.699 299.823,-899.469 119.929,-379.776 259.846,-789.534 299.823,-899.469 49.97,-109.935 179.894,-469.723 289.829,-799.528 449.734,-1329.216 719.575,-2108.755 809.522,-2298.643 139.917,-339.8 499.705,-1569.074 499.705,-1748.968 0,-89.947 29.982,-199.882 69.959,-239.859 69.958,-69.958 79.952,-129.923 189.888,-809.522 39.976,-219.87 99.941,-439.74 139.917,-499.705 49.97,-49.97 109.935,-399.764 149.911,-779.54 39.977,-369.781 109.936,-689.593 149.912,-719.575 39.976,-29.982 109.935,-409.758 149.911,-849.499 39.977,-439.74 109.936,-819.516 149.912,-849.498 49.97,-29.982 109.935,-429.746 149.912,-899.469 39.976,-469.723 109.935,-869.487 149.911,-899.469 49.971,-29.983 109.935,-529.688 149.912,-1119.34 39.976,-599.646 109.935,-1119.339 149.911,-1179.304 39.976,-49.97 109.935,-659.61 149.912,-1349.203 39.976,-689.593 99.941,-1289.239 139.917,-1349.204 29.982,-49.97 109.935,-639.622 179.894,-1299.233 149.911,-1519.103 379.776,-3258.077 529.687,-3897.7 59.965,-269.84 119.929,-589.651 149.912,-699.587 89.947,-439.74 369.781,-2438.56 409.758,-2998.23 29.982,-329.805 89.947,-689.593 139.917,-799.528 39.977,-109.935 109.935,-649.617 139.918,-1199.292 29.982,-549.676 99.941,-1129.334 149.911,-1299.233 59.965,-159.906 199.882,-589.652 319.811,-949.44 109.936,-359.788 249.853,-739.563 299.823,-849.499 49.971,-109.935 179.894,-439.74 289.829,-729.569 249.853,-669.605 719.576,-1619.044 1099.352,-2268.661 519.693,-889.475 729.569,-1289.239 829.51,-1649.029 59.965,-189.89 129.923,-1339.21 159.906,-2548.49 69.958,-2468.55 129.923,-2688.42 869.486,-3338.03 699.587,-619.64 1139.328,-749.56 2598.467,-749.56 1449.144,-9.99 1549.085,19.99 2378.596,669.6 769.546,589.66 809.522,679.6 799.528,1838.92 0,729.57 -39.977,1059.37 -139.918,1189.3 -109.935,129.92 -159.905,559.67 -179.893,1778.95 -19.989,889.47 -79.953,1649.02 -129.924,1698.99 -119.929,129.927 -119.929,689.597 0,819.52 49.971,49.971 109.935,689.593 129.924,1409.168 19.988,859.493 79.952,1369.192 159.905,1449.145 69.959,69.959 119.929,189.888 119.929,269.841 0,89.947 69.959,299.823 159.906,459.728 249.853,479.717 209.876,1059.375 -149.911,1918.868 -179.894,429.746 -369.782,859.493 -419.753,959.434 -49.97,99.941 -229.864,569.663 -389.77,1059.374 -289.829,869.487 -409.758,1599.057 -609.64,3907.694 -49.97,629.628 -139.917,1239.268 -189.888,1349.204 -49.97,109.935 -139.917,849.498 -189.888,1649.026 -189.888,2698.408 -309.817,3947.67 -409.758,4147.552 -49.97,109.935 -109.935,379.776 -139.917,599.646 -129.924,1109.346 -599.646,3577.889 -759.552,4107.576 -59.965,169.9 -99.941,419.752 -99.941,569.664 0,139.917 -49.97,359.787 -99.941,489.711 -59.965,129.923 -149.911,909.463 -199.882,1728.979 -59.965,829.511 -169.9,2358.608 -259.847,3397.994 -79.952,1049.381 -199.882,3587.883 -269.84,5646.668 -69.959,2058.784 -149.912,3797.758 -179.894,3847.729 -39.977,59.964 -99.941,909.463 -129.923,1898.879 -39.977,989.416 -109.936,1938.855 -159.906,2098.761 -49.971,169.9 -129.923,799.528 -189.888,1399.174 -49.971,609.64 -159.906,1439.151 -249.853,1848.909 -299.823,1479.127 -409.758,1948.85 -469.722,2048.791 -99.941,159.905 -229.865,1159.315 -209.876,1689.003 9.994,269.841 109.935,689.593 219.87,929.451 369.782,799.528 609.64,1279.245 819.516,1629.039 749.558,1279.245 1449.145,2788.354 1529.098,3298.053 9.994,79.953 49.97,219.87 79.952,299.823 29.983,79.953 99.941,379.776 149.912,649.617 209.876,1009.404 339.799,1499.115 429.746,1599.056 49.971,49.97 89.947,189.888 89.947,309.817 0,119.929 69.959,349.794 149.912,499.705 79.952,159.906 149.911,369.782 149.911,459.729 0,89.947 39.977,189.888 89.947,229.864 59.965,29.982 129.923,259.847 169.9,499.705 29.982,249.853 99.941,479.717 149.911,509.699 49.971,29.983 89.947,219.87 89.947,419.752 0,199.883 59.965,489.711 139.918,629.629 69.958,139.917 159.905,429.746 199.882,649.616 119.929,659.611 279.835,909.464 709.581,1119.34 l 419.752,199.882 59.965,1868.897 c 29.982,1119.339 99.941,1918.867 159.905,1978.832 59.965,59.964 109.935,169.899 109.935,249.852 0,79.953 59.965,279.835 129.924,449.735 279.835,659.611 339.799,939.445 309.817,1569.074 -29.982,769.546 -129.923,1589.062 -219.87,1798.938 -29.983,79.953 -109.935,469.723 -179.894,849.499 -59.965,389.769 -189.888,949.439 -269.841,1249.262 -89.947,299.823 -209.876,749.558 -269.841,999.41 -59.964,249.853 -149.911,529.688 -199.882,619.635 -59.964,89.946 -129.923,349.793 -159.905,579.657 -39.977,219.871 -109.935,429.747 -149.912,459.729 -49.97,29.982 -89.947,129.923 -89.947,229.864 0,169.9 -339.799,1369.192 -499.705,1758.962 -39.976,109.935 -219.87,609.64 -399.764,1099.351 -179.894,499.705 -429.746,1139.328 -569.664,1439.151 -459.728,1019.398 -1439.15,3527.918 -1748.967,4457.369 -369.782,1119.339 -1189.298,2678.419 -1758.962,3328.036 -779.54,889.4747 -2298.643,1828.9202 -3817.747,2348.6135 -249.852,89.9469 -829.51,299.823 -1299.233,469.7227 -779.54,289.829 -1858.903,639.6225 -2348.614,769.5458 -1639.032,429.7464 -2678.419,2048.7908 -2678.419,4177.5343 0,729.5694 179.894,1818.92642 329.806,1998.82024 39.976,49.97051 109.935,309.81714 149.911,579.657869 39.977,259.846631 109.935,489.710961 149.912,519.693261 49.97,29.9823 109.935,229.86433 149.911,449.73455 39.977,219.87018 109.935,419.75228 149.912,449.73458 49.97,29.9823 119.929,269.8407 159.905,529.6873 29.983,259.8467 109.935,519.6933 159.906,589.652 109.935,139.9174 49.97,1589.0621 -149.912,3677.8292 -169.899,1698.9972 -249.852,2098.7613 -639.622,2858.313 -719.575,1429.1567 -1649.027,2128.7437 -3917.688,2958.2537 -799.528,289.829 -2348.614,319.811 -2908.283,59.965 z m -8534.963,-41475.52 c 79.953,-169.9 139.918,-489.711 139.918,-699.587 0,-209.876 39.976,-429.746 89.947,-479.717 59.964,-59.965 129.923,-619.634 169.899,-1249.263 29.983,-629.628 109.936,-1199.292 159.906,-1269.25 49.971,-69.959 69.959,-429.747 39.976,-799.529 -129.923,-1728.979 -279.834,-2998.23 -359.787,-3178.124 -49.971,-109.935 -139.918,-579.658 -189.888,-1049.38 -59.965,-469.723 -149.912,-1099.351 -199.882,-1399.174 -49.971,-299.824 -99.941,-869.487 -99.941,-1269.251 -9.994,-389.77 -49.971,-749.558 -109.935,-779.54 -59.965,-29.983 -99.941,-479.717 -99.941,-1009.404 0,-559.67 -39.977,-939.446 -99.941,-939.446 -49.971,0 -99.941,169.9 -99.941,389.77 0,209.876 -69.959,579.658 -149.912,809.522 -79.953,229.865 -149.911,609.64 -149.911,849.499 0,229.864 -29.983,449.734 -69.959,489.711 -49.971,39.976 -139.917,489.711 -199.882,989.416 -69.959,509.699 -199.882,1389.18 -279.835,1968.838 -89.947,579.658 -219.87,1459.138 -279.835,1968.838 -69.958,499.705 -149.911,949.439 -189.888,989.416 -109.935,99.941 -99.941,1039.386 9.994,1039.386 49.971,0 109.936,189.888 149.912,419.752 39.976,229.865 109.935,469.723 149.912,529.688 49.97,49.97 109.935,379.776 139.917,729.569 29.982,339.8 99.941,679.599 149.911,749.558 49.971,69.958 129.924,279.835 169.9,469.722 39.977,189.888 109.935,399.765 149.912,449.735 39.976,59.965 129.923,299.823 179.894,549.676 409.758,1689.003 519.693,1928.861 649.616,1399.174 49.971,-189.888 159.906,-489.711 229.864,-669.605 z m 23985.843,-1928.862 c 319.811,-129.923 319.811,-139.917 269.841,-739.563 -19.988,-339.799 -89.947,-709.581 -149.912,-829.51 -59.964,-109.936 -69.958,-379.776 -39.976,-599.646 39.976,-209.877 99.941,-669.605 149.912,-1029.393 39.976,-359.788 129.923,-739.563 189.887,-859.493 149.912,-279.834 149.912,-279.834 139.918,-2658.431 0,-2138.737 -29.982,-2758.371 -129.923,-2928.271 -39.977,-49.971 -99.941,-279.835 -139.918,-499.705 l -79.953,-399.764 -89.947,399.764 c -49.97,219.87 -129.923,719.575 -189.887,1099.351 -49.971,389.77 -139.918,789.534 -189.888,899.469 -49.971,109.935 -119.93,1009.404 -149.912,1998.82 -39.976,989.416 -109.935,1878.891 -169.9,1978.832 -129.923,249.853 59.965,4417.393 199.882,4337.44 39.977,-19.988 209.876,-99.941 379.776,-169.9 z" />
  </g>
</svg>
