<?xml version="1.0" encoding="UTF-8" standalone="no"?>
<svg
   xmlns:dc="http://purl.org/dc/elements/1.1/"
   xmlns:cc="http://creativecommons.org/ns#"
   xmlns:rdf="http://www.w3.org/1999/02/22-rdf-syntax-ns#"
   xmlns:svg="http://www.w3.org/2000/svg"
   xmlns="http://www.w3.org/2000/svg"
   xmlns:sodipodi="http://sodipodi.sourceforge.net/DTD/sodipodi-0.dtd"
   xmlns:inkscape="http://www.inkscape.org/namespaces/inkscape"
   version="1.1"
   id="Layer_1"
   x="0px"
   y="0px"
   width="16.999996"
   height="10.054114"
   viewBox="0 0 16.999996 10.054114"
   enable-background="new 0 0 100 100"
   xml:space="preserve"
   sodipodi:docname="10e-3 - S Ant.svg"
   inkscape:version="1.0 (4035a4fb49, 2020-05-01)"><metadata
   id="metadata9"><rdf:RDF><cc:Work
       rdf:about=""><dc:format>image/svg+xml</dc:format><dc:type
         rdf:resource="http://purl.org/dc/dcmitype/StillImage" /><dc:title /></cc:Work></rdf:RDF></metadata><defs
   id="defs7" /><sodipodi:namedview
   inkscape:document-rotation="0"
   pagecolor="#ffffff"
   bordercolor="#666666"
   borderopacity="1"
   objecttolerance="10"
   gridtolerance="10"
   guidetolerance="10"
   inkscape:pageopacity="0"
   inkscape:pageshadow="2"
   inkscape:window-width="1366"
   inkscape:window-height="705"
   id="namedview5"
   showgrid="false"
   inkscape:zoom="15.216938"
   inkscape:cx="10.808091"
   inkscape:cy="3.2090596"
   inkscape:window-x="-8"
   inkscape:window-y="-8"
   inkscape:window-maximized="1"
   inkscape:current-layer="Layer_1" />
<path
   fill="#000000"
   d="m 16.876099,2.0109414 c -0.05451,0.00121 -1.347286,0.036917 -2.453578,0.5282187 -1.063338,0.4724987 -1.533077,0.4809516 -1.920874,0.4490377 -0.01984,-0.00138 -0.03899,0.00397 -0.05658,0.011903 C 12.371404,2.9440358 12.29136,2.893491 12.204589,2.847604 13.41404,1.102343 14.824981,0.23480146 14.839472,0.22617607 c 0.05762,-0.0350191 0.0759,-0.10971493 0.04106,-0.16733252 -0.03467,-0.05761759 -0.109715,-0.07607592 -0.167333,-0.04122936 -0.06038,0.03639914 -1.489604,0.91273854 -2.736318,2.72907271 -0.04847,-0.017941 -0.0954,-0.038124 -0.146631,-0.052442 -0.729881,-0.2049392 -1.43768,0.042954 -1.580861,0.5532323 -0.04175,0.1488742 -0.0295,0.3037862 0.02484,0.4535229 C 9.9916591,3.481915 9.5253707,3.3753052 9.0114701,3.4324052 8.9661005,3.2959516 8.9196959,3.1532877 8.8708762,3.0019984 8.7975605,2.7742882 8.7616788,2.6631932 8.743738,2.6223088 8.7297649,2.5898774 8.7195869,2.5583085 8.710444,2.5303622 8.6850854,2.4522162 8.652999,2.3552668 8.5498393,2.3416387 8.4378818,2.3285281 8.3523179,2.4380706 8.2481233,2.5985028 8.0923488,2.8375985 7.998677,3.4084267 7.9496848,3.8112323 7.8292744,3.8945535 7.7271498,3.9870177 7.6472787,4.0856921 L 6.7340227,3.0295996 6.7059039,3.0057936 C 6.584631,2.9310977 6.4776762,2.914882 6.3886622,2.9562838 6.2987856,2.9980307 6.2648016,3.0834221 6.2528986,3.1279291 L 5.4129583,4.6085631 C 5.0305086,4.3203027 4.7881352,4.1736711 4.6920484,4.1736711 c -0.068313,0 -0.210632,0 -2.8784644,3.3214643 C 1.809094,7.5030754 1.3500557,8.2810807 0.13318599,8.1655005 0.06573546,8.1615328 0.00708282,8.2084549 5.2753276e-4,8.2755604 -0.00568275,8.342666 0.04365447,8.4020086 0.11075998,8.4083914 c 0.0924642,0.00863 0.18113314,0.012593 0.26600696,0.012593 1.17426026,0 1.62778316,-0.7686946 1.63761606,-0.7887055 C 2.9307442,6.4920028 4.4298366,4.6677333 4.7105067,4.4276025 4.8067661,4.471937 5.0365464,4.6323692 5.2908228,4.8238528 L 5.0575923,5.2347663 C 4.4003378,5.8135298 3.927494,6.6367368 3.9157635,7.2477592 L 3.7972507,7.4564936 c -0.00138,0.0038 -0.1386962,0.3946978 -0.8159617,0.2463411 -0.065725,-0.013801 -0.1305884,0.027084 -0.1452515,0.092809 -0.014491,0.065725 0.027256,0.1307609 0.092982,0.1452515 0.1254131,0.027601 0.2373706,0.039504 0.3372526,0.039504 0.4421374,0 0.6413839,-0.2328855 0.7155622,-0.3539859 0.021564,0.049337 0.04675,0.096259 0.079181,0.1386962 C 4.519886,8.365264 5.9313444,8.0005826 6.9137761,7.2503464 7.3812721,6.8930828 7.7202498,6.4578457 7.8998304,6.0348567 c 0.1511168,0.7861179 0.33432,2.0169607 0.479399,3.1812155 l 0.012938,0.041574 c 0.082631,0.1576721 0.366924,0.6801981 0.5521974,0.7812878 0.018803,0.01052 0.038987,0.01518 0.058653,0.01518 0.042782,0 0.085046,-0.02294 0.1067823,-0.063655 C 9.1422309,9.9314624 9.12015,9.8574566 9.0613248,9.8253701 8.9823163,9.7822432 8.7713393,9.4525809 8.6181524,9.1639754 8.5037797,8.2476142 8.2598538,6.4164444 8.0364562,5.530272 c 0.00949,-0.089014 0.00949,-0.1752678 8.626e-4,-0.2585891 0.1490467,0.056928 0.3198294,0.094189 0.5040676,0.1088524 0.027946,0.012938 0.058653,0.014146 0.087461,0.00483 0.1476666,0.00621 0.3024061,-0.00224 0.4614582,-0.025876 0.3029236,0.6363811 0.834075,1.7668244 0.9391314,2.0825136 0.01397,0.041747 0.0257,0.080734 0.03709,0.1174778 0.118686,0.3924551 0.244789,0.5273562 0.98088,0.5273562 0.135763,0 0.292745,-0.00449 0.474568,-0.013283 0.06728,-0.00293 0.119031,-0.05986 0.116271,-0.1271382 -0.0035,-0.067278 -0.06504,-0.1261032 -0.127484,-0.1159253 C 10.419478,7.8808624 10.393257,7.7982314 10.29993,7.4889251 10.28837,7.4504561 10.27543,7.4092261 10.26112,7.3650645 10.153644,7.0435101 9.6459536,5.9605064 9.3373372,5.3115322 c 0.045542,-0.011386 0.089877,-0.024324 0.134211,-0.037952 0.079181,0.133521 0.1488742,0.2114945 0.2133921,0.2406483 0.026049,0.011386 0.05296,0.017596 0.079354,0.017596 0.024496,0 0.048475,-0.00518 0.070556,-0.015008 0.093154,-0.040712 0.145079,-0.060723 0.1728527,-0.070556 0.03674,0.00569 0.0747,-0.00431 0.103332,-0.031569 l 0.07832,-0.077973 -0.05676,-0.085736 c -0.06365,-0.096777 -0.1664703,-0.058135 -0.3641642,0.028981 -0.020701,-0.017596 -0.044507,-0.048302 -0.070901,-0.090049 0.2095969,-0.089186 0.3902122,-0.2028691 0.5308062,-0.3319049 0.487334,-0.072108 0.882894,-0.1116125 0.975359,-0.080734 0.03209,0.010868 0.05503,0.019493 0.07159,0.026049 -0.0071,0.032604 -0.01104,0.076593 -3.45e-4,0.1304158 0.01829,0.091602 0.786291,2.3252321 1.277593,2.6064197 0.173715,0.098847 0.308961,0.1314509 0.427474,0.1311059 0.106437,0 0.199764,-0.025876 0.295506,-0.052615 0.09453,-0.026394 0.192518,-0.053822 0.321037,-0.06262 0.06762,-0.00483 0.117822,-0.063138 0.112992,-0.1302434 -0.005,-0.067623 -0.07159,-0.1185128 -0.130243,-0.113165 -0.153705,0.011041 -0.268077,0.043299 -0.369167,0.071418 -0.18372,0.050717 -0.294988,0.082459 -0.536499,-0.055548 -0.354158,-0.2021791 -1.113882,-2.2212099 -1.159942,-2.4427098 -0.0041,-0.020701 -10e-4,-0.031914 0.0053,-0.052615 0.05589,-0.1887235 -0.107473,-0.2432359 -0.238578,-0.2868804 -0.120583,-0.040194 -0.456111,-0.013973 -0.826485,0.033984 0.0847,-0.1490467 0.120065,-0.3065462 0.0916,-0.4616307 -6.91e-4,-0.0038 -0.0022,-0.00725 -0.0029,-0.010868 0.190621,0.1904486 0.456283,0.3470856 0.768694,0.4348921 0.05227,0.014663 0.439895,0.065208 0.966389,0.00293 0.389005,-0.04606 0.463873,-0.4147087 0.971736,-0.3841748 L 12.998814,4.0323872 13.334169,3.9814974 13.049704,3.8191676 C 12.869606,3.639242 12.966038,3.6875442 12.867536,3.53729 c -0.03709,-0.1022971 -0.09436,-0.2020066 -0.16923,-0.2958508 0.01639,3.45e-4 0.03088,0.00224 0.04778,0.00224 0.380208,0 0.88117,-0.083839 1.774588,-0.4811242 1.061095,-0.4714637 2.347313,-0.5071728 2.360596,-0.5075178 0.06728,-0.00173 0.12041,-0.057445 0.118685,-0.1247231 -0.001,-0.06745 -0.0609,-0.1128201 -0.12386,-0.1193753 z M 8.4523724,2.7315062 c 0.017768,-0.026911 0.032949,-0.04951 0.04606,-0.068141 0.00673,0.018458 0.014146,0.037607 0.022426,0.056583 0.013628,0.031569 0.062103,0.1821682 0.1183403,0.3565735 C 8.6842229,3.216253 8.7266598,3.3461514 8.7680616,3.472082 8.5679526,3.5138289 8.3823343,3.5767942 8.2170719,3.6564928 8.2688242,3.2912939 8.3480052,2.8917659 8.4523724,2.7315062 Z m -1.9786639,0.5016526 0.015871,-0.055203 c 0.00173,0 0.022944,-0.0019 0.073143,0.026739 L 7.5118602,4.3018443 C 7.4814988,4.3701574 7.462868,4.440023 7.4551051,4.5102337 6.9876091,4.3299631 6.3137938,4.4350203 5.6646471,4.8029794 c -0.019321,-0.015181 -0.038297,-0.030016 -0.0571,-0.04468 z"
   id="path2"
   style="stroke-width:0.002;fill:#ffffff;fill-opacity:1;stroke:none;stroke-opacity:1;stroke-miterlimit:4;stroke-dasharray:none" />
</svg>
