<?xml version="1.0" encoding="UTF-8" standalone="no"?>
<svg
   xmlns:dc="http://purl.org/dc/elements/1.1/"
   xmlns:cc="http://creativecommons.org/ns#"
   xmlns:rdf="http://www.w3.org/1999/02/22-rdf-syntax-ns#"
   xmlns:svg="http://www.w3.org/2000/svg"
   xmlns="http://www.w3.org/2000/svg"
   xmlns:sodipodi="http://sodipodi.sourceforge.net/DTD/sodipodi-0.dtd"
   xmlns:inkscape="http://www.inkscape.org/namespaces/inkscape"
   inkscape:version="1.0 (4035a4fb49, 2020-05-01)"
   height="1.7719065"
   width="1.9999999"
   sodipodi:docname="10e-7 - S Ribosome.svg"
   xml:space="preserve"
   enable-background="new 0 0 288 288"
   viewBox="0 0 1.9999999 1.7719065"
   y="0px"
   x="0px"
   id="Layer_1"
   version="1.1"><metadata
   id="metadata772"><rdf:RDF><cc:Work
       rdf:about=""><dc:format>image/svg+xml</dc:format><dc:type
         rdf:resource="http://purl.org/dc/dcmitype/StillImage" /><dc:title></dc:title></cc:Work></rdf:RDF></metadata><defs
   id="defs770" /><sodipodi:namedview
   inkscape:current-layer="Layer_1"
   inkscape:window-maximized="1"
   inkscape:window-y="-8"
   inkscape:window-x="-8"
   inkscape:cy="68.59543"
   inkscape:cx="-70.567038"
   inkscape:zoom="1.8680556"
   showgrid="false"
   id="namedview768"
   inkscape:window-height="705"
   inkscape:window-width="1366"
   inkscape:pageshadow="2"
   inkscape:pageopacity="0"
   guidetolerance="10"
   gridtolerance="10"
   objecttolerance="10"
   borderopacity="1"
   bordercolor="#666666"
   pagecolor="#ffffff" />





























































































<g
   transform="matrix(0.06105626,0,0,0.06105626,-9.9302749,-7.3058309)"
   id="g729">
	<path
   id="path723"
   d="m 169.6,122 c -4.2,2 -6,6.1 -6.5,10.7 -0.5,4.6 1.6,9.4 5.2,12.2 3.6,2.8 8.4,3.6 13,3.4 3.6,-0.2 7.5,-1.1 10,-3.8 2,-2.2 2.8,-5.3 3.3,-8.3 0.7,-4.7 0.3,-10.1 -3.3,-13.2 -2.9,-2.5 -7.1,-2.7 -10.9,-2.9 -3.7,-0.1 -7.7,-0.1 -10.8,1.9"
   fill="#caa3e8" />
	<g
   id="g727">
		<path
   id="path725"
   d="m 169.4,121.6 c -5.6,2.8 -7.8,10.1 -6.3,15.9 1.8,6.9 8.1,10.6 14.9,11.1 6.6,0.5 13.7,-1.3 16.1,-8.2 1.9,-5.6 2.3,-14.1 -2.9,-18.1 -2.9,-2.3 -6.8,-2.5 -10.3,-2.6 -3.9,-0.1 -8,-0.2 -11.5,1.9 -0.5,0.3 0,1 0.5,0.8 2.8,-1.7 6.1,-1.9 9.4,-1.8 2.8,0.1 5.8,0.1 8.6,1 6.6,2.3 7.2,9.6 6.2,15.6 -0.6,3.2 -1.7,6.4 -4.5,8.3 -2.4,1.7 -5.6,2.3 -8.5,2.4 -6.3,0.3 -13,-1.7 -16.1,-7.6 -3.1,-5.9 -1.5,-14.7 4.8,-17.9 0.5,-0.3 0.1,-1.1 -0.4,-0.8 z"
   fill="#545454" />
	</g>
</g>






</svg>
