<?xml version="1.0" encoding="UTF-8" standalone="no"?>
<svg
   xmlns:dc="http://purl.org/dc/elements/1.1/"
   xmlns:cc="http://creativecommons.org/ns#"
   xmlns:rdf="http://www.w3.org/1999/02/22-rdf-syntax-ns#"
   xmlns:svg="http://www.w3.org/2000/svg"
   xmlns="http://www.w3.org/2000/svg"
   xmlns:sodipodi="http://sodipodi.sourceforge.net/DTD/sodipodi-0.dtd"
   xmlns:inkscape="http://www.inkscape.org/namespaces/inkscape"
   version="1.1"
   id="Layer_1"
   x="0px"
   y="0px"
   width="170.00041"
   height="100.54116"
   viewBox="0 0 170.00041 100.54116"
   enable-background="new 0 0 100 100"
   xml:space="preserve"
   sodipodi:docname="10e-4 - B Ant.svg"
   inkscape:version="1.0 (4035a4fb49, 2020-05-01)"><metadata
   id="metadata9"><rdf:RDF><cc:Work
       rdf:about=""><dc:format>image/svg+xml</dc:format><dc:type
         rdf:resource="http://purl.org/dc/dcmitype/StillImage" /><dc:title /></cc:Work></rdf:RDF></metadata><defs
   id="defs7" /><sodipodi:namedview
   inkscape:document-rotation="0"
   pagecolor="#ffffff"
   bordercolor="#666666"
   borderopacity="1"
   objecttolerance="10"
   gridtolerance="10"
   guidetolerance="10"
   inkscape:pageopacity="0"
   inkscape:pageshadow="2"
   inkscape:window-width="1366"
   inkscape:window-height="705"
   id="namedview5"
   showgrid="false"
   inkscape:zoom="0.6725"
   inkscape:cx="-272.58534"
   inkscape:cy="259.10007"
   inkscape:window-x="-8"
   inkscape:window-y="-8"
   inkscape:window-maximized="1"
   inkscape:current-layer="Layer_1" />
<path
   fill="#000000"
   d="m 168.76103,20.109419 c -0.5451,0.0121 -13.47286,0.36917 -24.53578,5.282188 -10.63339,4.724988 -15.33078,4.809517 -19.20875,4.490378 -0.1984,-0.0138 -0.3899,0.0397 -0.5658,0.11903 -0.73663,-0.56065 -1.53707,-1.066098 -2.40478,-1.524968 12.09451,-17.452614 26.20393,-26.1280319 26.34884,-26.2142858 0.5762,-0.3501911 0.759,-1.0971496 0.4106,-1.6733256 -0.3467,-0.57617604 -1.09715,-0.76075938 -1.67333,-0.4122937 -0.6038,0.36399149 -14.89605,9.1273876 -27.36319,27.2907341 -0.4847,-0.17941 -0.954,-0.38124 -1.46631,-0.52442 -7.29881,-2.049393 -14.3768,0.42954 -15.80861,5.532324 -0.41751,1.488742 -0.29501,3.037863 0.2484,4.53523 -2.825705,-2.190852 -7.48859,-3.25695 -12.627597,-2.68595 -0.453696,-1.364536 -0.917742,-2.791175 -1.405939,-4.304069 -0.733157,-2.277102 -1.091975,-3.388053 -1.271383,-3.796897 -0.139731,-0.324314 -0.241511,-0.640003 -0.33294,-0.919466 -0.253586,-0.78146 -0.57445,-1.750954 -1.606047,-1.887235 -1.119575,-0.131106 -1.975215,0.964319 -3.017161,2.568641 -1.557745,2.390958 -2.494463,8.099241 -2.984386,12.127298 -1.204104,0.833212 -2.22535,1.757855 -3.024061,2.744599 l -9.132563,-10.560928 -0.281188,-0.23806 c -1.212729,-0.746959 -2.282277,-0.909116 -3.172417,-0.495098 -0.898767,0.417469 -1.238607,1.271383 -1.357637,1.716454 l -8.399405,14.806343 c -3.824498,-2.882604 -6.248232,-4.348921 -7.209101,-4.348921 -0.68313,0 -2.10632,0 -28.784651,33.214651 -0.0449,0.0794 -4.635284,7.859455 -16.8039838,6.703653 -0.67450543,-0.03968 -1.26103198,0.429544 -1.32658487,1.100599 -0.06210284,0.671056 0.43126948,1.264483 1.10232477,1.328311 0.9246422,0.0863 1.8113318,0.12593 2.6600702,0.12593 11.7426057,0 16.2778357,-7.686948 16.3761647,-7.887057 9.163614,-11.402764 24.154542,-29.645464 26.961244,-32.046772 0.962594,0.443345 3.260397,2.047667 5.803162,3.962504 l -2.332306,4.109136 C 44.003389,58.135312 39.27495,66.367384 39.157645,72.47761 l -1.185129,2.087344 c -0.0138,0.038 -1.386962,3.946979 -8.159619,2.463412 -0.65725,-0.13801 -1.305884,0.27084 -1.452515,0.92809 -0.14491,0.65725 0.27256,1.307609 0.92982,1.452515 1.254131,0.27601 2.373707,0.39504 3.372527,0.39504 4.421375,0 6.413841,-2.328855 7.155624,-3.539859 0.21564,0.49337 0.4675,0.96259 0.79181,1.386962 4.588708,6.001546 18.703296,2.354732 28.527615,-5.147632 4.674961,-3.572637 8.064739,-7.925009 9.860545,-12.1549 1.511169,7.861181 3.343201,20.169612 4.793991,31.812162 l 0.129381,0.415741 c 0.82631,1.576721 3.66924,6.801982 5.521975,7.812875 0.18803,0.1052 0.38987,0.1518 0.58653,0.1518 0.42782,0 0.85046,-0.2294 1.067823,-0.636546 0.324308,-0.589966 0.103499,-1.330024 -0.484753,-1.650889 -0.790085,-0.431269 -2.899856,-3.727893 -4.431725,-6.613949 -1.143727,-9.163614 -3.582987,-27.475316 -5.816963,-36.337043 0.0949,-0.89014 0.0949,-1.752678 0.0086,-2.585891 1.490467,0.56928 3.198294,0.94189 5.040677,1.088524 0.27946,0.12938 0.58653,0.14146 0.87461,0.0483 1.476666,0.0621 3.024062,-0.0224 4.614583,-0.25876 3.029237,6.363813 8.340752,17.668248 9.391308,20.825141 0.1397,0.41747 0.257,0.80734 0.3709,1.174778 1.18686,3.924552 2.4479,5.273564 9.80881,5.273564 1.35763,0 2.92745,-0.0449 4.74568,-0.13283 0.6728,-0.0293 1.19031,-0.5986 1.16271,-1.271383 -0.035,-0.67278 -0.6504,-1.261032 -1.27484,-1.159253 -10.91284,0.50372 -11.17505,-0.32259 -12.10832,-3.415654 -0.1156,-0.38469 -0.245,-0.79699 -0.3881,-1.238606 -1.07477,-3.215545 -6.151666,-14.045584 -9.237831,-20.535328 0.45542,-0.11386 0.89877,-0.24324 1.34211,-0.37952 0.79181,1.33521 1.488743,2.114945 2.133922,2.406483 0.26049,0.11386 0.5296,0.17596 0.79354,0.17596 0.24496,0 0.48475,-0.0518 0.70556,-0.15008 0.93154,-0.40712 1.45079,-0.60723 1.728519,-0.70556 0.3674,0.0569 0.747,-0.0431 1.03332,-0.31569 l 0.7832,-0.77973 -0.5676,-0.85736 c -0.6365,-0.96777 -1.664695,-0.58135 -3.641634,0.28981 -0.20701,-0.17596 -0.44507,-0.48302 -0.70901,-0.90049 2.095969,-0.891861 3.902114,-2.028692 5.308064,-3.31905 4.87334,-0.72108 8.82894,-1.116125 9.75359,-0.80734 0.3209,0.10868 0.5503,0.19493 0.7159,0.26049 -0.071,0.32604 -0.1104,0.76593 -0.003,1.304158 0.1829,0.91602 7.86291,23.252327 12.77593,26.064203 1.73715,0.988471 3.08961,1.31451 4.27474,1.31106 1.06437,0 1.99764,-0.25876 2.95506,-0.52615 0.9453,-0.26394 1.92518,-0.538221 3.21037,-0.626201 0.6762,-0.0483 1.17822,-0.63138 1.12992,-1.302434 -0.05,-0.67623 -0.7159,-1.185128 -1.30243,-1.13165 -1.53705,0.11041 -2.68077,0.43299 -3.69167,0.71418 -1.8372,0.50717 -2.94988,0.82459 -5.36499,-0.55548 -3.54158,-2.021792 -11.13882,-22.212105 -11.59942,-24.427104 -0.041,-0.20701 -0.01,-0.31914 0.053,-0.52615 0.5589,-1.887236 -1.07473,-2.43236 -2.38578,-2.868805 -1.20583,-0.40194 -4.56111,-0.13973 -8.26485,0.33984 0.847,-1.490467 1.20065,-3.065463 0.916,-4.616308 -0.007,-0.038 -0.022,-0.0725 -0.029,-0.10868 1.90621,1.904486 4.56283,3.470857 7.68694,4.348922 0.5227,0.14663 4.39895,0.65208 9.66389,0.0293 3.89005,-0.4606 4.63873,-4.147088 9.71736,-3.841749 l -2.50633,-1.290328 3.35355,-0.508898 -2.84465,-1.623299 c -1.80098,-1.799256 -0.83666,-1.316234 -1.82168,-2.818776 -0.3709,-1.022972 -0.9436,-2.020067 -1.6923,-2.958509 0.1639,0.0035 0.3088,0.0224 0.4778,0.0224 3.80208,0 8.8117,-0.83839 17.74589,-4.811243 10.61095,-4.714638 23.47313,-5.07173 23.60596,-5.07518 0.6728,-0.0173 1.2041,-0.57445 1.18685,-1.247231 -0.01,-0.6745 -0.609,-1.128201 -1.2386,-1.193753 z m -84.237285,7.20565 c 0.17768,-0.26911 0.32949,-0.4951 0.4606,-0.681411 0.0673,0.184581 0.14146,0.376071 0.22426,0.565831 0.13628,0.31569 0.62103,1.821682 1.183403,3.565735 0.450242,1.397314 0.874611,2.696298 1.288629,3.955604 -2.00109,0.41747 -3.857274,1.047123 -5.509898,1.844109 0.517523,-3.65199 1.309333,-7.647271 2.353006,-9.249868 z m -19.786644,5.016527 0.15871,-0.55203 c 0.0173,0 0.22944,-0.019 0.73143,0.26739 l 9.491379,10.971497 c -0.303614,0.683132 -0.489922,1.381788 -0.567551,2.083895 -4.674961,-1.802706 -11.413116,-0.752134 -17.904584,2.927458 -0.19321,-0.15181 -0.38297,-0.30016 -0.571,-0.4468 z"
   id="path2"
   style="stroke-width:1.72508;fill:#ffffff;fill-opacity:1;stroke:none" />
</svg>
