<?xml version="1.0" encoding="UTF-8" standalone="no"?>
<svg
   xmlns:dc="http://purl.org/dc/elements/1.1/"
   xmlns:cc="http://creativecommons.org/ns#"
   xmlns:rdf="http://www.w3.org/1999/02/22-rdf-syntax-ns#"
   xmlns:svg="http://www.w3.org/2000/svg"
   xmlns="http://www.w3.org/2000/svg"
   xmlns:sodipodi="http://sodipodi.sourceforge.net/DTD/sodipodi-0.dtd"
   xmlns:inkscape="http://www.inkscape.org/namespaces/inkscape"
   sodipodi:docname="10e1 - B Burj Khalifa.svg"
   height="82.800003"
   width="16.169588"
   inkscape:version="1.0 (4035a4fb49, 2020-05-01)"
   version="1.1"
   id="svg2">
  <metadata
     id="metadata8">
    <rdf:RDF>
      <cc:Work
         rdf:about="">
        <dc:format>image/svg+xml</dc:format>
        <dc:type
           rdf:resource="http://purl.org/dc/dcmitype/StillImage" />
        <dc:title></dc:title>
      </cc:Work>
    </rdf:RDF>
  </metadata>
  <defs
     id="defs6" />
  <sodipodi:namedview
     inkscape:document-rotation="0"
     fit-margin-bottom="0"
     fit-margin-right="0"
     fit-margin-left="0"
     fit-margin-top="0"
     inkscape:snap-global="false"
     inkscape:guide-bbox="true"
     showguides="true"
     inkscape:current-layer="svg2"
     inkscape:window-maximized="1"
     inkscape:window-y="-8"
     inkscape:window-x="-8"
     inkscape:cy="46.463644"
     inkscape:cx="-17.822998"
     inkscape:zoom="3.9302137"
     showgrid="false"
     id="namedview4"
     inkscape:window-height="705"
     inkscape:window-width="1366"
     inkscape:pageshadow="2"
     inkscape:pageopacity="1"
     guidetolerance="10"
     gridtolerance="10"
     objecttolerance="10"
     borderopacity="1"
     bordercolor="#666666"
     pagecolor="#ffffff">
    <inkscape:grid
       spacingy="1"
       spacingx="1"
       originy="1332.7341"
       originx="-1095.9148"
       snapvisiblegridlinesonly="true"
       enabled="true"
       visible="true"
       empspacing="5"
       id="grid4942"
       type="xygrid" />
  </sodipodi:namedview>
  <path
     id="path4833"
     d="m 8.1859873,0.0219178 c -0.2160219,0 -0.2630136,0.0644296 -0.2630136,0.35753201 -0.00294,1.33041079 -4.384e-4,2.69315479 0,3.73973009 v 3.082187 l -0.1095891,0.071233 -0.109589,0.072605 v 1.7931527 c 0.00953,1.1066564 -4.383e-4,2.3683854 -0.00959,3.3369854 l -0.012331,1.113697 -0.1602718,0.0137 c -0.088565,0.0074 -0.1824394,0.03882 -0.2082191,0.06986 -0.03207,0.03864 -0.051003,1.037743 -0.058906,3.164388 l -0.010959,3.108216 -0.1534247,0.01507 c -0.2480832,0.02354 -0.2630136,0.05625 -0.2630136,0.57945 0.029712,1.099195 -4.384e-4,2.212764 0,3.073972 v 2.193152 l -0.2191751,0.205476 -0.2191781,0.206851 v 2.547945 c 0.019196,4.934553 -0.033508,9.634327 -0.00959,13.735617 l -0.012331,0.456162 -0.2616416,0.0137 c -0.1438246,0.0074 -0.2868383,0.03457 -0.3178082,0.06027 -0.045168,0.03748 -0.056166,0.899871 -0.056166,4.356164 -0.035292,2.354415 0.0039,4.303522 -0.00959,6.180822 l -0.012331,1.443835 -0.3698586,0.0137 c -0.2037392,0.0071 -0.3960767,0.03428 -0.4273972,0.06027 -0.045861,0.03808 -0.057539,0.716221 -0.057539,3.479451 -0.08476,2.183755 -0.00105,3.936022 -0.010959,5.742466 l -0.010959,1.882191 -0.2616416,0.0137 c -0.1438246,0.0074 -0.2868381,0.03459 -0.317808,0.06027 -0.044813,0.03721 -0.056167,0.635401 -0.056167,2.931506 0.036024,1.473122 0.0071,2.891459 -0.00959,4.100002 l -0.012331,0.784929 -0.2698608,0.0137 c -0.1528986,0.0073 -0.2911298,0.03774 -0.3178082,0.06986 -0.031917,0.03848 -0.051003,0.775978 -0.058906,2.287675 l -0.010959,2.231505 -0.3794498,0.0137 c -0.2396843,0.008 -0.3968043,0.0319 -0.4260295,0.06713 -0.025442,0.03065 -0.052015,0.271846 -0.058902,0.535614 l -0.012331,0.479452 -0.3698586,0.0137 c -0.2037392,0.0071 -0.3957874,0.03244 -0.4260295,0.05754 -0.030242,0.02509 -0.060015,0.167798 -0.067121,0.31644 l -0.013703,0.269861 -0.6958903,0.01233 -0.69725802,0.01233 -0.16849533,0.168491 -0.16711889,0.167127 -0.012331,0.784929 c -0.003682,0.393675 0.003463,0.820375 0.004121,1.194521 8.13138744,-0.0031 13.29061994,-0.0072 16.12054594,-0.01644 8.33e-4,-0.433507 -0.01273,-0.902342 -0.01781,-1.289038 -0.0074,-0.559671 -0.02927,-0.916362 -0.05891,-0.952057 -0.03453,-0.04161 -0.238948,-0.06108 -0.754792,-0.06986 L 14.6079,80.438355 14.59557,80.168494 c -0.0071,-0.148659 -0.03825,-0.29141 -0.06849,-0.31644 -0.03025,-0.0251 -0.222295,-0.05045 -0.426025,-0.05754 l -0.369868,-0.0137 -0.01233,-0.479452 c -0.0069,-0.263768 -0.03322,-0.504964 -0.05891,-0.535614 -0.02921,-0.03522 -0.18634,-0.05914 -0.426025,-0.06713 l -0.379454,-0.0137 -0.01096,-3.087671 c -0.02072,-1.168978 0.02466,-2.338214 0.02466,-3.505477 l -0.05343,-0.06575 c -0.0764,-0.09287 -0.134545,-0.113004 -0.354797,-0.123292 l -0.263013,-0.01233 -0.01096,-4.532874 c -0.0078,-3.165734 -0.02584,-4.548831 -0.0589,-4.589045 -0.0269,-0.0324 -0.164256,-0.06247 -0.317808,-0.06986 -0.26151,-0.01253 -0.269664,-0.01793 -0.28356,-0.139726 -9.64e-4,-3.303132 0.0042,-7.906384 -0.0082,-11.005479 0,-0.08001 -0.02482,-0.165773 -0.05616,-0.19178 -0.03133,-0.02601 -0.223658,-0.05319 -0.427398,-0.06027 l -0.371235,-0.0137 -0.01096,-4.621917 c -0.05188,-2.16448 -0.0097,-4.737206 -0.01096,-6.619178 0,-1.22517 -0.01222,-1.579971 -0.05616,-1.616438 -0.03097,-0.02571 -0.173983,-0.05289 -0.317808,-0.06027 l -0.261646,-0.0137 -0.010959,-3.306849 c -0.014325,-1.757948 -0.00996,-3.813027 -0.010959,-5.304109 0,-1.205304 -0.012585,-1.58005 -0.054794,-1.615066 -0.030216,-0.0251 -0.1239145,-0.05229 -0.2082192,-0.06027 L 9.5668223,28.054791 9.5558634,26.041093 9.5435368,24.026027 9.3257264,23.820543 9.1065483,23.615068 v -1.097262 c -0.01131,-1.446282 4.384e-4,-2.900476 0,-4.060274 0,-1.996028 -0.011871,-2.565759 -0.054794,-2.601367 -0.030216,-0.0251 -0.1239145,-0.05229 -0.2082191,-0.06027 L 8.69011,15.78082 8.6791511,13.569862 c -0.03232,-1.088395 -0.00928,-2.343242 -0.010959,-3.335614 0,-0.6959257 -4.383e-4,-0.6979553 -0.109589,-0.7698676 L 8.4490142,9.3931475 V 5.2150702 c 0.037799,-1.5826147 0.00743,-3.2918441 0,-4.83562039 0,-0.29310243 -0.046966,-0.35753201 -0.2630137,-0.35753201 z"
     style="fill:#ffffff;fill-opacity:1;stroke:#000000;stroke-width:0.0438356;stroke-opacity:1"
     inkscape:connector-curvature="0" />
</svg>
