<?xml version="1.0" encoding="UTF-8" standalone="no"?>
<svg
   xmlns:dc="http://purl.org/dc/elements/1.1/"
   xmlns:cc="http://creativecommons.org/ns#"
   xmlns:rdf="http://www.w3.org/1999/02/22-rdf-syntax-ns#"
   xmlns:svg="http://www.w3.org/2000/svg"
   xmlns="http://www.w3.org/2000/svg"
   xmlns:sodipodi="http://sodipodi.sourceforge.net/DTD/sodipodi-0.dtd"
   xmlns:inkscape="http://www.inkscape.org/namespaces/inkscape"
   sodipodi:docname="10e2 - S Burj Khalifa.svg"
   height="8.2800121"
   width="1.6169587"
   inkscape:version="1.0 (4035a4fb49, 2020-05-01)"
   version="1.1"
   id="svg2">
  <metadata
     id="metadata8">
    <rdf:RDF>
      <cc:Work
         rdf:about="">
        <dc:format>image/svg+xml</dc:format>
        <dc:type
           rdf:resource="http://purl.org/dc/dcmitype/StillImage" />
        <dc:title></dc:title>
      </cc:Work>
    </rdf:RDF>
  </metadata>
  <defs
     id="defs6" />
  <sodipodi:namedview
     inkscape:document-rotation="0"
     fit-margin-bottom="0"
     fit-margin-right="0"
     fit-margin-left="0"
     fit-margin-top="0"
     inkscape:snap-global="false"
     inkscape:guide-bbox="true"
     showguides="true"
     inkscape:current-layer="svg2"
     inkscape:window-maximized="1"
     inkscape:window-y="-8"
     inkscape:window-x="-8"
     inkscape:cy="46.463649"
     inkscape:cx="-17.822997"
     inkscape:zoom="3.9302137"
     showgrid="false"
     id="namedview4"
     inkscape:window-height="705"
     inkscape:window-width="1366"
     inkscape:pageshadow="2"
     inkscape:pageopacity="1"
     guidetolerance="10"
     gridtolerance="10"
     objecttolerance="10"
     borderopacity="1"
     bordercolor="#666666"
     pagecolor="#ffffff">
    <inkscape:grid
       spacingy="1"
       spacingx="1"
       originy="1332.7341"
       originx="-1095.9148"
       snapvisiblegridlinesonly="true"
       enabled="true"
       visible="true"
       empspacing="5"
       id="grid4942"
       type="xygrid" />
  </sodipodi:namedview>
  <path
     id="path4833"
     d="m 0.81859972,0.00219696 c -0.0216022,0 -0.0263014,0.00644296 -0.0263014,0.0357532 -2.94e-4,0.13304107 -4.384e-5,0.26931546 0,0.37397298 v 0.30821868 l -0.0109589,0.007123 -0.0109589,0.007261 v 0.17931525 c 9.53e-4,0.11066563 -4.383e-5,0.23683853 -9.59e-4,0.33369853 l -0.001233,0.1113697 -0.0160272,0.00137 c -0.008856,7.4e-4 -0.0182439,0.00388 -0.0208219,0.00699 -0.003207,0.00386 -0.0051,0.1037743 -0.005891,0.3164388 l -0.001096,0.3108216 -0.0153425,0.00151 c -0.0248083,0.00235 -0.0263014,0.00562 -0.0263014,0.057945 0.002971,0.1099195 -4.384e-5,0.2212764 0,0.3073972 v 0.2193152 l -0.0219175,0.020548 -0.0219178,0.020685 v 0.2547945 c 0.00192,0.4934553 -0.003351,0.9634326 -9.59e-4,1.3735616 l -0.001233,0.045616 -0.0261642,0.00137 c -0.0143825,7.4e-4 -0.0286838,0.00346 -0.0317808,0.00603 -0.004517,0.00375 -0.005617,0.089987 -0.005617,0.4356163 -0.003529,0.2354415 3.9e-4,0.4303522 -9.59e-4,0.6180822 l -0.001233,0.1443835 -0.0369859,0.00137 c -0.0203739,7.1e-4 -0.0396077,0.00343 -0.0427397,0.00603 -0.004586,0.00381 -0.005754,0.071622 -0.005754,0.3479451 -0.008476,0.2183754 -1.05e-4,0.3936021 -0.001096,0.5742465 l -0.001096,0.1882191 -0.0261642,0.00137 c -0.0143825,7.4e-4 -0.0286838,0.00346 -0.0317808,0.00603 -0.004481,0.00372 -0.005617,0.06354 -0.005617,0.2931506 0.003602,0.1473122 7.1e-4,0.2891459 -9.59e-4,0.4100002 l -0.001233,0.078493 -0.0269861,0.00137 c -0.0152899,7.3e-4 -0.029113,0.00377 -0.0317808,0.00699 -0.003192,0.00385 -0.0051,0.077598 -0.005891,0.2287674 l -0.001096,0.2231505 -0.037945,0.00137 c -0.0239684,8e-4 -0.0396804,0.00319 -0.042603,0.00671 -0.002544,0.00306 -0.005201,0.027185 -0.00589,0.053561 l -0.001233,0.047945 -0.0369858,0.00137 c -0.0203739,7.1e-4 -0.0395787,0.00324 -0.0426029,0.00575 -0.003024,0.00251 -0.006001,0.01678 -0.006712,0.031644 l -0.00137,0.026986 -0.069589,0.00123 -0.06972579,0.00123 -0.01684953,0.016849 -0.01671189,0.016713 -0.0012331,0.078493 c -3.682e-4,0.039367 3.463e-4,0.082038 4.121e-4,0.1194521 0.81313868,-3.1e-4 1.32906179,-7.2e-4 1.61205439,-0.00164 8.33e-5,-0.043351 -0.00127,-0.090234 -0.00178,-0.1289038 -7.4e-4,-0.055967 -0.00293,-0.091636 -0.00589,-0.095206 -0.00345,-0.00416 -0.023895,-0.00611 -0.075479,-0.00699 l -0.070822,-0.00123 -0.00123,-0.026986 c -7.1e-4,-0.014866 -0.00382,-0.029141 -0.00685,-0.031644 -0.00303,-0.00251 -0.02223,-0.00504 -0.042603,-0.00575 l -0.036987,-0.00137 -0.00123,-0.047945 c -6.9e-4,-0.026377 -0.00332,-0.050496 -0.00589,-0.053561 -0.00292,-0.00352 -0.018634,-0.00591 -0.042603,-0.00671 l -0.037945,-0.00137 -0.0011,-0.3087671 c -0.00207,-0.1168978 0.00247,-0.2338213 0.00247,-0.3505476 l -0.00534,-0.00657 c -0.00764,-0.00929 -0.013455,-0.0113 -0.03548,-0.012329 l -0.026301,-0.00123 -0.0011,-0.4532874 c -7.8e-4,-0.3165734 -0.00258,-0.4548831 -0.00589,-0.4589045 -0.00269,-0.00324 -0.016426,-0.00625 -0.031781,-0.00699 -0.026151,-0.00125 -0.026966,-0.00179 -0.028356,-0.013973 -9.64e-5,-0.3303131 4.2e-4,-0.7906383 -8.2e-4,-1.1005478 0,-0.008 -0.00248,-0.016577 -0.00562,-0.019178 -0.00313,-0.0026 -0.022366,-0.00532 -0.04274,-0.00603 l -0.037124,-0.00137 -0.0011,-0.4621916 c -0.00519,-0.216448 -9.7e-4,-0.4737206 -0.0011,-0.6619178 0,-0.122517 -0.00122,-0.1579971 -0.00562,-0.1616438 -0.0031,-0.00257 -0.017398,-0.00529 -0.031781,-0.00603 l -0.026165,-0.00137 -0.001096,-0.3306849 c -0.001432,-0.1757947 -9.96e-4,-0.3813026 -0.001096,-0.5304108 0,-0.1205304 -0.001258,-0.158005 -0.005479,-0.1615066 -0.003022,-0.00251 -0.0123915,-0.00523 -0.0208219,-0.00603 l -0.015342,-0.00151 -0.001096,-0.2013698 -0.001233,-0.2015066 -0.021781,-0.020548 -0.0219178,-0.020548 v -0.109736 c -0.001131,-0.1446282 4.384e-5,-0.2900475 0,-0.4060273 0,-0.1996028 -0.001187,-0.2565759 -0.005479,-0.2601367 -0.003022,-0.00251 -0.0123914,-0.00523 -0.0208219,-0.00603 l -0.0153425,-0.00151 -0.001096,-0.2210958 c -0.003232,-0.1088395 -9.28e-4,-0.2343242 -0.001096,-0.3335614 0,-0.0695925 -4.383e-5,-0.0697955 -0.0109589,-0.0769867 l -0.0109588,-0.007123 v -0.4178077 c 0.00378,-0.15826146 7.43e-4,-0.32918438 0,-0.483562 0,-0.02931024 -0.004697,-0.0357532 -0.0263014,-0.0357532 z"
     style="fill:#ffffff;fill-opacity:1;stroke:#000000;stroke-width:0.00438356;stroke-opacity:1"
     inkscape:connector-curvature="0" />
</svg>
