<?xml version="1.0" encoding="UTF-8" standalone="no"?>
<svg
   xmlns:dc="http://purl.org/dc/elements/1.1/"
   xmlns:cc="http://creativecommons.org/ns#"
   xmlns:rdf="http://www.w3.org/1999/02/22-rdf-syntax-ns#"
   xmlns:svg="http://www.w3.org/2000/svg"
   xmlns="http://www.w3.org/2000/svg"
   xmlns:sodipodi="http://sodipodi.sourceforge.net/DTD/sodipodi-0.dtd"
   xmlns:inkscape="http://www.inkscape.org/namespaces/inkscape"
   xml:space="preserve"
   enable-background="new 0 0 1999.709 1977.598"
   viewBox="0 0 4.9569996 21.569102"
   height="21.569101"
   width="4.9569998"
   y="0px"
   x="0px"
   sodipodi:docname="10e4 - S Manhattan.svg"
   inkscape:version="1.0 (4035a4fb49, 2020-05-01)"
   id="katman_1"
   version="1.1"><metadata
   id="metadata77"><rdf:RDF><cc:Work
       rdf:about=""><dc:format>image/svg+xml</dc:format><dc:type
         rdf:resource="http://purl.org/dc/dcmitype/StillImage" /><dc:title></dc:title></cc:Work></rdf:RDF></metadata>
<defs
   id="defs3">
	
	
		<inkscape:perspective
   inkscape:persp3d-origin="249.99999 : -1791.229 : 1"
   id="perspective144"
   inkscape:vp_z="499.99998 : -1708.829 : 1"
   sodipodi:type="inkscape:persp3d"
   inkscape:vp_x="0 : -1708.829 : 1"
   inkscape:vp_y="0 : 1000 : 0">
		</inkscape:perspective>

	
	

		
		
		
		
		
		
		
		
		
		
		
			
		
		
		
		
		
		
		
		
		
		
		
		
		
		
		
		
		
		
		
		
		
		
		
		
		
		
		
		
		
		
		
		
		
		
		
		
		
		
		
		
		
		
		
	</defs>

<sodipodi:namedview
   inkscape:document-rotation="0"
   inkscape:current-layer="katman_1"
   inkscape:window-maximized="1"
   inkscape:window-y="-8"
   inkscape:window-x="-8"
   inkscape:window-height="705"
   inkscape:window-width="1366"
   inkscape:pageshadow="2"
   inkscape:pageopacity="0"
   id="namedview138"
   showgrid="false"
   inkscape:zoom="0.76152918"
   gridtolerance="10"
   bordercolor="#666666"
   guidetolerance="10"
   inkscape:cx="-140.75956"
   inkscape:cy="172.52447"
   borderopacity="1"
   pagecolor="#ffffff"
   objecttolerance="10">
	</sodipodi:namedview>




<g
   transform="matrix(0.01952076,-0.00993076,0.00993076,0.01952076,-9.7498466,3.8783012)"
   id="g1147"><path
     id="path82"
     fill="#4daf4a"
     stroke="#d0c0a0"
     stroke-width="3"
     stroke-miterlimit="10"
     d="m 536.90619,78.187968 c 1.777,7.582 -1.148,19.387 -5.84,25.516002 -2.008,2.604 -4.941,4.584 -7.91,5.867 -2.176,0.924 -5.309,1.057 -6.859,2.867 2.469,1.156 4.188,1.98 3.82,5.014 -0.293,2.572 -1.977,3 -3.621,4.879 -2.176,2.439 -4.223,5.045 -6.629,7.221 -1.586,1.484 -3,4.484 -4.813,5.572 -2.102,1.283 -2.902,-1.553 -5.043,0.131 -2.012,1.549 -2.344,6.857 -3.035,9.201 -3.625,12.428 -10.883,22.684 -17.254,33.791 -2.141,3.729 -3.363,7.781 -5.34,11.605 -2.102,4.055 -4.086,7.979 -5.637,12.299 -1.277,3.592 -3.586,6.232 -5.176,9.629 -1.223,2.572 -1.52,6.164 -1.969,9.068 0,0.066 -0.047,0.164 -0.047,0.23 -1.109,6.527 -3.453,12.691 -6.066,18.859 -2.707,6.297 -4.027,11.014 -4.355,17.938 -0.234,5.668 -0.621,11.604 0,17.309 1.086,10.055 3.586,19.914 4.391,30 0.691,9.199 -0.734,18.299 -1.613,27.432 -0.457,5.08 -0.293,10.252 -0.293,15.363 0,4.088 0,8.145 0,12.232 0,3.395 0,6.824 0,10.219 0,3.824 -0.164,5.77 2.469,8.605 2.438,2.57 4.977,4.748 7.156,7.615 4.523,5.904 9.293,12.1 10.754,19.354 1.055,5.176 0.527,11.012 0.527,16.387 0,4.484 0.824,9.428 -1.883,13.221 -2.539,3.627 -6.293,5.736 -9.656,8.375 -4.449,3.561 -9.367,6.725 -13.285,10.912 -3.066,3.332 -4.023,7.453 -5.672,11.539 -1.316,3.297 -2.836,6.266 -5.012,9.037 -4.914,6.164 -15.07,10.68 -16.414,19.221 -0.5,3.1 0.688,6 1.91,8.734 1.387,3.133 2.113,6.266 3.238,9.465 0.859,2.504 3.398,6.068 3.367,8.736 -0.043,3.068 -4.359,5.867 -6.242,8.143 -2.898,3.529 -5.602,6.988 -8.836,10.189 -7.555,7.516 -12.691,16.484 -18.035,25.615 -3.066,5.244 -6.129,10.289 -9.754,15.232 -8.082,10.98 -17.305,21.332 -25.355,32.439 -6.496,8.969 -12.168,18.598 -18.332,27.828 -5.508,8.176 -12.496,15.297 -16.223,24.527 -1.586,3.957 -3.754,7.754 -3.824,12.074 -0.094,4.646 1.648,9.23 -1.121,12.992 -1.441,2.012 -1.777,3.098 -1.648,5.703 0.266,4.451 3.535,6.66 4.418,10.451 1.813,7.686 -6.727,3.297 -9.039,6.893 -2.871,4.551 6.367,6.133 8.105,7.352 -2.047,2.045 -6.785,0.428 -9.121,2.836 -2.441,2.537 0.727,4.252 2.758,6.068 5.914,5.176 9.363,10.881 8.637,18.824 -0.402,4.252 -1.285,8.408 -1.918,12.66 -0.367,2.34 -0.699,5.012 -1.391,6.893 0,0.031 -0.914,0.586 -1.086,1.082 -0.199,0.561 0.094,1.354 0,1.918 -1.484,10.283 -2.082,21.131 -6.035,30.791 -2.047,4.98 -4.414,9.855 -6.328,14.836 -1.52,3.992 -3.402,6.855 -6.664,9.529 -2.871,2.34 -5.604,3.59 -9.131,4.68 -3.791,1.156 -7.32,2.867 -11.34,2.867 -4.389,0 -8.637,0.824 -12.992,2.012 -2.904,0.793 -6.033,4.68 -9.264,3.363 -3.168,-1.25 -1.844,-4.219 -1.98,-6.758 -0.164,-2.637 0,-2.242 -2.504,-2.506 -1.484,-0.131 -2.928,0.133 -4.352,0.264 -4.648,0.43 -9.426,1.09 -13.748,2.77 -4.389,1.68 -8.178,4.547 -12.465,6.428 -2.932,1.32 -5.34,2.375 -4.584,6.199 0.496,2.668 2.637,4.221 1.717,7.221 -2.473,7.918 -10.389,13.711 -16.416,18.891 -8.836,7.52 -5.309,-6.914 -11.672,-5.242 -7.02,1.879 5.906,11.012 -1.912,12.09 -4.389,0.59 -2.869,-1.313 -4.389,-3.859 -1.912,-3.125 -5.572,-0.625 -7.219,1.449 -2.109,2.629 -3,3.621 -6.793,3.234 -2.764,-0.293 -5.34,-1.914 -7.449,-3.75 -1.516,-1.352 -2.41,-2.934 -3.234,-4.754 -0.889,-2.012 -2.869,-4.609 -3.359,-6.582 -1.025,-4.156 2.635,-3.199 3.887,-5.773 1.648,-3.459 -1.973,-3.955 -4.219,-3.523 -2.377,0.461 -6.758,2.008 -8.213,-0.893 -1.02,-2.076 0.92,-7.023 1.385,-8.967 1.055,-4.617 2.307,-8.934 3.1,-13.549 0.691,-4.057 2.271,-7.816 2.967,-11.867 0.922,-5.275 1.385,-10.553 1.648,-15.92 0.625,-12.893 5.18,-25.389 6.592,-38.148 0.264,-2.637 0.133,-8.408 1.447,-10.648 1.484,-2.539 7.285,-2.768 10.086,-3.297 2.738,-0.527 5.043,-0.922 1.914,-3.295 -2.738,-2.045 -14.672,-3.824 -10.154,-8.869 1.15,-1.283 3.951,-2.371 4.482,-4.582 0.789,-3.594 -2.176,-1.484 -3.914,-3.102 -4.121,-3.791 9.59,-3.992 11.207,-4.451 1.648,-5.932 -8.836,-2.439 -9.855,-6.529 -0.793,-3.168 2.275,-7.582 3.031,-10.451 0.859,-3.264 0.793,-4.088 4.721,-4.947 1.811,-0.428 6.66,-0.625 5.244,-3.66 -1.188,-2.572 -5.602,-2.012 -7.748,-2.375 -2.908,-0.496 -3.264,-2.441 -0.564,-3.857 2.08,-1.088 4.813,-0.496 3.855,-4.119 -0.459,-1.752 -2.305,-3.824 -3.656,-5.145 -2.078,-2.08 -2.41,-2.504 -1.355,-5.572 1.023,-2.867 1.584,-5.307 1.453,-8.504 -0.365,-7.287 0.066,-13.553 5.738,-19.023 3.332,-3.201 7.516,-4.453 3.789,-9.756 -2.371,-3.43 -7.385,-4.549 -3.988,-9.957 2.309,-3.691 4.813,-7.516 4.648,-12.332 2.768,0.133 1.883,2.836 3.295,4.088 1.846,1.648 4.121,-0.195 5.178,-1.879 0.955,-1.484 1.814,-4.354 0.891,-6.168 -0.787,-1.549 -2.836,-2.045 -3.23,-3.857 -0.234,-1.119 0.691,-3.723 0.986,-4.844 0.988,-3.727 3.264,-6.891 5.408,-10.023 0.859,-1.285 1.289,-2.309 2.545,-3.195 0.855,-0.561 2.764,-0.594 3.291,-1.09 3.264,-2.738 -1.645,-2.34 -3.26,-3.33 -1.813,-6.496 12.693,-0.857 11.176,-5.969 -1.352,-1.32 -3.691,-1.02 -4.057,-3.332 -0.295,-1.912 1.518,-3.855 3.293,-4.119 1.484,-0.236 4.617,1.943 4.943,-0.561 0.201,-1.717 -2.504,-2.604 -3.822,-2.805 -1.156,-5.008 6.168,-0.496 7.879,-0.822 0.564,-2.41 -2.107,-1.713 -3.031,-3.234 -0.729,-1.154 -0.033,-3.426 0.096,-4.646 1.023,0.824 8.08,4.68 8.012,0.988 -0.068,-2.473 -4.549,-1.977 -5.373,-4.021 -1.32,-3.363 3.129,-0.627 4.754,-1.383 3.422,-1.68 -2.014,-1.945 -2.504,-3.297 -0.957,-2.734 3.559,-2.604 4.715,-3.66 2.539,-2.307 -0.625,-3 -1.188,-5.406 -0.588,-2.504 1.088,-3.594 2.604,-5.441 2.541,-3.031 2.74,-12.195 7.881,-11.275 0.164,1.057 0.691,3.463 1.615,4.057 1.748,1.184 3.396,0.23 3.627,-1.617 0.426,-3.297 -3.955,-5.207 -1.582,-8.805 0.955,-1.414 2.535,-2.074 3.459,-3.855 0.693,-1.352 0.955,-2.668 1.98,-3.855 1.979,-2.309 7.611,-2.9 5.572,-6.855 -0.92,-1.781 -4.68,-1.945 -5.045,-3.297 -0.66,-2.637 4.189,-1.912 5.504,-1.912 2.473,0 4.025,0.332 5.705,-1.385 1.719,-1.746 2.836,-4.715 3.992,-6.891 3.428,-6.232 7.516,-12.199 10.582,-18.66 1.682,-3.465 2.801,-7.289 4.648,-10.717 2.176,-3.955 5.34,-6.264 7.813,-9.822 2.309,-3.332 3.625,-7.254 5.668,-10.717 3.695,-6.26 6.695,-12.92 10.289,-19.252 2.768,-4.881 5.307,-9.264 7.09,-14.605 0.82,-2.504 1.18,-4.914 2.203,-7.352 3.73,-9 9.895,-17.439 15.039,-25.684 3.789,-6.068 6.895,-12.559 10.152,-18.891 2.145,-4.121 3.363,-8.705 5.375,-12.893 1.777,-3.793 4.391,-7.084 6.531,-10.682 1.117,-1.943 4.754,-6.295 4.645,-8.57 -0.063,-2.637 -3.75,-2.441 -2.961,-4.68 0.785,-2.209 5.375,-2.408 6.824,-4.32 1.715,-2.277 1.191,-5.908 4.191,-7.416 0.984,-0.496 2.246,0.096 3.234,-0.332 1.25,-0.529 1.75,-1.912 2.41,-3.033 5.379,-9.131 12.098,-17.508 18.004,-26.439 5.668,-8.604 9.727,-18.664 13.391,-28.225 3.492,-9.199 5.344,-18.664 8.242,-27.992 2.215,-7.02 7.781,-14.406 8.25,-21.76 0.422,-6.791 -4.32,-10.68 -6.531,-16.879 -1.387,-3.893 -0.625,-7.484 1.719,-10.779 2.082,-2.934 4.059,-3.496 6.82,-5.309 4.855,-3.133 8.016,-9.197 10.984,-13.98 6.293,-10.252 11.672,-21 17.762,-31.32 4.648,-7.879 8.707,-15.695 12.402,-24 3.238,-7.320002 4.918,-13.916002 4.918,-21.891002 0,-3.102 -0.418,-6.66 0.297,-9.629 0.824,-3.428 3.621,-6.957 5.762,-9.629 2.582,-3.295 5.672,-6.199 8.438,-9.264 1.945,-2.143 3.266,-3.855 6.43,-3.627 6.066,0.395 9.891,5.604 10.109,11.242 0.133,3.361 0.164,6.926 2.75,9.365 1.844,1.713 6.625,3.561 8.734,1.385 1.98,-2.012 -0.125,-5.441 2.805,-6.629 3.328,-1.32 8.043,1.844 10.879,3.031 5.273,2.251 15.659,4.03 17.175,10.427 z"
     style="fill:#ffffff;fill-opacity:1;stroke:#000e00;stroke-width:1;stroke-miterlimit:9.16;stroke-dasharray:none;stroke-opacity:1" /><path
     id="path84"
     fill="#4daf4a"
     stroke="#d0c0a0"
     stroke-width="3"
     stroke-miterlimit="10"
     d="m 523.32419,425.09397 c -4.121,3.857 5.145,11.938 4.645,16.025 -0.73,6 -10.613,10.879 -14.336,14.904 -5.641,6.1 -11.641,13.32 -13.289,21.332 -0.824,4.082 -0.07,8.967 -2.473,12.395 -2.105,2.969 -5.41,5.9 -7.848,8.705 -2.43,2.803 -6.297,5.572 -10.25,5.572 -1.121,0 -2.254,-0.232 -3.371,-0.758 -1.25,-0.627 -2.211,-2.672 -3.363,-3.527 -1.914,-1.451 -4.223,-2.176 -6.363,-3.168 -5.18,-2.34 -19.848,-7.648 -17.477,-15.496 0.957,-3.1 2.91,-5.34 3.738,-8.637 1.055,-4.082 2.406,-4.947 6.066,-6.99 7.414,-4.156 11.934,-8.805 16.285,-15.793 2.539,-4.02 4.844,-7.748 5.266,-12.561 0.406,-4.65 -0.23,-9.395 0,-14.047 0.406,-7.617 7.484,-12.824 2.473,-20.113 l 16.453,-1.447 z"
     style="fill:#ffffff;fill-opacity:1;stroke:#000e00;stroke-width:1;stroke-miterlimit:9.16;stroke-dasharray:none;stroke-opacity:1" /><path
     id="path86"
     fill="#4daf4a"
     stroke="#d0c0a0"
     stroke-width="3"
     stroke-miterlimit="10"
     d="m 449.24219,502.77397 c 1.117,3.43 -3.461,5.145 -5.273,7.518 -1.082,1.416 -1.883,4.881 -4.352,4.748 -2.105,-0.133 -2.414,-3.297 -2.93,-4.945 -1.121,-3.459 -0.957,-9.824 2.801,-11.803 3.094,-1.653 8.699,1.216 9.754,4.482 z"
     style="fill:#ffffff;fill-opacity:1;stroke:#000e00;stroke-width:1;stroke-miterlimit:9.16;stroke-dasharray:none;stroke-opacity:1" /><path
     id="path90"
     fill="#4daf4a"
     stroke="#d0c0a0"
     stroke-width="3"
     stroke-miterlimit="10"
     d="m 437.96119,532.34797 c 0.133,0.66 0.203,1.352 0.203,2.078 0,2.441 -0.695,5.209 -1.227,7.289 -1.684,6.793 -6.785,11.244 -10.484,16.912 -10.609,16.352 -18.898,34.16 -29.965,50.248 -6.074,8.836 -14.543,15.859 -20.746,24.664 -3.398,4.813 -9.328,15.297 -16.027,14.703 -0.164,-3.1 -0.121,-5.969 0.957,-8.738 1.414,-3.496 3.625,-6.529 4.848,-10.09 2.582,-7.648 7.977,-14.406 12.824,-20.967 4.914,-6.66 10.223,-13.025 15.094,-19.752 5.578,-7.648 10.813,-15.629 16.418,-23.309 4.285,-5.836 7.516,-12 10.648,-18.428 0.824,-1.68 1.75,-3.201 2.77,-4.584 1.055,-1.352 2.266,-2.572 3.75,-3.66 1.808,-1.292 9.655,-12.53 10.937,-6.366 z"
     style="fill:#ffffff;fill-opacity:1;stroke:#000e00;stroke-width:1;stroke-miterlimit:9.16;stroke-dasharray:none;stroke-opacity:1" /><path
     id="path92"
     fill="#4daf4a"
     stroke="#d0c0a0"
     stroke-width="3"
     stroke-miterlimit="10"
     d="m 348.38719,650.93797 c 0,0 0,0 0,-0.031 0.238,-0.924 0.492,-2.275 1.082,-2.504 1.453,-0.592 2.25,4.385 2.02,5.441 -0.789,3.422 -4.945,3.422 -6.566,6.031 -0.863,1.352 -0.094,3.791 -1.117,4.916 -0.734,0.791 -3.039,0.66 -3.59,-0.332 -0.527,-0.955 -0.074,-3.428 -0.074,-4.553 0,-1.844 0.328,-2.207 1.754,-3.395 1.191,-1.025 2.387,-1.945 3.594,-2.869 0.916,-0.69 2.369,-1.647 2.897,-2.704 z"
     style="fill:#ffffff;fill-opacity:1;stroke:#000e00;stroke-width:1;stroke-miterlimit:9.16;stroke-dasharray:none;stroke-opacity:1" /><path
     id="path94"
     fill="#4daf4a"
     stroke="#d0c0a0"
     stroke-width="3"
     stroke-miterlimit="10"
     d="m 181.32819,920.89497 c 0.1,2.047 0.559,4.98 0.131,7.355 -0.164,0.918 -0.496,1.746 -0.988,2.438 -1.68,2.211 -5.412,3.793 -7.879,4.848 -4.252,1.781 -8.309,3.395 -12.205,6 -4.32,2.867 -7.748,6.527 -12.035,9.363 -2.408,1.617 -4.184,3.035 -6.232,5.082 -1.484,1.445 -3.66,1.559 -5.576,0.695 -3.623,-1.586 -5.867,-5.086 -8.736,-7.645 -1.646,-1.484 -2.412,-2.746 -2.248,-4.98 0.164,-1.715 0.594,-3.953 1.416,-5.504 0.857,-1.582 2.541,-2.473 3.957,-3.574 2.043,-1.582 3.951,-3.285 6.035,-4.766 2.604,-1.816 3.957,-4.25 5.604,-6.859 1.645,-2.637 2.504,-5.75 4.586,-8.086 1.879,-2.102 4.318,-3.75 6.496,-5.57 1.943,-1.648 4.25,-3.594 6.727,-4.391 3.332,-1.082 7.721,1.254 10.191,3.293 4.063,3.336 10.459,6.336 10.756,12.301 z"
     style="fill:#ffffff;fill-opacity:1;stroke:#000e00;stroke-width:1;stroke-miterlimit:9.16;stroke-dasharray:none;stroke-opacity:1" /><path
     id="path96"
     fill="#4daf4a"
     stroke="#d0c0a0"
     stroke-width="3"
     stroke-miterlimit="10"
     d="m 94.51919,882.35597 c 1.484,1.148 0.992,3.984 -0.496,4.781 -1.416,0.75 -3.424,1.082 -4.912,1.414 -1.885,0.422 -2.932,-0.035 -4.188,-1.453 -1.553,-1.715 -2.309,-3.527 -4.121,-5.043 -1.879,-1.551 -3.131,-2.605 -3.164,-5.145 0,-1.586 0.133,-2.867 1.912,-3.461 1.98,-0.625 4.516,-0.297 6.199,0.957 1.152,0.895 0.893,1.551 1.316,2.707 0.533,1.313 1.781,1.809 2.836,2.602 0.793,0.586 1.453,1.281 2.309,1.75 0.657,0.395 1.782,0.492 2.309,0.891 z"
     style="fill:#ffffff;fill-opacity:1;stroke:#000e00;stroke-width:1;stroke-miterlimit:9.16;stroke-dasharray:none;stroke-opacity:1" /><path
     id="path98"
     fill="#4daf4a"
     stroke="#d0c0a0"
     stroke-width="3"
     stroke-miterlimit="10"
     d="m 81.46319,891.55497 0.033,0.031 c -0.365,0.855 -1.189,1.617 -1.553,2.473 -0.332,0.891 -0.459,1.848 -0.824,2.703 -0.592,1.391 -1.389,3.297 -3.131,2.934 -1.648,-0.363 -2.086,-2.246 -3.168,-3.297 -1.221,-1.152 -4.156,-2.246 -4.648,-4.02 -0.365,-1.414 1.68,-2.836 2.307,-3.922 0.588,-1.023 0.461,-2.082 0.957,-3 0.396,-0.781 1.385,-1.719 2.043,-2.266 1.221,-0.988 2.572,-1.285 3.332,0.164 0.396,0.75 0.26,1.414 0.824,2.078 0.66,0.758 1.648,1.195 2.436,1.754 0.796,0.548 3.335,3.673 1.392,4.368 z"
     style="fill:#ffffff;fill-opacity:1;stroke:#000e00;stroke-width:1;stroke-miterlimit:9.16;stroke-dasharray:none;stroke-opacity:1" /><path
     id="path100"
     fill="#4daf4a"
     stroke="#d0c0a0"
     stroke-width="3"
     stroke-miterlimit="10"
     d="m 76.11919,928.97297 c 0.529,2.375 -1.813,3.066 -3.236,4.25 -0.496,0.398 -5.207,6.727 -5.539,6.727 -1.781,-0.984 -2.438,-3.297 -3.629,-4.813 -1.447,-1.813 -2.703,-3.727 -4.748,-4.934 -1.584,-0.957 -4.088,-2.254 -3.986,-4.32 0.063,-1.918 1.779,-1.754 2.967,-2.871 1.279,-1.254 2.145,-4.086 3.893,-4.754 1.68,-0.66 3,1.254 3.955,2.277 1.484,1.586 3.232,2.965 5.08,4.086 1.583,0.958 4.819,2.344 5.243,4.352 z"
     style="fill:#ffffff;fill-opacity:1;stroke:#000e00;stroke-width:1;stroke-miterlimit:9.16;stroke-dasharray:none;stroke-opacity:1" /></g>
</svg>
