<?xml version="1.0" encoding="UTF-8" standalone="no"?>
<svg
   xmlns:dc="http://purl.org/dc/elements/1.1/"
   xmlns:cc="http://creativecommons.org/ns#"
   xmlns:rdf="http://www.w3.org/1999/02/22-rdf-syntax-ns#"
   xmlns:svg="http://www.w3.org/2000/svg"
   xmlns="http://www.w3.org/2000/svg"
   xmlns:sodipodi="http://sodipodi.sourceforge.net/DTD/sodipodi-0.dtd"
   xmlns:inkscape="http://www.inkscape.org/namespaces/inkscape"
   id="svg13195"
   sodipodi:docname="10e4 - B Moon.svg"
   viewBox="0 0 347.84 347.94354"
   version="1.1"
   inkscape:version="1.0 (4035a4fb49, 2020-05-01)"
   width="347.84"
   height="347.94354">
  <defs
     id="defs13197">
    <filter
       id="filter6851"
       color-interpolation-filters="sRGB"
       inkscape:collect="always">
      <feGaussianBlur
         id="feGaussianBlur6853"
         stdDeviation="2.2880777"
         inkscape:collect="always" />
    </filter>
  </defs>
  <sodipodi:namedview
     id="base"
     bordercolor="#666666"
     inkscape:pageshadow="2"
     inkscape:window-y="-8"
     fit-margin-left="0"
     pagecolor="#ffffff"
     fit-margin-top="0"
     inkscape:window-maximized="1"
     inkscape:zoom="1.0603859"
     inkscape:window-x="-8"
     inkscape:window-height="705"
     showgrid="false"
     borderopacity="1.0"
     inkscape:current-layer="full moon"
     inkscape:cx="149.63711"
     inkscape:cy="159.62263"
     fit-margin-right="0"
     fit-margin-bottom="0"
     inkscape:window-width="1366"
     inkscape:pageopacity="0.0"
     inkscape:document-units="px"
     inkscape:document-rotation="0" />
  <g
     id="layer1"
     inkscape:label="Ebene 1"
     inkscape:groupmode="layer"
     transform="translate(-178.25874,-339.17885)">
    <g
       id="full moon"
       transform="matrix(0.31043083,0,0,0.31043083,164.79885,306.43179)">
      <rect
         id="rect6077"
         style="color:#000000;opacity:0;stroke-width:68"
         height="1100"
         width="1100"
         y="115.89846"
         x="53.65134" />
      <path
         transform="matrix(9.9999999,0,0,9.9999999,-390.22866,-949.40152)"
         inkscape:connector-curvature="0"
         style="fill:#cccccc;filter:url(#filter6851)"
         d="m 99.4,114.8294 c -1.6122,0 -3.2104,0.0897 -4.7812,0.25 -0.6936,0.0708 -1.3783,0.14928 -2.0625,0.25 -0.093,0.0136 -0.1886,0.0171 -0.2813,0.0312 -0.3989,0.0612 -0.792,0.1476 -1.1875,0.21875 -1.1333,0.20371 -2.2716,0.43483 -3.375,0.71875 -0.662,0.17034 -1.3184,0.36419 -1.9687,0.5625 -0.073,0.0224 -0.1457,0.0398 -0.2188,0.0625 -0.5115,0.15877 -0.9962,0.32429 -1.5,0.5 -0.2278,0.0794 -0.4612,0.16716 -0.6875,0.25 -0.5845,0.21427 -1.1767,0.41954 -1.75,0.65625 -0.2725,0.11249 -0.5425,0.22628 -0.8125,0.34375 -0.3257,0.14175 -0.6469,0.28859 -0.9687,0.4375 -0.3183,0.14728 -0.6232,0.31457 -0.9375,0.46875 -0.1548,0.0759 -0.3149,0.14115 -0.4688,0.21875 -0.4687,0.23643 -0.9155,0.4984 -1.375,0.75 -0.5572,0.30492 -1.113,0.6108 -1.6562,0.9375 -0.3629,0.21831 -0.7374,0.42844 -1.0938,0.65625 -0.252,0.16108 -0.5013,0.33424 -0.75,0.5 -0.3061,0.20404 -0.6052,0.41398 -0.9062,0.625 -0.2374,0.16637 -0.4534,0.3606 -0.6875,0.53125 -0.092,0.0669 -0.19,0.11992 -0.2813,0.1875 -0.061,0.0448 -0.1272,0.0799 -0.1875,0.125 -0.1598,0.11957 -0.3104,0.25344 -0.4687,0.375 -0.1898,0.14575 -0.375,0.28891 -0.5625,0.4375 -0.3952,0.31314 -0.8028,0.61199 -1.1875,0.9375 -0.011,0.009 -0.02,0.0218 -0.031,0.0312 -0.412,0.34935 -0.8191,0.69929 -1.2187,1.0625 -0.5371,0.48804 -1.0487,0.98771 -1.5625,1.5 -0.021,0.0207 -0.042,0.0418 -0.062,0.0625 -0.084,0.0837 -0.1669,0.16563 -0.25,0.25 -0.016,0.0208 -0.016,0.042 -0.031,0.0625 -0.072,0.0738 -0.1467,0.14446 -0.2187,0.21875 -0.031,0.0316 -0.063,0.0621 -0.094,0.0937 -0.1011,0.10498 -0.2123,0.20658 -0.3125,0.3125 -0.016,0.0231 -0.017,0.0406 -0.031,0.0625 -0.03,0.0323 -0.063,0.0614 -0.094,0.0937 -0.07,0.0748 -0.1491,0.14348 -0.2187,0.21875 -0.01,0.0109 -0.021,0.0204 -0.031,0.0312 -0.084,0.0912 -0.1665,0.18942 -0.25,0.28125 -0.2809,0.30967 -0.5711,0.62031 -0.8437,0.9375 -0.044,0.0508 -0.082,0.1053 -0.125,0.15625 -0.1589,0.18615 -0.3128,0.37384 -0.4688,0.5625 -0.057,0.069 -0.1,0.14946 -0.1562,0.21875 -0.046,0.0567 -0.1102,0.0993 -0.1563,0.15625 -0.042,0.0518 -0.083,0.10431 -0.125,0.15625 -0.101,0.12585 -0.2127,0.24809 -0.3125,0.375 -0.014,0.0179 -0.017,0.0446 -0.031,0.0625 -0.023,0.0297 -0.039,0.064 -0.062,0.0937 -0.027,0.0346 -0.067,0.059 -0.094,0.0937 -0.05,0.0644 -0.1066,0.12282 -0.1562,0.1875 -0.046,0.0594 -0.08,0.12784 -0.125,0.1875 -0.2067,0.2723 -0.4242,0.53557 -0.625,0.8125 -0.049,0.0678 -0.076,0.1507 -0.125,0.21875 -0.01,0.0118 -0.023,0.0195 -0.031,0.0312 -0.01,0.0117 -0.023,0.0195 -0.031,0.0312 -0.027,0.0375 -0.036,0.0874 -0.062,0.125 -0.039,0.0545 -0.087,0.10156 -0.125,0.15625 -0.043,0.0611 -0.082,0.12621 -0.125,0.1875 -0.068,0.097 -0.1519,0.18366 -0.2188,0.28125 -0.013,0.0189 -0.018,0.0436 -0.031,0.0625 -0.034,0.0503 -0.06,0.10578 -0.094,0.15625 -0.01,0.012 -0.023,0.0192 -0.031,0.0312 -0.029,0.0431 -0.065,0.0818 -0.094,0.125 -0.05,0.074 -0.107,0.14442 -0.1562,0.21875 -0.034,0.0512 -0.06,0.10485 -0.094,0.15625 -0.021,0.0314 -0.042,0.0623 -0.062,0.0937 v 0.0312 c -0.136,0.20838 -0.2735,0.41433 -0.4062,0.625 -0.013,0.0198 -0.019,0.0427 -0.031,0.0625 -0.01,0.0123 -0.024,0.019 -0.031,0.0312 -0.01,0.0122 -0.024,0.019 -0.031,0.0312 -0.053,0.0846 -0.1042,0.16504 -0.1562,0.25 v 0.0312 c -0.02,0.0323 -0.043,0.0614 -0.062,0.0937 -0.01,0.0124 -0.024,0.0188 -0.031,0.0312 -0.02,0.0323 -0.043,0.0614 -0.062,0.0937 -0.012,0.02 -0.019,0.0424 -0.031,0.0625 -0.019,0.0319 -0.043,0.0619 -0.062,0.0937 -0.031,0.0517 -0.063,0.10443 -0.094,0.15625 -0.016,0.0279 -0.015,0.0658 -0.031,0.0937 -0.05,0.0846 -0.1065,0.16503 -0.1563,0.25 -0.01,0.0122 -0.024,0.0191 -0.031,0.0312 -0.012,0.02 -0.02,0.0425 -0.031,0.0625 -0.09,0.15364 -0.1622,0.31401 -0.25,0.46875 -0.096,0.16955 -0.2183,0.32914 -0.3125,0.5 v 0.0312 c -0.034,0.0616 -0.06,0.12576 -0.094,0.1875 -0.063,0.11512 -0.1258,0.22805 -0.1875,0.34375 -0.079,0.14858 -0.1723,0.28797 -0.25,0.4375 -0.037,0.0709 -0.057,0.14768 -0.094,0.21875 -0.011,0.0208 -0.021,0.0417 -0.031,0.0625 -0.01,0.0129 -0.025,0.0184 -0.031,0.0312 -0.064,0.12502 -0.1248,0.24934 -0.1875,0.375 -0.031,0.0627 -0.063,0.12464 -0.094,0.1875 -0.031,0.0626 -0.063,0.12475 -0.094,0.1875 -0.031,0.0632 -0.063,0.1241 -0.094,0.1875 -0.03,0.0623 -0.064,0.1251 -0.094,0.1875 -0.018,0.0385 -0.013,0.0864 -0.031,0.125 -0.01,0.0208 -0.022,0.0417 -0.031,0.0625 -0.01,0.0129 -0.025,0.0184 -0.031,0.0312 v 0.0312 c -0.02,0.0417 -0.043,0.0832 -0.062,0.125 -0.096,0.20538 -0.1884,0.41801 -0.2813,0.625 -0.085,0.18859 -0.1678,0.37259 -0.25,0.5625 -0.041,0.0953 -0.084,0.18562 -0.125,0.28125 -0.01,0.0212 -0.022,0.0413 -0.031,0.0625 -0.01,0.0216 -0.022,0.0409 -0.031,0.0625 -0.013,0.0302 -0.019,0.0636 -0.031,0.0937 -0.013,0.03 -0.019,0.0637 -0.031,0.0937 -0.03,0.0729 -0.064,0.14568 -0.094,0.21875 -0.052,0.12643 -0.1055,0.24802 -0.1563,0.375 -0.092,0.22994 -0.1929,0.45577 -0.2812,0.6875 -0.023,0.0609 -0.04,0.12644 -0.062,0.1875 0,0.0128 -0.027,0.0185 -0.031,0.0312 -0.011,0.0302 -0.02,0.0635 -0.031,0.0937 -0.012,0.0309 -0.02,0.0628 -0.031,0.0937 -0.023,0.0616 -0.04,0.12577 -0.062,0.1875 -0.061,0.16621 -0.1285,0.33291 -0.1875,0.5 v 0.0312 c -0.036,0.10198 -0.059,0.2102 -0.094,0.3125 -0.011,0.0311 -0.021,0.0627 -0.031,0.0937 -0.01,0.0219 -0.024,0.0406 -0.031,0.0625 v 0.0312 c 0,0.0124 -0.027,0.0189 -0.031,0.0312 -0.032,0.0939 -0.062,0.18711 -0.094,0.28125 -0.021,0.0631 -0.042,0.12431 -0.062,0.1875 -0.013,0.0407 -0.018,0.0843 -0.031,0.125 -0.038,0.11635 -0.088,0.227 -0.125,0.34375 -0.016,0.0508 -0.015,0.10539 -0.031,0.15625 -0.02,0.0625 -0.043,0.12491 -0.062,0.1875 v 0.0312 c -0.01,0.0221 -0.025,0.0404 -0.031,0.0625 -0.026,0.086 -0.068,0.16382 -0.094,0.25 -0.028,0.0923 -0.036,0.18867 -0.062,0.28125 -0.088,0.30162 -0.1682,0.60214 -0.25,0.90625 -0.01,0.0316 -0.023,0.0621 -0.031,0.0937 -0.022,0.0842 -0.041,0.16562 -0.062,0.25 -0.025,0.0952 -0.07,0.18585 -0.094,0.28125 -0.013,0.0516 -0.018,0.10458 -0.031,0.15625 -0.047,0.18601 -0.081,0.37561 -0.125,0.5625 -0.024,0.10318 -0.039,0.20906 -0.062,0.3125 -0.046,0.19878 -0.1131,0.39401 -0.1562,0.59375 v 0.0312 c -0.01,0.0317 -0.024,0.062 -0.031,0.0937 -0.011,0.052 -0.02,0.10421 -0.031,0.15625 -0.015,0.0716 -0.017,0.14704 -0.031,0.21875 -0.025,0.12368 -0.038,0.25096 -0.062,0.375 v 0.0312 c -0.01,0.0321 -0.025,0.0617 -0.031,0.0937 -0.014,0.0726 -0.018,0.14606 -0.031,0.21875 v 0.0312 c -0.08,0.42803 -0.1813,0.84917 -0.25,1.2812 v 0.0312 c -0.012,0.073 -0.02,0.14563 -0.031,0.21875 v 0.0312 c -0.053,0.34762 -0.1109,0.68114 -0.1563,1.0312 v 0.0312 0.0312 c -0.051,0.39372 -0.1154,0.79077 -0.1562,1.1875 v 0.0625 c -0.022,0.21679 -0.043,0.4386 -0.062,0.65625 v 0.0625 c -0.1149,1.3356 -0.1875,2.6659 -0.1875,4.0312 0,9.0659 2.622,17.525 7.0937,24.688 0.017,0.027 0.014,0.0668 0.031,0.0937 0.02,0.0312 0.043,0.0626 0.062,0.0937 0.1855,0.29275 0.3707,0.58662 0.5625,0.875 0.2118,0.31997 0.4368,0.62312 0.6562,0.9375 0.01,0.0121 0.023,0.0192 0.031,0.0312 0.01,0.008 -0.01,0.0236 0,0.0312 0.035,0.0497 0.059,0.10666 0.094,0.15625 1.9844,2.8111 4.2702,5.3816 6.8125,7.6875 0.1685,0.15396 0.3288,0.31787 0.5,0.46875 -0.01,-0.007 0.01,-0.0238 0,-0.0312 0.1775,0.15646 0.3514,0.31496 0.5313,0.46875 0.011,0.007 0.02,0.0248 0.031,0.0312 0.079,0.0676 0.1704,0.12043 0.25,0.1875 0.023,0.019 0.04,0.0436 0.062,0.0625 0.1752,0.14691 0.3539,0.29313 0.5313,0.4375 0.051,0.0416 0.1049,0.0836 0.1562,0.125 0.029,0.0232 0.065,0.0393 0.094,0.0625 0.069,0.0555 0.118,0.13235 0.1875,0.1875 0.019,0.0132 0.043,0.0181 0.062,0.0312 0.052,0.0414 0.1038,0.0839 0.1562,0.125 0.2693,0.21138 0.5385,0.41946 0.8125,0.625 0.023,0.0174 0.039,0.0452 0.062,0.0625 0.03,0.0224 0.064,0.0402 0.094,0.0625 0.03,0.0227 0.063,0.0399 0.094,0.0625 0.042,0.031 0.083,0.0629 0.125,0.0937 0.012,0.009 0.019,0.0226 0.031,0.0312 0.4106,0.30134 0.8293,0.58691 1.25,0.875 0.1129,0.0772 0.2301,0.14249 0.3437,0.21875 0.074,0.0496 0.1446,0.10709 0.2188,0.15625 0.517,0.34313 1.0313,0.67719 1.5625,1 0.3004,0.18258 0.6014,0.35531 0.9062,0.53125 0.1919,0.11073 0.4002,0.20443 0.5938,0.3125 0.1787,0.0998 0.351,0.21498 0.5312,0.3125 0.1759,0.0951 0.354,0.18836 0.5313,0.28125 0.1149,0.0603 0.2283,0.12813 0.3437,0.1875 0.2701,0.13874 0.5394,0.27269 0.8125,0.40625 0.084,0.0412 0.1655,0.0843 0.25,0.125 0.01,0.004 0.023,-0.004 0.031,0 0.063,0.0303 0.1244,0.0637 0.1875,0.0937 0.021,0.01 0.041,0.0213 0.062,0.0312 0.01,0.004 0.023,-0.004 0.031,0 0.068,0.0319 0.1199,0.0934 0.1875,0.125 0.01,0.004 0.023,-0.004 0.031,0 0.1352,0.063 0.2703,0.12572 0.4062,0.1875 0.01,0.004 0.023,-0.004 0.031,0 0.021,0.01 0.041,0.0216 0.062,0.0312 0.021,0.01 0.041,0.0217 0.062,0.0312 0.021,0.01 0.041,0.0217 0.062,0.0312 0.2943,0.13184 0.5775,0.28036 0.875,0.40625 0.01,0.004 0.022,-0.004 0.031,0 0.021,0.009 0.041,0.0223 0.062,0.0312 0.1546,0.065 0.3133,0.12409 0.4688,0.1875 0.083,0.0338 0.1671,0.0605 0.25,0.0937 0.2513,0.10114 0.4965,0.21563 0.75,0.3125 0.2891,0.1102 0.5831,0.20788 0.875,0.3125 0.2526,0.0907 0.4954,0.19477 0.75,0.28125 0.01,0.003 0.022,-0.003 0.031,0 0.371,0.12576 0.7499,0.22713 1.125,0.34375 0.1261,0.0392 0.2485,0.0869 0.375,0.125 0.2086,0.0629 0.4152,0.12747 0.625,0.1875 0.326,0.0933 0.6399,0.19491 0.9688,0.28125 0.01,0.003 0.021,-0.003 0.031,0 0.064,0.0169 0.123,0.0459 0.1875,0.0625 0.2571,0.0662 0.5225,0.0943 0.7813,0.15625 0.1242,0.0297 0.2504,0.065 0.375,0.0937 0.022,0.005 0.041,0.0263 0.062,0.0312 0.1358,0.0311 0.27,0.0638 0.4062,0.0937 0.01,0.002 0.021,-0.002 0.031,0 0.2063,0.0452 0.4176,0.0826 0.625,0.125 0.5663,0.11582 1.1451,0.21734 1.7187,0.3125 0.3434,0.0568 0.6854,0.10696 1.0313,0.15625 0.1979,0.0283 0.3951,0.0679 0.5937,0.0937 0.083,0.0107 0.1672,0.021 0.25,0.0312 0.061,0.008 0.1262,-0.007 0.1875,0 1.8431,0.2211 3.7225,0.375 5.625,0.375 0.7406,0 1.4867,-0.0282 2.2188,-0.0625 0.062,-0.003 0.1255,0.003 0.1875,0 0.8052,-0.041 1.5811,-0.10601 2.375,-0.1875 0.2334,-0.0237 0.4551,-0.0666 0.6875,-0.0937 0.3582,-0.0418 0.7068,-0.0751 1.0625,-0.125 0.1888,-0.0266 0.3744,-0.0649 0.5625,-0.0937 0.083,-0.0127 0.1673,-0.0182 0.25,-0.0312 0.085,-0.0134 0.1648,-0.0486 0.25,-0.0625 0.02,-0.003 0.042,0.003 0.062,0 0.5432,-0.0902 1.0883,-0.17243 1.625,-0.28125 0.042,-0.008 0.083,-0.0226 0.125,-0.0312 0.085,-0.0174 0.1652,-0.0447 0.25,-0.0625 0.1028,-0.0215 0.2099,-0.0403 0.3125,-0.0625 0.1046,-0.0228 0.2082,-0.039 0.3125,-0.0625 0.1556,-0.0348 0.3137,-0.0573 0.4687,-0.0937 0.074,-0.0175 0.1448,-0.0447 0.2188,-0.0625 0.032,-0.008 0.062,-0.0235 0.094,-0.0312 0.6523,-0.1587 1.2963,-0.34548 1.9375,-0.53125 0.2109,-0.0612 0.4154,-0.12347 0.625,-0.1875 0.063,-0.0237 0.1222,-0.0382 0.1875,-0.0625 0.3674,-0.11391 0.7303,-0.22113 1.0938,-0.34375 0.021,-0.007 0.041,-0.024 0.062,-0.0312 0.3601,-0.12188 0.7376,-0.21338 1.0937,-0.34375 0.1992,-0.0728 0.3959,-0.14321 0.5938,-0.21875 0.043,-0.0165 0.082,-0.0458 0.125,-0.0625 0.1132,-0.0436 0.2309,-0.0805 0.3437,-0.125 0.1595,-0.0628 0.3102,-0.1542 0.4688,-0.21875 0.03,-0.0121 0.064,-0.0191 0.094,-0.0312 0.018,-0.007 0.045,0.007 0.062,0 0.025,-0.012 0.039,-0.0197 0.062,-0.0312 0.1029,-0.0424 0.2099,-0.0823 0.3125,-0.125 0.021,-0.009 0.041,-0.0223 0.062,-0.0312 0.2974,-0.12575 0.5809,-0.27455 0.875,-0.40625 0.3967,-0.1776 0.7968,-0.343 1.1875,-0.53125 0.2324,-0.11198 0.4573,-0.22805 0.6875,-0.34375 0.2067,-0.10396 0.4201,-0.20557 0.625,-0.3125 0.1495,-0.078 0.289,-0.17046 0.4375,-0.25 0.041,-0.0221 0.084,-0.0403 0.125,-0.0625 0.041,-0.0221 0.084,-0.0403 0.125,-0.0625 0.033,-0.0178 0.061,-0.0446 0.094,-0.0625 0.041,-0.0222 0.084,-0.0402 0.125,-0.0625 0.041,-0.0223 0.084,-0.04 0.125,-0.0625 0.073,-0.0405 0.1458,-0.0841 0.2187,-0.125 0.2389,-0.13405 0.4825,-0.26814 0.7188,-0.40625 0.02,-0.0117 0.042,-0.0195 0.062,-0.0312 0.052,-0.0305 0.1043,-0.063 0.1562,-0.0937 0.1577,-0.0933 0.3123,-0.18612 0.4688,-0.28125 0.2338,-0.14209 0.4563,-0.29144 0.6875,-0.4375 0.063,-0.0401 0.1242,-0.0846 0.1875,-0.125 0.2744,-0.17531 0.542,-0.3504 0.8125,-0.53125 0.063,-0.042 0.1249,-0.0827 0.1875,-0.125 0.05,-0.034 0.1061,-0.0596 0.1562,-0.0937 0.063,-0.0431 0.1245,-0.0816 0.1875,-0.125 0.3744,-0.25748 0.7274,-0.51325 1.0938,-0.78125 0.012,-0.008 0.02,-0.0228 0.031,-0.0312 0.019,-0.0137 0.044,-0.0175 0.062,-0.0312 0.019,-0.0137 0.044,-0.0176 0.062,-0.0312 0.012,-0.009 0.02,-0.0226 0.031,-0.0312 0.012,-0.009 0.02,-0.0227 0.031,-0.0312 0.012,-0.01 0.019,-0.0216 0.031,-0.0312 0.018,-0.0137 0.044,-0.0175 0.062,-0.0312 0.012,-0.009 0.02,-0.0226 0.031,-0.0312 0.018,-0.0135 0.044,-0.0177 0.062,-0.0312 0.012,-0.009 0.02,-0.0225 0.031,-0.0312 0.041,-0.0309 0.084,-0.0627 0.125,-0.0937 0.094,-0.0711 0.1875,-0.14691 0.2812,-0.21875 0.1497,-0.11476 0.2892,-0.22723 0.4375,-0.34375 0.093,-0.0732 0.1887,-0.14489 0.2813,-0.21875 0.1937,-0.15464 0.4026,-0.31111 0.5937,-0.46875 0.096,-0.0793 0.1857,-0.16995 0.2813,-0.25 0.011,-0.01 0.02,-0.0217 0.031,-0.0312 0.018,-0.0148 0.045,-0.0164 0.062,-0.0312 0.023,-0.019 0.04,-0.0435 0.062,-0.0625 0.034,-0.0287 0.06,-0.0649 0.094,-0.0937 0.074,-0.0627 0.1453,-0.1243 0.2187,-0.1875 0.039,-0.034 0.055,-0.091 0.094,-0.125 0.023,-0.0198 0.071,-0.0114 0.094,-0.0312 0.2133,-0.18548 0.4152,-0.37323 0.625,-0.5625 0.049,-0.044 0.1076,-0.0808 0.1563,-0.125 0.022,-0.0197 0.041,-0.0427 0.062,-0.0625 0.016,-0.0151 0.046,-0.0161 0.062,-0.0312 0.065,-0.0599 0.1224,-0.12728 0.1875,-0.1875 0.1888,-0.17493 0.3765,-0.35325 0.5625,-0.53125 0.075,-0.0715 0.1445,-0.14676 0.2187,-0.21875 0.021,-0.0205 0.041,-0.0419 0.062,-0.0625 0.016,-0.0156 0.046,-0.0156 0.062,-0.0312 0.053,-0.0516 0.1036,-0.1044 0.1563,-0.15625 0.074,-0.0726 0.1455,-0.14568 0.2187,-0.21875 0.01,-0.0104 0.021,-0.0208 0.031,-0.0312 0.1725,-0.17255 0.3301,-0.35603 0.5,-0.53125 0.02,-0.0212 0.042,-0.0412 0.062,-0.0625 0.02,-0.0211 0.042,-0.0413 0.062,-0.0625 0.041,-0.0426 0.084,-0.0822 0.125,-0.125 0.1284,-0.13449 0.2482,-0.27023 0.375,-0.40625 0.02,-0.0215 0.042,-0.041 0.062,-0.0625 0.1158,-0.12467 0.2293,-0.24906 0.3437,-0.375 0.03,-0.0327 0.064,-0.061 0.094,-0.0937 0.035,-0.0391 0.058,-0.0858 0.094,-0.125 0.044,-0.0493 0.081,-0.10672 0.125,-0.15625 0.029,-0.033 0.064,-0.0607 0.094,-0.0937 0.049,-0.0551 0.1077,-0.10089 0.1562,-0.15625 0.063,-0.072 0.1248,-0.14636 0.1875,-0.21875 0.01,-0.0113 0.022,-0.02 0.031,-0.0312 0.053,-0.0617 0.1033,-0.12555 0.1562,-0.1875 0.01,-0.0111 0.022,-0.0201 0.031,-0.0312 0.053,-0.062 0.1036,-0.12522 0.1562,-0.1875 0.038,-0.0446 0.088,-0.0803 0.125,-0.125 0.076,-0.0902 0.1438,-0.19042 0.2188,-0.28125 0.1269,-0.15378 0.25,-0.31333 0.375,-0.46875 0.097,-0.1206 0.1855,-0.25342 0.2812,-0.375 0.036,-0.0456 0.089,-0.0792 0.125,-0.125 0.047,-0.06 0.078,-0.12721 0.125,-0.1875 0.159,-0.20533 0.3132,-0.41696 0.4688,-0.625 0.017,-0.0234 0.045,-0.0391 0.062,-0.0625 0.067,-0.0901 0.121,-0.19063 0.1875,-0.28125 0.026,-0.0354 0.068,-0.0582 0.094,-0.0937 0.1188,-0.1629 0.2271,-0.33551 0.3438,-0.5 0.01,-0.0119 0.023,-0.0193 0.031,-0.0312 0.1033,-0.14583 0.2109,-0.29044 0.3125,-0.4375 v -0.0312 c 0.01,-0.0114 0.023,-0.0199 0.031,-0.0312 0.03,-0.0431 0.064,-0.0818 0.094,-0.125 0.01,-0.0117 0.023,-0.0195 0.031,-0.0312 0.013,-0.0191 0.018,-0.0434 0.031,-0.0625 0.029,-0.0428 0.065,-0.0821 0.094,-0.125 0.059,-0.0881 0.097,-0.19268 0.1562,-0.28125 0.1165,-0.17484 0.2296,-0.35476 0.3438,-0.53125 0.015,-0.024 0.047,-0.0384 0.062,-0.0625 0.048,-0.0752 0.1083,-0.14328 0.1562,-0.21875 0.012,-0.0194 0.019,-0.043 0.031,-0.0625 0.012,-0.0195 0.019,-0.043 0.031,-0.0625 0.012,-0.0195 0.019,-0.043 0.031,-0.0625 0.053,-0.0835 0.1042,-0.16618 0.1562,-0.25 0.01,-0.0122 0.024,-0.0191 0.031,-0.0312 0.02,-0.0317 0.043,-0.062 0.062,-0.0937 0.012,-0.02 0.019,-0.0425 0.031,-0.0625 0.01,-0.0122 0.024,-0.019 0.031,-0.0312 0.019,-0.0319 0.043,-0.0618 0.062,-0.0937 0.012,-0.0197 0.019,-0.0428 0.031,-0.0625 0.012,-0.02 0.019,-0.0425 0.031,-0.0625 0.075,-0.12385 0.1449,-0.2504 0.2187,-0.375 0.012,-0.02 0.02,-0.0425 0.031,-0.0625 0.012,-0.0197 0.02,-0.0428 0.031,-0.0625 0.015,-0.0247 0.048,-0.0378 0.062,-0.0625 v -0.0312 c 0.014,-0.0247 0.048,-0.0377 0.062,-0.0625 0.035,-0.0606 0.059,-0.12669 0.094,-0.1875 0.126,-0.21856 0.2524,-0.43548 0.375,-0.65625 0.07,-0.12566 0.15,-0.24863 0.2187,-0.375 0.011,-0.0203 0.02,-0.0422 0.031,-0.0625 v -0.0312 c 0.018,-0.0325 0.045,-0.0612 0.062,-0.0937 v -0.0312 c 0.1067,-0.19876 0.2085,-0.39327 0.3125,-0.59375 0.011,-0.0204 0.021,-0.042 0.031,-0.0625 0.1083,-0.20962 0.2386,-0.41354 0.3438,-0.625 0.045,-0.0913 0.08,-0.18967 0.125,-0.28125 0.041,-0.0848 0.084,-0.16491 0.125,-0.25 0.01,-0.021 0.021,-0.0415 0.031,-0.0625 0.01,-0.021 0.021,-0.0415 0.031,-0.0625 0.03,-0.0627 0.064,-0.12466 0.094,-0.1875 0.068,-0.14364 0.1211,-0.29307 0.1875,-0.4375 0.043,-0.0928 0.083,-0.18808 0.125,-0.28125 0.1745,-0.3861 0.3671,-0.76463 0.5313,-1.1562 0.1032,-0.24623 0.1821,-0.50165 0.2812,-0.75 0.1082,-0.27089 0.2093,-0.53914 0.3125,-0.8125 0.024,-0.0621 0.039,-0.12524 0.062,-0.1875 0.01,-0.0218 0.023,-0.0407 0.031,-0.0625 0.023,-0.0622 0.04,-0.12517 0.062,-0.1875 0.031,-0.0836 0.064,-0.16616 0.094,-0.25 0.06,-0.16607 0.1297,-0.33306 0.1875,-0.5 0.014,-0.0405 0.017,-0.0844 0.031,-0.125 0.026,-0.0745 0.068,-0.14409 0.094,-0.21875 0.028,-0.0841 0.066,-0.16573 0.094,-0.25 0.04,-0.1216 0.054,-0.25296 0.094,-0.375 0.047,-0.14649 0.1105,-0.29038 0.1563,-0.4375 0.025,-0.0816 0.037,-0.16818 0.062,-0.25 0.016,-0.0533 0.046,-0.10282 0.062,-0.15625 0.022,-0.0724 0.041,-0.14617 0.062,-0.21875 v -0.0937 c 0,-0.0123 0.028,-0.0189 0.031,-0.0312 0.045,-0.15169 0.082,-0.28508 0.125,-0.4375 0.01,-0.0217 0.025,-0.0407 0.031,-0.0625 0.09,-0.32281 0.1662,-0.64314 0.25,-0.96875 0.01,-0.0318 0.023,-0.062 0.031,-0.0937 0.011,-0.0416 0.021,-0.0833 0.031,-0.125 0.049,-0.19621 0.078,-0.39656 0.125,-0.59375 v -0.0312 c 0.01,-0.0224 0.026,-0.0401 0.031,-0.0625 0.01,-0.032 0.024,-0.0617 0.031,-0.0937 0.051,-0.21953 0.108,-0.43554 0.1562,-0.65625 v -0.0312 c 0.014,-0.0621 0.018,-0.12534 0.031,-0.1875 0.027,-0.12576 0.068,-0.24887 0.094,-0.375 0.052,-0.25596 0.077,-0.52378 0.125,-0.78125 0.01,-0.0517 0.022,-0.1045 0.031,-0.15625 0.01,-0.0319 0.025,-0.0619 0.031,-0.0937 v -0.0312 c 0.044,-0.24539 0.084,-0.50329 0.125,-0.75 v -0.0312 c 0.01,-0.0321 0.026,-0.0617 0.031,-0.0937 0.02,-0.12396 0.043,-0.25073 0.062,-0.375 v -0.0937 c 0,-0.0225 0.028,-0.04 0.031,-0.0625 v -0.0312 c 0.01,-0.0519 0.024,-0.10425 0.031,-0.15625 v -0.0625 c 0.03,-0.20674 0.035,-0.41739 0.062,-0.625 0.1141,-0.87583 0.2164,-1.7658 0.2812,-2.6562 8e-4,-0.0102 -7e-4,-0.021 0,-0.0312 8e-4,-0.0103 -7e-4,-0.0209 0,-0.0312 v -0.1875 -0.0625 -0.0625 c 0,-0.0423 0.029,-0.0827 0.031,-0.125 v -0.0937 c 0.01,-0.14617 0.024,-0.29097 0.031,-0.4375 v -0.125 c 0.01,-0.13417 -0.01,-0.27178 0,-0.40625 4e-4,-0.01 -3e-4,-0.0216 0,-0.0312 8e-4,-0.021 0.031,-0.0415 0.031,-0.0625 8e-4,-0.0207 -8e-4,-0.0418 0,-0.0625 0.02,-0.56565 0.031,-1.1481 0.031,-1.7188 0,-0.60589 -0.01,-1.2122 -0.031,-1.8125 -4e-4,-0.0105 4e-4,-0.0207 0,-0.0312 v -0.0937 c 0,-0.0428 -0.029,-0.0822 -0.031,-0.125 v -0.25 -0.0937 c -0.01,-0.10629 -0.025,-0.2064 -0.031,-0.3125 v -0.0625 -0.0937 c -0.013,-0.20929 -0.016,-0.41646 -0.031,-0.625 v -0.15625 c -0.01,-0.0733 -0.025,-0.14559 -0.031,-0.21875 -0.015,-0.17909 -0.046,-0.35273 -0.062,-0.53125 -0.011,-0.11392 -0.02,-0.23007 -0.031,-0.34375 0,-0.0103 0,-0.0209 0,-0.0312 -0.02,-0.19882 -0.04,-0.39567 -0.062,-0.59375 -0.023,-0.19785 -0.037,-0.39665 -0.062,-0.59375 -0.019,-0.14637 -0.043,-0.29155 -0.062,-0.4375 -0.031,-0.22908 -0.059,-0.45949 -0.094,-0.6875 v -0.0625 c 0,-0.0119 -0.029,-0.0194 -0.031,-0.0312 v -0.0625 c -0.02,-0.12619 -0.042,-0.24914 -0.062,-0.375 -0.022,-0.13478 -0.039,-0.27186 -0.062,-0.40625 -0.049,-0.2806 -0.1025,-0.56489 -0.1562,-0.84375 -0.01,-0.0421 -0.023,-0.0829 -0.031,-0.125 -0.092,-0.47329 -0.2058,-0.93819 -0.3125,-1.4062 -0.014,-0.0614 -0.017,-0.12622 -0.031,-0.1875 v -0.0312 c -0.01,-0.0419 -0.021,-0.0831 -0.031,-0.125 -0.01,-0.0419 -0.021,-0.0831 -0.031,-0.125 -0.041,-0.16984 -0.083,-0.33089 -0.125,-0.5 v -0.0312 c -0.021,-0.0837 -0.041,-0.16645 -0.062,-0.25 -0.054,-0.20842 -0.1,-0.41772 -0.1563,-0.625 -0.014,-0.0533 -0.048,-0.10304 -0.062,-0.15625 -0.032,-0.11457 -0.061,-0.22954 -0.094,-0.34375 -0.038,-0.13175 -0.055,-0.27498 -0.094,-0.40625 -0.049,-0.16766 -0.1051,-0.33314 -0.1562,-0.5 -0.029,-0.0944 -0.064,-0.18707 -0.094,-0.28125 -0.017,-0.0541 -0.045,-0.1022 -0.062,-0.15625 -0.04,-0.12532 -0.084,-0.25015 -0.125,-0.375 v -0.0312 c -0.1662,-0.50762 -0.3482,-1.0002 -0.5312,-1.5 -0.1457,-0.39785 -0.2815,-0.79481 -0.4375,-1.1875 -0.126,-0.31735 -0.2423,-0.62361 -0.375,-0.9375 -0.088,-0.20865 -0.1901,-0.41791 -0.2813,-0.625 -0.2154,-0.48905 -0.4247,-0.98865 -0.6562,-1.4688 -0.016,-0.0339 -0.046,-0.0599 -0.062,-0.0937 -0.3109,-0.64057 -0.6299,-1.2824 -0.9688,-1.9062 -0.1996,-0.36762 -0.4158,-0.73217 -0.625,-1.0938 -0.1676,-0.28931 -0.3264,-0.58965 -0.5,-0.875 -0.1224,-0.20156 -0.2496,-0.3942 -0.375,-0.59375 -0.2736,-0.43513 -0.5563,-0.85592 -0.8437,-1.2812 -5.2987,-7.8447 -12.92,-13.971 -21.875,-17.437 -0.087,-0.0335 -0.1631,-0.0919 -0.25,-0.125 -0.1771,-0.0676 -0.3532,-0.12202 -0.5313,-0.1875 -0.3056,-0.11192 -0.6289,-0.20682 -0.9375,-0.3125 -0.022,-0.007 -0.041,-0.0239 -0.062,-0.0312 -0.1327,-0.0452 -0.2729,-0.0809 -0.4062,-0.125 -0.2594,-0.086 -0.5199,-0.1997 -0.7813,-0.28125 -0.2069,-0.0644 -0.4168,-0.12594 -0.625,-0.1875 -0.5466,-0.16166 -1.1015,-0.29551 -1.6562,-0.4375 -0.032,-0.008 -0.062,-0.0232 -0.094,-0.0312 -0.022,-0.006 -0.041,-0.0257 -0.062,-0.0312 -1.4312,-0.36083 -2.8634,-0.64977 -4.3437,-0.875 -0.7729,-0.11812 -1.5276,-0.20152 -2.3125,-0.28125 -1.5698,-0.15945 -3.1694,-0.25 -4.7813,-0.25 z"
         id="path6789" />
      <path
         id="path6735"
         style="fill:#cccccc;stroke-width:2.3687"
         inkscape:connector-curvature="0"
         d="m 604.2216,198.91207 c -257.90406,0 -467.01289,209.1088 -467.01289,467.01289 0,257.904 209.10883,466.91814 467.01289,466.91814 257.90403,0 466.9181,-209.03544 466.9181,-466.91814 0,-257.90409 -209.03537,-467.01289 -466.9181,-467.01289 z" />
      <path
         id="path6733"
         style="fill:#b0b0b0;stroke-width:2.3687"
         inkscape:connector-curvature="0"
         d="m 604.2216,198.91207 c -33.29208,0 -65.79775,3.5182 -97.1167,10.1409 18.36264,-3.6886 37.24307,-5.6177 65.73142,-7.3283 52.04741,-3.1253 84.77811,-1.2519 121.39591,6.958 28.9336,6.4872 50.4106,13.6741 42.0444,14.0642 -4.7772,0.223 -5.3751,2.7673 -1.4804,6.6619 2.0349,2.0351 1.9487,4.6169 -0.37,10.2151 -2.5939,6.2623 -2.5079,7.7736 0.296,9.5487 4.822,3.0525 1.0323,2.637 -6.2178,-0.666 -4.7353,-2.1576 -6.6099,-2.1203 -7.9202,0 -1.1498,1.8604 -5.8415,-0.984 -14.2864,-8.5866 -10.4178,-9.3791 -15.9859,-12.3144 -31.904,-16.7289 -22.2528,-6.1714 -24.0944,-6.2737 -42.3405,-3.8491 -11.4941,1.5272 -13.62,1.1695 -13.62,-1.9246 0,-2.0165 2.2081,-4.3319 4.8854,-5.1815 8.3314,-2.6442 3.5853,-6.9986 -8.4385,-7.7722 -8.50623,-0.547 -12.01214,0.22 -13.54588,2.9609 -1.5027,2.6849 -5.80805,3.701 -15.69263,3.701 -15.11752,0 -20.44094,3.0379 -16.87699,9.697 1.4937,2.7913 1.43354,4.7505 -0.2227,5.7737 -3.69185,2.2818 -14.57721,-1.0437 -17.76525,-5.4034 -3.93133,-5.3765 -11.30343,-2.1568 -9.32675,4.0713 1.25801,3.9638 0.4555,4.8113 -4.95935,4.8113 -3.56845,0 -13.02951,2.5326 -20.94831,5.6995 -8.99798,3.5988 -24.13232,6.8191 -40.41476,8.5866 -17.9808,1.9517 -28.06673,4.2634 -32.4962,7.3283 -3.53007,2.4426 -7.86503,4.4413 -9.62308,4.4413 -1.75781,0 -5.24335,1.5663 -7.77217,3.4791 -2.52883,1.9128 -8.02848,3.5116 -12.2135,3.5531 -10.2496,0.101 -32.31617,8.5543 -40.71321,15.6187 -3.75036,3.1558 -8.43968,5.7737 -10.43697,5.7737 -1.99728,0 -5.61997,2.3917 -7.99436,5.3296 -5.22227,6.4613 -15.94348,13.62 -20.43004,13.62 -1.79808,0 -5.19219,2.1318 -7.55023,4.7374 -2.35804,2.6056 -5.5058,4.7374 -6.95805,4.7374 -1.45225,0 -9.01196,4.7362 -16.80309,10.5853 -22.21533,16.6773 -27.2661,14.0835 -8.80848,-4.5153 37.86604,-38.155 104.93578,-77.1343 167.58552,-97.4127 9.823,-3.1793 18.42872,-5.7991 26.57445,-7.9944 -201.42241,51.8248 -350.28336,234.6742 -350.28336,452.27959 0,257.904 209.10884,466.91814 467.01289,466.91814 257.9041,0 466.91817,-209.03544 466.91817,-466.91814 0,-257.90409 -209.03537,-467.01289 -466.91817,-467.01289 z m 140.49233,24.1323 c 0.662,0.01 1.9639,0.413 3.9972,1.0363 14.0315,4.3018 21.6385,8.4361 20.652,11.2513 -0.582,1.6622 -3.8286,2.6766 -7.3281,2.2947 -3.4675,-0.378 -8.1805,0.366 -10.4372,1.6285 -3.4599,1.9363 -2.3983,3.0059 6.5881,6.8839 12.4828,5.3871 20.1076,12.9956 18.1355,18.1352 -1.9677,5.1273 -8.0205,4.5861 -11.0294,-1.0363 -1.3945,-2.6055 -4.9582,-4.7374 -7.9202,-4.7374 -9.4625,0 -18.2513,-10.8394 -13.0279,-16.0626 1.6074,-1.6075 1.5311,-2.9419 -0.296,-4.0713 -1.8857,-1.1654 -1.433,-2.6072 1.4805,-4.7374 3.7091,-2.7122 3.7842,-3.586 0.74,-7.2542 -1.9776,-2.3829 -2.6586,-3.3458 -1.5543,-3.3308 z m 33.754,11.9915 c 1.2826,-0.02 4.2672,1.1157 8.1424,3.3309 3.7956,2.1698 4.5874,3.3512 2.2206,3.405 -2.0309,0.05 -5.7616,-1.4182 -8.2904,-3.3309 -2.9441,-2.2268 -3.3553,-3.3891 -2.0726,-3.405 z m 18.8015,9.6229 c 0.695,0.04 1.8931,0.323 3.5531,0.814 10.3777,3.068 19.1391,8.3904 17.6911,10.7331 -0.771,1.2473 -1.6017,2.2215 -1.8504,2.1466 -2.7148,-0.816 -17.1982,-9.831 -19.1718,-11.9174 -1.2059,-1.2751 -1.3803,-1.8443 -0.223,-1.7765 z m -66.6197,9.993 c 0.85,0.04 1.4805,0.993 1.4805,2.5168 0,2.0311 -1.0659,3.7011 -2.3687,3.7011 -1.3028,0 -2.3687,-0.995 -2.3687,-2.2207 0,-1.2259 1.0659,-2.8959 2.3687,-3.7011 0.326,-0.201 0.605,-0.309 0.888,-0.296 z m 114.2898,13.6201 c 2.5153,-0.182 14.659,6.4741 16.2848,9.1048 0.811,1.3121 1.1429,2.3234 0.74,2.2206 -10.6246,-2.7143 -19.8952,-8.6772 -17.3953,-11.1774 0.08,-0.08 0.204,-0.136 0.37,-0.148 z m -61.8823,1.9245 8.8827,6.3659 c 4.8854,3.4901 8.8826,7.2698 8.8826,8.3644 0,3.1001 -10.4664,2.3323 -15.1746,-1.1104 -2.4637,-1.8015 -3.8807,-5.3115 -3.4048,-8.3643 l 0.814,-5.2557 z m 29.3861,0.148 c 4.353,0 12.0655,4.5839 12.0655,7.18 0,3.9235 -6.1748,2.5125 -10.6592,-2.4426 -2.6851,-2.967 -3.2174,-4.7374 -1.4063,-4.7374 z m -296.30066,0.222 c 2.22895,-0.168 5.7441,1.4039 12.13959,4.7374 8.15378,4.25 9.17777,5.6037 7.1061,9.4748 -1.32931,2.4841 -4.86223,4.5152 -7.84632,4.5152 -6.78466,0 -16.79242,-10.3344 -14.87851,-15.3226 0.8129,-2.118 1.74549,-3.274 3.47914,-3.405 z m 329.39146,7.8464 c 2.0219,-0.124 5.0498,2.9142 13.0278,10.9552 7.0441,7.0997 15.0173,14.819 17.7653,17.0992 2.7479,2.2798 5.0335,6.7389 5.0335,9.9189 0,3.18 1.073,6.4533 2.3687,7.2541 5.66,3.4981 6.7129,9.7221 2.9608,17.4692 -2.9061,6.0006 -3.21,8.8959 -1.1843,12.1396 5.2613,8.425 -4.6344,9.9762 -11.3255,1.7765 -3.9552,-4.8473 -4.4539,-4.9544 -5.9217,-1.1843 -0.888,2.2798 -3.1776,4.1452 -5.0335,4.1452 -1.8557,0 -3.9875,1.5989 -4.7374,3.553 -1.922,5.0089 -5.5515,4.4278 -5.5515,-0.888 0,-7.1151 -5.5189,-10.2996 -10.8811,-6.2918 -4.2625,3.1855 -4.2957,3.7651 -0.74,10.1409 3.5772,6.4147 3.5206,7.1826 -1.2583,13.1759 -5.8622,7.352 -6.8206,7.6163 -10.8071,2.8128 -3.5169,-4.2376 -9.8178,-4.6166 -13.6201,-0.814 -2.0768,2.0771 -3.6039,2.0339 -6.1437,-0.07 -1.8445,-1.5306 -4.9723,-2.1684 -6.9583,-1.4064 -5.9388,2.279 -15.9145,-12.9829 -15.9145,-24.3526 0,-8.4556 0.574,-9.5272 4.7374,-8.4385 5.9279,1.5501 6.3159,-3.5436 0.592,-7.7722 -3.2444,-2.3971 -3.5713,-3.6509 -1.3324,-5.9218 2.2569,-2.2892 3.6502,-2.3026 6.514,0.07 3.0508,2.5319 3.9981,2.1159 5.7737,-2.5909 2.2505,-5.9658 0.465,-11.2052 -5.4777,-16.1368 -3.2396,-2.6887 -3.0305,-3.5204 1.9988,-7.4761 3.1233,-2.457 6.9222,-4.4413 8.4382,-4.4413 1.5162,0 4.3378,-1.5989 6.292,-3.5531 5.0782,-5.0784 6.2503,-4.5647 11.5474,5.1816 5.2552,9.669 7.7393,11.2139 12.9537,7.9204 2.9329,-1.8524 2.2358,-3.5575 -4.1452,-10.1408 -4.9608,-5.1183 -7.6241,-10.3404 -7.6241,-14.6564 0,-6.5378 0.09,-6.5381 5.7737,-2.8128 5.4799,3.5905 6.0439,3.4917 9.4748,-1.4064 1.3579,-1.9388 2.1917,-3.1826 3.405,-3.257 z m -297.41401,6.5878 c 0.4882,0.06 1.22273,0.557 2.07262,1.4064 1.54178,1.5416 2.22752,3.324 1.55434,3.9972 -1.58064,1.5808 -4.36717,-1.2056 -4.36717,-4.3674 0,-0.742 0.252,-1.0982 0.7402,-1.0363 z m 75.65151,2.3687 c 2.1148,-0.09 4.3487,0.416 6.2179,1.6285 1.7954,1.1646 2.5236,3.2889 1.6285,4.7374 -0.895,1.4484 -4.8076,2.6647 -8.7346,2.6647 -5.5219,0 -6.977,-0.939 -6.3659,-4.1452 0.553,-2.9021 3.7295,-4.7307 7.2541,-4.8854 z m -174.3955,1.9986 c 2.16333,-0.233 3.25696,0.44 3.25696,1.9986 0,3.1056 -5.92151,4.8435 -9.32676,2.7387 -2.19436,-1.3562 -1.90372,-2.2028 1.03631,-3.3309 2.04964,-0.786 3.73544,-1.2667 5.03349,-1.4064 z m 108.66411,7.0322 c 1.95418,0 3.55305,1.5277 3.55305,3.405 0,3.9571 -3.41519,6.5779 -5.62566,4.3674 -2.83107,-2.8311 -1.49513,-7.7722 2.07261,-7.7722 z m 287.20489,2.5167 c -0.713,0.237 -0.833,1.6742 -0.147,4.2933 0.643,2.4585 0.03,5.1557 -1.3324,5.9956 -1.3594,0.84 -1.8118,3.1606 -1.0363,5.1816 1.2187,3.1759 2.0002,3.1075 5.9957,-0.888 4.019,-4.019 4.2217,-5.3075 1.4804,-9.697 -2.1953,-3.5156 -4.0422,-5.1905 -4.9593,-4.8854 z m -234.1318,14.0642 c 0.631,-0.05 1.4404,0.473 2.5906,1.5544 3.8423,3.6132 1.2981,10.2892 -3.9232,10.2892 -2.21808,0 -5.98194,1.767 -8.36438,3.923 -4.07061,3.6838 -4.29327,3.5936 -4.29327,-1.2583 0,-3.2677 2.03519,-5.963 5.62566,-7.3283 3.12029,-1.1864 6.18491,-3.5429 6.81001,-5.2557 0.4389,-1.2023 0.9229,-1.8767 1.55458,-1.9246 z m 297.0587,3.3308 c 1.5598,-0.178 8.3591,4.5124 15.7665,10.9553 10.9602,9.5328 14.1772,13.8289 13.62,17.9874 -1.0453,7.8061 -2.2744,8.1862 -8.8826,3.1089 -4.9972,-3.8396 -5.1671,-4.5446 -1.4804,-4.5893 5.8379,-0.07 3.6191,-5.7437 -2.5907,-6.662 -2.8211,-0.417 -6.1006,-3.7364 -7.7724,-7.7722 -1.601,-3.8652 -4.6377,-8.0045 -6.7359,-9.1787 -2.0982,-1.1742 -3.1186,-2.8773 -2.2206,-3.7752 0.06,-0.06 0.192,-0.06 0.296,-0.07 z m -88.1607,3.9972 c -0.695,-0.1 -1.3319,0.07 -1.8504,0.592 -0.726,0.726 -0.697,2.949 0.07,4.9596 1.7704,4.6133 6.292,4.8411 6.292,0.296 0,-2.8295 -2.4315,-5.5565 -4.5154,-5.8479 z m 32.9392,4.5152 c -1.3028,0 -2.3687,2.203 -2.3687,4.8855 0,2.6824 1.0659,4.2101 2.3687,3.405 1.3028,-0.805 2.3687,-3.0083 2.3687,-4.8855 0,-1.8773 -1.0659,-3.405 -2.3687,-3.405 z m 54.7762,11.8435 c 3.2377,0 8.9991,7.1033 9.1045,11.2514 0.08,3.0532 -0.583,3.1724 -7.6241,1.3323 -4.6043,-1.2032 -5.9464,-12.5837 -1.4804,-12.5837 z m -36.4922,0.592 c -0.974,0.253 -1.7024,1.1702 -1.7024,2.7387 0,2.0627 1.7123,3.7752 3.775,3.7752 2.0629,0 3.3287,-1.2657 2.813,-2.8128 -0.915,-2.7451 -3.2628,-4.123 -4.8856,-3.7011 z m 77.5749,15.9887 c 0.606,0 2.2327,2.1319 3.6272,4.7374 2.0236,3.7812 1.7921,4.7374 -1.1102,4.7374 -2.0575,0 -3.6272,-2.0572 -3.6272,-4.7374 0,-2.6055 0.505,-4.7374 1.1102,-4.7374 z m -123.3951,3.257 c -0.283,-0.01 -0.563,0.09 -0.888,0.296 -1.3028,0.805 -2.3687,2.4753 -2.3687,3.7011 0,1.2259 1.0659,2.2206 2.3687,2.2206 1.3028,0 2.3687,-1.67 2.3687,-3.7011 0,-1.5233 -0.631,-2.479 -1.4805,-2.5167 z m 22.1325,32.2735 c 0.185,-0.04 0.377,0 0.592,0 2.0582,0 9.549,11.9508 9.549,15.2485 0,3.1701 -4.7768,0.882 -8.1424,-3.923 -3.9091,-5.5811 -4.7493,-10.7143 -1.9987,-11.3252 z m 46.4123,13.8422 c 2.2372,-0.111 4.0156,0.364 5.7737,1.3324 7.2927,4.0169 16.2014,16.1169 16.5809,22.5766 0.206,3.5087 3.747,8.696 8.8826,13.0278 5.214,4.398 9.3241,10.4792 10.5111,15.5446 1.0685,4.5598 2.3261,9.8188 2.8128,11.6955 0.487,1.8768 -0.856,3.7544 -2.9608,4.2191 -2.6539,0.586 -4.2684,-1.2825 -5.2555,-6.2178 -0.935,-4.6739 -3.8278,-8.4229 -8.4387,-10.8072 -3.861,-1.9967 -9.4646,-7.9638 -12.4357,-13.2501 -3.6954,-6.5752 -9.5288,-11.9143 -18.5052,-16.9508 -14.432,-8.0977 -21.3925,-13.4062 -21.3925,-16.3588 0,-1.06 1.4291,-1.4132 3.1829,-0.74 1.754,0.673 7.4654,-0.258 12.7317,-2.0726 3.5758,-1.2319 6.2754,-1.888 8.5127,-1.9986 z m -310.89192,36.2696 c 1.01025,0.137 2.3526,1.1446 4.44132,3.0348 2.68515,2.43 4.88544,5.339 4.88544,6.44 0,2.9601 -5.6079,2.4258 -10.14112,-0.962 -2.73655,-2.0454 -3.35644,-4.0505 -1.85042,-6.44 0.9325,-1.4798 1.65453,-2.2099 2.66478,-2.0726 z m 124.28332,22.0585 c 1.6616,-0.007 3.4789,1.0282 3.4789,2.5909 0,0.574 -1.6699,1.0363 -3.7011,1.0363 -2.0311,0 -3.039,-1.1187 -2.2206,-2.4426 0.507,-0.82 1.4456,-1.1804 2.4428,-1.1844 z m -46.1162,20.2078 c 1.2258,0 2.2206,1.066 2.2206,2.3687 0,1.3028 -1.6699,2.3687 -3.7011,2.3687 -2.0311,0 -3.0257,-1.0659 -2.2206,-2.3687 0.805,-1.3027 2.4753,-2.3687 3.7011,-2.3687 z m -403.05801,47.6701 c 0.7154,-0.07 1.43425,0.102 1.99847,0.666 0.8035,0.804 0.2842,2.6025 -1.11021,3.9972 -1.7012,1.7011 -2.99735,1.7659 -3.99741,0.148 -1.26157,-2.0415 0.9629,-4.6079 3.10915,-4.8113 z m 438.06741,21.0961 c 3.0925,-0.145 5.9776,1.48029 6.81,4.66349 0.682,2.6056 2.9796,4.7753 5.1076,4.8113 2.1278,0.04 6.9334,3.234 10.7333,7.1061 3.7996,3.8722 7.6528,7.0322 8.5865,7.0322 0.934,0 2.3278,2.1817 3.0348,4.8855 0.791,3.0229 2.895,4.7009 5.5518,4.3674 7.0533,-0.886 12.6576,2.6927 12.6576,8.1424 0,2.8043 2.0025,6.3972 4.4413,7.9205 3.7809,2.3612 4.8551,1.846 7.1803,-3.257 2.0624,-4.5268 3.7162,-5.533 6.81,-4.0713 2.2495,1.0629 13.9308,2.3558 25.9822,2.8128 12.0508,0.457 21.9105,1.4474 21.9105,2.2207 0,0.773 -2.5535,5.7777 -5.6257,11.1032 -3.0722,5.3256 -6.1737,14.5872 -6.958,20.5781 -1.398,10.6812 -1.2644,11.0142 8.1424,17.1731 10.1861,6.6691 15.0879,7.7762 17.4692,3.923 2.4888,-4.027 6.1027,-2.6917 13.2498,4.9596 4.266,4.5666 6.8841,9.9344 6.8841,14.1383 0,4.2203 1.6484,7.6834 4.4413,9.1787 2.6956,1.4427 5.0638,5.9533 5.8476,11.3253 2.8951,19.8355 4.848,25.7075 10.2153,30.7196 3.2219,3.0088 7.1352,4.6616 9.2526,3.8492 3.117,-1.1961 3.4524,0.002 1.9987,7.7722 -0.947,5.06 -3.0509,10.3185 -4.6635,11.6213 -2.6544,2.1444 -5.0482,10.959 -6.44,23.6131 -0.706,6.4187 7.537,6.6783 19.8379,0.592 12.3181,-6.0944 17.0172,-2.7583 9.5489,6.7361 -2.7733,3.5256 -5.0335,8.3061 -5.0335,10.6592 0,2.353 -1.0659,4.9686 -2.3687,5.7737 -1.3028,0.805 -2.3687,3.5857 -2.3687,6.2178 0,4.0853 -1.0401,4.5894 -7.1061,3.257 -4.4709,-0.982 -7.1061,-0.646 -7.1061,0.962 0,1.4063 -1.186,2.5909 -2.5906,2.5909 -1.5056,0 -2.2349,-3.6528 -1.7766,-8.8087 0.767,-8.6351 0.688,-8.7183 -8.4387,-9.3268 -6.9813,-0.465 -8.5761,0.08 -6.5139,2.1466 4.4313,4.4314 3.1129,6.7061 -2.9609,5.1816 -9.1541,-2.2976 -8.8765,2.1522 0.518,8.4385 10.8003,7.2266 12.1682,9.1576 12.2135,16.6548 0.08,12.5188 -7.7535,17.6494 -30.4236,20.1339 -7.6393,0.837 -7.8878,0.621 -6.8842,-6.2178 0.575,-3.916 0.126,-7.6921 -0.962,-8.3644 -2.7889,-1.7236 -6.6412,9.4447 -5.1816,15.0266 1.4873,5.6872 -11.424,20.8604 -16.2106,19.0235 -5.9692,-2.2905 -24.1608,8.416 -28.2776,16.6548 -4.0955,8.1997 -14.9275,19.4679 -18.7274,19.4679 -1.2357,0 -2.2206,1.5992 -2.2206,3.6269 0,3.2207 0.974,3.197 7.6982,-0.518 4.2341,-2.3392 9.5063,-5.7133 11.6955,-7.4761 3.517,-2.8321 3.8098,-2.6021 2.6648,1.7765 -0.995,3.8046 -0.223,4.9596 3.405,4.9596 7.0551,0 11.0009,-5.751 6.5139,-9.4748 -4.7239,-3.9207 -4.5005,-6.9202 0.592,-8.7346 2.2798,-0.812 6.3424,-4.1711 9.0306,-7.4022 4.1242,-4.9567 5.6553,-5.4253 9.8448,-3.1831 3.3832,1.8106 4.5508,4.1533 3.7014,7.4022 -1.2952,4.9523 2.6404,6.6459 5.3295,2.2947 1.0487,-1.6967 2.5933,-1.6061 4.8852,0.296 4.65,3.8591 20.9844,0.957 29.3861,-5.2557 3.7206,-2.7505 8.3362,-4.4505 10.289,-3.7011 1.953,0.75 4.8774,-0.249 6.5139,-2.2206 4.0154,-4.8381 20.0994,-12.8405 21.9846,-10.9553 2.6158,2.6158 -10.9766,14.8783 -16.5068,14.8783 -3.0089,0 -7.3368,2.7193 -9.993,6.3659 -2.5641,3.5201 -9.7986,9.1569 -16.1368,12.5096 -10.4614,5.5337 -11.487,6.8024 -10.8072,13.5461 0.578,5.7344 -0.335,7.7203 -3.9972,8.8826 -2.6091,0.828 -5.0695,3.8797 -5.4776,6.7361 -1.0839,7.5839 -9.0307,8.43 -9.0307,0.962 0,-7.3105 -6.4011,-22.9468 -9.4006,-22.9468 -3.9804,0 -7.2002,8.8568 -5.774,15.9888 1.2161,6.0797 0.46,7.2885 -6.0695,9.993 -5.7027,2.3621 -8.7775,2.4417 -13.324,0.37 -3.2595,-1.4851 -8.8404,-2.6321 -12.3617,-2.5908 -5.8289,0.07 -5.9945,0.318 -2.2207,3.183 2.2799,1.7307 4.1452,4.3629 4.1452,5.8479 0,3.6594 -6.4495,3.4817 -7.7724,-0.222 -1.7632,-4.9376 -3.3718,-1.2064 -4.6632,10.8072 l -1.2585,11.3994 11.3996,-0.592 c 6.7335,-0.357 12.8971,0.614 15.1004,2.4426 3.0955,2.5691 4.7855,2.4523 9.7709,-0.814 3.3001,-2.1624 7.0244,-3.2991 8.2905,-2.5167 4.4406,2.7444 2.2313,8.3992 -4.2194,10.8072 -3.5826,1.3374 -8.28,4.7502 -10.4372,7.5502 -3.3903,4.4015 -4.4697,4.6529 -7.8461,1.8506 -3.3671,-2.7944 -4.5675,-2.5388 -8.8826,1.7765 -4.1618,4.1618 -4.5188,5.5501 -1.9987,8.5865 3.6097,4.3492 1.71,10.8814 -3.1831,10.8814 -1.9101,0 -6.4734,1.1166 -10.1408,2.5167 -5.728,2.1868 -6.161,2.9382 -3.0348,5.3296 2.0015,1.5312 3.3107,4.46644 2.8867,6.51394 -0.765,3.6931 8.164,9.3268 14.8044,9.3268 1.8282,0 4.2989,1.8326 5.5515,4.0713 1.7436,3.1153 0.656,5.9334 -4.6632,11.9915 -7.1668,8.1638 -7.1699,13.527 0,11.2514 2.7171,-0.862 5.8961,1.0333 9.4006,5.7737 6.2666,8.4761 8.9471,8.8227 16.2109,1.9986 3.0102,-2.8278 6.1532,-4.4319 7.0322,-3.5531 2.1778,2.178 -8.6751,13.472 -12.9539,13.472 -2.5544,0 -3.0545,1.8267 -1.9987,7.1061 1.1827,5.9135 0.142,8.2578 -6.2179,14.1383 -4.2009,3.8844 -14.0196,10.427 -21.8363,14.5083 -11.7279,6.1235 -17.5246,7.5256 -33.1618,8.2165 -19.6425,0.868 -27.2401,-0.173 -27.2401,-3.7752 0,-1.156 3.7011,-2.7799 8.2163,-3.627 5.0873,-0.954 8.7401,-3.2882 9.6231,-6.0698 0.784,-2.4689 2.765,-4.4413 4.4413,-4.4413 1.6761,0 5.9604,-2.6648 9.4748,-5.9217 3.5142,-3.257 7.6846,-5.9218 9.3266,-5.9218 10.548,0 21.2984,-40.7558 11.6957,-44.3397 -2.3365,-0.872 -5.6259,-3.482 -7.3283,-5.8478 -3.7573,-5.2211 -8.953,-5.5724 -10.8072,-0.74 -0.75,1.9541 -2.9645,3.553 -4.9594,3.553 -1.9951,0 -3.6272,1.1019 -3.6272,2.5168 0,1.565 -3.8699,2.2607 -9.845,1.7765 -9.5449,-0.773 -9.9009,-0.507 -14.0639,9.2526 -4.1725,9.7808 -4.1905,10.1482 0.223,12.5096 3.6766,1.9678 5.0645,1.3894 7.328,-2.9609 3.8413,-7.3818 3.5519,-7.265 9.1048,-4.2933 3.9922,2.1366 5.2405,1.9706 6.3659,-0.962 0.772,-2.0104 3.3815,-3.627 5.8476,-3.627 2.9552,0 4.5155,-1.7288 4.5155,-4.9596 0,-3.6845 1.2411,-4.7142 5.1076,-4.1452 8.6817,1.2775 7.7549,6.5293 -1.9248,10.5852 -9.0854,3.807 -9.1013,3.7786 -3.775,7.3283 6.3019,4.2 6.5392,6.8849 1.6285,16.729 -3.3515,6.7183 -4.1507,7.1229 -9.5487,4.6635 -4.9234,-2.2432 -5.3476,-3.0291 -2.2948,-4.7374 2.0181,-1.1294 3.7011,-3.5881 3.7011,-5.4777 0,-3.9266 -3.7381,-4.5694 -5.9218,-1.0363 -0.805,1.3028 -3.5902,2.3687 -6.1437,2.3687 -3.7234,0 -4.3321,1.1214 -3.1831,5.6996 1.0761,4.2878 0.379,5.967 -2.8869,6.81 -3.6812,0.95 -3.6308,1.1738 0.666,1.4064 4.2077,0.228 7.9944,4.3274 7.9944,8.7346 0,0.545 -3.5472,1.0363 -7.8464,1.0363 -8.5974,0 -13.4719,3.5232 -13.4719,9.697 0,2.2056 -1.5868,4.5751 -3.5531,5.3296 -1.9663,0.754 -3.2987,2.6434 -2.9609,4.1452 1.3201,5.8694 -4.5327,3.7151 -12.5837,-4.5894 -11.2902,-11.6454 -25.364,-19.8312 -30.94,-18.0613 -3.3962,1.0779 -4.4413,0.197 -4.4413,-3.553 0,-2.711 1.2628,-6.9188 2.8129,-9.4009 3.6094,-5.7797 -1.016,-12.0863 -8.2905,-11.3253 -3.3635,0.352 -5.3236,-1.0322 -5.9217,-4.2191 -0.489,-2.6056 -2.4677,-6.0094 -4.4413,-7.5502 -2.6686,-2.0837 -3.1698,-5.2074 -1.9988,-12.1396 1.2138,-7.1838 0.476,-11.1836 -3.2569,-17.3211 l -4.8852,-7.9205 -1.4805,7.6244 c -0.842,4.208 -2.3682,7.6983 -3.3311,7.6983 -0.963,0 -3.6191,5.0631 -5.92172,11.2513 -6.09987,16.3942 -8.29045,17.3711 -8.29045,3.8491 0,-6.5139 -1.28028,-13.0496 -2.81283,-14.5822 -2.13609,-2.1361 -1.84735,-3.7638 1.11045,-7.0322 2.12188,-2.3447 4.52351,-8.7833 5.40348,-14.2861 1.58869,-9.93504 1.59248,-9.99304 -5.62566,-9.99304 -3.9979,0 -7.95102,-1.1291 -8.80873,-2.5168 -1.02588,-1.6601 -3.07149,-1.2469 -5.92175,1.3324 -4.08529,3.6971 -4.56756,3.4981 -8.29045,-3.7011 -3.94483,-7.6286 -3.23919,-9.6771 4.36741,-12.3618 1.08155,-0.382 0.6542,-3.5582 -0.9622,-7.1061 -2.91137,-6.3893 -9.98384,-8.6374 -12.80591,-4.0713 -3.33252,5.3921 -6.24531,2.0682 -4.66325,-5.3296 2.16167,-10.1105 5.00506,-13.412 10.43696,-11.9915 2.88721,0.755 5.38074,-0.551 7.1061,-3.7752 2.30001,-4.2976 1.46978,-6.2408 -6.29174,-14.0642 -12.52166,-12.6211 -20.90733,-17.6662 -26.42522,-15.9148 -3.67504,1.1664 -4.44771,0.609 -3.55305,-2.8128 0.6566,-2.5111 -0.8729,-6.2491 -3.70109,-8.8088 -2.68563,-2.4305 -4.88544,-5.7978 -4.88544,-7.5502 0,-4.2892 8.2407,-4.0469 12.65762,0.37 4.21202,4.212 12.61901,4.7057 13.91611,0.814 0.5299,-1.5896 4.15423,0.405 8.58654,4.7374 8.62325,8.4292 19.31983,10.1766 19.31983,3.183 0,-2.345 -1.3324,-5.5977 -2.96088,-7.2541 -1.62848,-1.6564 -1.89496,-2.8382 -0.5922,-2.5909 7.36831,1.3989 10.65915,-0.427 10.65915,-5.9957 0,-3.7217 1.362,-5.9217 3.62719,-5.9217 1.98189,0 4.80775,-2.6648 6.29174,-5.9218 1.48399,-3.2569 4.63554,-5.9217 7.03219,-5.9217 2.3964,0 4.3671,-0.96 4.3671,-2.0726 0,-1.1126 2.6648,-4.8502 5.9218,-8.3644 3.257,-3.5142 5.9217,-7.9996 5.9217,-9.9189 0,-1.9193 2.6648,-4.4615 5.9218,-5.6996 6.9869,-2.6565 7.857,-10.5438 1.9246,-17.0992 -3.1623,-3.4943 -3.3823,-4.9406 -1.0363,-7.2541 2.3286,-2.2963 3.5959,-2.1425 5.8476,0.666 4.4761,5.5828 12.8094,9.4812 16.877,7.9205 4.788,-1.8373 8.3645,-8.4771 8.3645,-15.6927 0,-3.8055 1.9684,-6.6034 5.9959,-8.4385 5.3175,-2.4229 5.8872,-3.716 4.5153,-11.0291 -1.5854,-8.4511 2.3668,-12.0726 5.1815,-4.7374 0.75,1.9542 3.9394,3.553 7.0319,3.553 6.7655,0 9.8467,8.7484 5.774,16.3588 -3.779,7.061 -1.2419,9.6969 9.4748,9.6969 8.2229,0 9.4459,-0.748 10.6591,-6.5139 0.754,-3.5826 2.3986,-8.1128 3.627,-10.067 1.2282,-1.9541 3.1392,-5.7313 4.2933,-8.3643 1.154,-2.6333 4.888,-6.2475 8.2904,-8.0683 3.8825,-2.0779 6.2178,-5.357 6.2178,-8.7346 0,-7.3247 4.3229,-9.48 8.3646,-4.1452 4.0643,5.3646 4.4548,0.913 0.666,-7.4022 -3.8934,-8.5451 0.08,-11.6507 15.3227,-12.1396 6.8107,-0.219 13.137,-0.523 14.0639,-0.666 0.927,-0.144 2.7569,-4.4666 4.1452,-9.6228 1.3885,-5.1562 3.6182,-10.0239 4.8857,-10.8072 1.2672,-0.783 2.2945,-3.8164 2.2945,-6.7361 0,-2.9194 0.981,-6.31 2.2207,-7.5502 2.7235,-2.7236 4.1528,-19.164 1.8504,-21.4664 -0.901,-0.902 -4.2684,1.2023 -7.4761,4.6635 -3.2077,3.4613 -8.0654,6.2918 -10.733,6.2918 -2.6679,0 -4.8116,1.5155 -4.8116,3.405 0,1.8894 -1.7601,4.4152 -3.9232,5.6256 -2.7953,1.5644 -4.14,6.1459 -4.6633,15.8407 -0.8,14.8271 -1.5444,16.7346 -5.6257,14.2122 -1.7438,-1.0777 -2.1443,-5.0576 -1.1102,-11.1774 1.4132,-8.3646 1.0726,-9.3317 -2.813,-8.5866 -2.4192,0.464 -5.4279,4.1121 -6.7359,8.1425 -2.0821,6.4158 -2.9948,7.0663 -7.5502,5.0334 -2.8567,-1.2746 -7.123,-1.4679 -9.4748,-0.444 -5.033,2.1912 -9.0444,1.7689 -17.9133,-1.7025 -7.8703,-3.0805 -8.4089,-6.0776 -1.2585,-7.1061 6.1193,-0.88 10.8107,-13.5246 11.1035,-29.8314 0.201,-11.257 4.7829,-15.096 12.3615,-10.3631 7.0337,4.3926 5.4618,-2.35 -1.7765,-7.6243 -5.93,-4.321 -6.115,-4.3104 -9.5489,0.592 -1.9229,2.7456 -5.5667,5.0335 -8.1422,5.0335 -2.8519,0 -6.6084,3.2551 -9.6231,8.3644 -6.1126,10.3602 -10.0274,9.4956 -10.4369,-2.2947 -0.245,-7.0365 -1.8964,-10.2058 -7.7722,-14.8044 -4.3627,-3.4142 -7.4764,-8.0564 -7.4764,-11.1033 0,-2.873 -2.1318,-7.0217 -4.7374,-9.2526 -2.8725,-2.4596 -4.7374,-6.958 -4.7374,-11.4735 0,-12.7995 -4.8307,-24.6131 -12.0654,-29.4619 -6.7669,-4.5334 -8.9295,-8.1424 -4.8115,-8.1424 1.1616,0 2.7747,-2.5984 3.553,-5.6995 0.778,-3.1014 3.5398,-6.1291 6.1437,-6.8101 2.6044,-0.681 5.8462,-4.1151 7.1802,-7.6243 1.3341,-3.509 4.5162,-6.947 7.1061,-7.6244 5.3602,-1.4017 6.0085,-5.778 1.8507,-12.4357 -2.3445,-3.7539 -2.093,-5.3862 1.4063,-9.2526 2.3445,-2.5906 5.6311,-4.2499 7.2542,-3.6269 1.623,0.623 4.3247,-0.503 5.9956,-2.5168 1.8883,-2.2752 4.4051,-3.43999 6.81,-3.55299 z m 173.4338,7.62439 c 1.6032,0.09 3.1741,1.1577 3.8492,3.1831 0.425,1.274 -0.712,4.405 -2.5909,6.958 -3.1772,4.3175 -3.5386,4.3741 -5.0335,0.518 -0.884,-2.2799 -1.0133,-5.8578 -0.223,-7.9205 0.746,-1.9452 2.3941,-2.8289 3.9972,-2.7387 z m -224.3609,4.1452 c 7.8293,0 8.9826,2.0338 4.7374,8.5127 -5.2166,7.9617 -10.2889,7.2951 -10.2889,-1.4064 0,-5.8654 0.99,-7.1061 5.5515,-7.1061 z m -197.93329,2.5168 6.29174,5.7737 6.21784,5.8478 -5.25567,7.1061 c -4.23547,5.729 -6.99951,7.18 -14.13806,7.18 -14.64425,0 -15.1142,-9.1 -1.03631,-19.8378 z m 276.33259,21.1702 c -3.9681,0 -6.5223,3.9785 -4.5894,7.1061 1.3945,2.2565 10.6591,3.4086 10.6591,1.3324 0,-3.712 -3.4291,-8.4385 -6.0697,-8.4385 z m -65.8499,17.2916 c -1.5939,0.359 -1.475,3.387 0.74,8.7345 1.8196,4.3926 4.7547,7.18 7.4763,7.18 6.1987,0 5.5323,-5.2554 -1.4804,-11.8435 -3.2001,-3.0063 -5.4964,-4.3506 -6.7359,-4.0713 z m 370.03827,1.7025 c 1.1635,0 2.7937,1.7511 3.6272,3.923 1.632,4.253 -1.4072,9.03 -4.0713,6.3659 -2.363,-2.3629 -2.0326,-10.2892 0.444,-10.2892 z m -125.46767,2.3687 c 10.1836,0 16.4589,17.2358 7.3281,20.1339 -2.6056,0.827 -4.7374,3.0192 -4.7374,4.8855 0,3.5513 -2.8879,4.5142 -5.5515,1.8505 -0.857,-0.857 -0.287,-3.0386 1.1843,-4.8113 2.0361,-2.4535 1.6351,-4.3295 -1.4804,-7.7722 -4.9388,-5.4572 -2.9121,-14.2861 3.2569,-14.2861 z m -198.0091,0.74 c -1.5986,0.1 -3.7551,1.2804 -5.5517,3.1089 -4.25,4.3252 -5.7789,10.8268 -5.0335,21.6144 0.251,3.6276 1.8831,5.3296 5.1076,5.3296 3.6634,0 4.7374,-1.5709 4.7374,-6.9581 0,-3.8314 1.0659,-7.6334 2.3687,-8.4385 3.1909,-1.972 3.035,-12.3473 -0.223,-14.3602 -0.359,-0.222 -0.874,-0.329 -1.4066,-0.296 z m 46.635,1.6285 c -1.3028,0 -2.3687,1.0659 -2.3687,2.3687 0,1.3027 1.0659,2.3687 2.3687,2.3687 1.3028,0 2.3687,-1.066 2.3687,-2.3687 0,-1.3028 -1.0659,-2.3687 -2.3687,-2.3687 z m 170.9917,10.5852 c 1.3748,0.03 3.6362,2.3559 5.4035,5.7737 2.1498,4.1573 4.9634,6.6305 6.81,5.9218 4.5567,-1.7486 9.5364,5.1962 7.3283,10.215 -1.0103,2.2964 -1.886,4.9359 -1.9987,5.8478 -0.111,0.912 -1.5262,2.9327 -3.1087,4.5152 -2.2579,2.2578 -3.848,0.544 -7.4763,-7.9204 -2.5435,-5.9338 -5.7695,-11.4899 -7.1803,-12.3618 -3.1724,-1.9607 -3.4462,-10.0163 -0.37,-11.9174 0.156,-0.1 0.396,-0.08 0.592,-0.07 z m -185.2773,7.2541 c -2.6229,0.03 -3.4029,3.9252 -0.74,6.5879 2.6558,2.6558 5.5515,1.78 5.5515,-1.7025 0,-1.8148 -1.5989,-3.9136 -3.553,-4.6635 -0.445,-0.171 -0.884,-0.226 -1.2585,-0.222 z m 14.2863,5.8479 c -1.3028,0 -2.3687,1.0659 -2.3687,2.3687 0,1.3028 1.0659,2.3687 2.3687,2.3687 1.3028,0 2.3687,-1.0659 2.3687,-2.3687 0,-1.3028 -1.0659,-2.3687 -2.3687,-2.3687 z m -68.247,1.1103 c -1.5249,0.112 -3.6648,1.7859 -6.1439,5.1816 -4.3956,6.0214 -4.4198,6.277 -0.147,9.4009 5.2953,3.8721 7.6571,1.958 8.6605,-7.1801 0.554,-5.0429 -0.408,-7.5462 -2.3687,-7.4021 z m -95.63624,13.694 c 2.55204,-0.334 5.18153,2.0042 5.18153,5.4776 0,3.9879 -6.11669,4.5711 -8.43849,0.814 -0.8752,-1.4163 -0.5221,-3.6971 0.8143,-5.0335 0.7471,-0.747 1.59201,-1.1471 2.44261,-1.2583 z m 280.09874,4.1452 c 1.3798,0 1.8415,1.0659 1.0363,2.3687 -0.805,1.3028 -1.9423,2.3687 -2.5167,2.3687 -0.574,0 -1.0363,-1.0659 -1.0363,-2.3687 0,-1.3028 1.137,-2.3687 2.5167,-2.3687 z m -254.8484,7.6983 c 7.7968,-0.564 12.5262,4.0478 9.4009,9.1048 -2.2562,3.6506 -7.1284,2.3957 -12.36178,-3.1831 l -4.95934,-5.3296 z m 118.1389,2.2206 c -2.0342,0.175 -4.2132,1.4601 -4.9593,3.7011 -0.578,1.7367 1.0287,2.9609 3.9232,2.9609 2.9095,0 4.9594,-1.5779 4.9594,-3.7753 0,-2.1767 -1.8888,-3.0622 -3.9233,-2.8869 z m -171.8776,2.6648 c 1.73176,-0.18 3.7056,1.0915 5.1813,3.8491 2.32796,4.3494 1.95252,4.8855 -3.55305,4.8855 -4.49461,0 -5.9606,-1.1246 -5.40348,-3.9972 0.5761,-2.9708 2.04324,-4.5576 3.77523,-4.7374 z m 94.3785,4.8854 c 0.288,-0.009 0.557,0.09 0.888,0.296 1.3242,0.818 1.7858,2.4883 1.0364,3.7011 -2.0305,3.2854 -3.4051,2.6802 -3.4051,-1.4804 0,-1.5234 0.617,-2.4876 1.4805,-2.5168 z m 53.1489,3.7753 c -0.497,-0.05 -1.0245,0.136 -1.5544,0.666 -0.782,0.782 -0.576,2.7903 0.444,4.4413 1.4925,2.4146 2.0106,2.4071 2.8131,0 0.859,-2.5762 -0.211,-4.9639 -1.7026,-5.1074 z m 226.7296,9.4009 c 2.2093,-0.514 7.6106,7.6653 6.2178,9.9189 -0.687,1.1108 -2.1091,2.0726 -3.183,2.0726 -2.3496,0 -5.2266,-9.9481 -3.4051,-11.7696 0.116,-0.116 0.223,-0.188 0.37,-0.222 z m -187.6461,0.148 c -2.0311,0 -3.7011,1.0659 -3.7011,2.3687 0,1.3028 0.995,2.3687 2.2207,2.3687 1.2258,0 2.896,-1.0659 3.7011,-2.3687 0.805,-1.3028 -0.189,-2.3687 -2.2207,-2.3687 z m 8.5127,12.2135 c -0.917,0.007 -2.2252,0.577 -3.8492,1.9246 -2.1233,1.7619 -6.4637,2.4378 -10.5113,1.6285 -9.4158,-1.8832 -15.2604,4.4465 -8.5866,9.3267 5.4793,4.0064 17.8394,4.3639 17.8394,0.518 0,-1.5259 1.76,-4.7156 3.9233,-7.1061 3.2117,-3.5491 3.2011,-6.3098 1.1844,-6.2918 z m -151.59684,9.0958 c 1.37977,0 2.51674,1.0659 2.51674,2.3687 0,1.3028 -0.4619,2.3687 -1.0363,2.3687 -0.5744,0 -1.71162,-1.0659 -2.51675,-2.3687 -0.8051,-1.3028 -0.3435,-2.3687 1.03631,-2.3687 z m 83.61514,7.7693 c 1.9352,0.01 2.1237,1.9984 -0.518,5.1816 -3.2479,3.9135 -5.4759,4.5171 -7.9202,2.0726 -0.86,-0.86 0.649,-3.1554 3.3309,-5.0335 2.1837,-1.5296 3.9465,-2.229 5.1074,-2.2207 z m 132.5003,10.3631 c -0.958,-0.02 -2.4736,0.416 -4.8115,1.4064 -9.797,4.1486 -10.9389,5.8626 -7.6983,11.9174 2.539,4.7443 2.2555,6.825 -2.1468,14.2861 -2.8287,4.7945 -6.0086,8.7346 -7.1061,8.7346 -4.3262,0 -4.8598,-5.3066 -1.1102,-11.0291 4.3828,-6.689 3.4382,-9.3171 -2.5167,-7.0322 -2.5767,0.989 -3.5036,3.1584 -2.6648,6.3659 0.754,2.8846 -0.367,6.5847 -2.7387,8.9565 -3.4033,3.4031 -3.5554,4.8665 -1.0365,9.8448 3.9462,7.7989 3.7906,11.6706 -0.518,13.3239 -1.9541,0.75 -3.553,3.1535 -3.553,5.3296 0,2.1761 -3.3219,6.8477 -7.3281,10.3631 -5.1396,4.51 -6.8621,7.6852 -5.8478,10.8813 1.0455,3.2941 -1.7829,8.0097 -10.437,17.247 -13.327,14.2252 -15.1424,19.5427 -5.9959,17.2469 4.2,-1.0541 6.2889,-0.414 7.3281,2.2947 1.5996,4.168 4.6651,5.0077 6.6622,1.7765 0.701,-1.1345 4.5356,-2.7576 8.5124,-3.553 7.0755,-1.4151 7.2411,-1.7037 6.588,-13.9161 -0.525,-9.8107 0.09,-12.4357 2.8868,-12.4357 2.308,0 3.6717,2.49 3.8491,7.1061 0.149,3.9084 0.417,8.0422 0.592,9.1787 0.503,3.2575 7.4022,-3.5097 7.4022,-7.2541 0,-1.8474 2.2971,-6.414 5.1076,-10.215 4.3146,-5.836 4.6412,-7.5489 1.9985,-10.7331 -4.5846,-5.524 2.3054,-11.623 12.8059,-11.3252 8.5555,0.242 13.7474,-5.4286 7.2539,-7.9205 -5.565,-2.1355 -4.0649,-7.4211 3.035,-10.8072 9.8739,-4.709 10.2051,-15.9056 0.666,-21.5405 -7.0488,-4.1637 -8.3636,-8.8099 -7.8465,-26.9439 0.03,-1.0435 -0.374,-1.5323 -1.3322,-1.5545 z m -47.0779,8.5865 c 0.524,-0.132 1.4316,0.495 2.8867,1.7026 1.9542,1.6218 3.5531,3.3573 3.5531,3.8491 0,0.492 -1.5989,0.888 -3.5531,0.888 -1.9541,0 -3.553,-1.7355 -3.553,-3.8492 0,-1.5738 0.142,-2.4587 0.666,-2.5909 z m -87.0497,7.7722 c 0.716,-0.03 1.3897,0.19 1.9984,0.666 1.4556,1.1392 5.5961,2.7712 9.1788,3.627 3.5826,0.856 6.5139,2.5712 6.5139,3.8491 0,1.278 1.7064,2.3687 3.775,2.3687 3.1075,0 3.4505,1.7499 2.0726,10.067 -0.917,5.5368 -2.6518,11.9323 -3.8491,14.2122 -3.3994,6.4732 -4.3672,4.9998 -4.3672,-6.5878 0,-7.3961 -1.1581,-11.1921 -3.6272,-12.1396 -5.1145,-1.9627 -10.9986,3.689 -9.3265,8.9565 0.768,2.4218 0.28,4.4413 -1.1105,4.4413 -1.3906,0 -2.5167,-2.2193 -2.5167,-4.8854 0,-2.9062 -2.8548,-6.4635 -7.1061,-8.8827 -7.9667,-4.5332 -9.4139,-9.9189 -2.6648,-9.9189 2.4459,0 5.7671,-1.6568 7.4022,-3.6269 1.1396,-1.3732 2.4338,-2.0925 3.6272,-2.1467 z m 303.7857,7.4022 c 1.1465,-0.307 2.7312,1.4383 4.3672,5.3296 1.6418,3.9043 5.9665,9.0198 9.62287,11.3252 5.4226,3.4192 6.5272,5.638 5.9217,11.9174 -0.632,6.5499 0,7.6983 4.3674,7.6983 4.4577,0 4.9238,0.869 3.4048,6.5139 -0.964,3.5827 -2.485,10.3408 -3.4048,15.0266 -2.1742,11.0746 -8.3499,19.0465 -20.80017,26.9439 -5.5369,3.5121 -10.067,7.7102 -10.067,9.3268 0,1.6165 -4.1919,6.3107 -9.3268,10.437 -5.1346,4.1262 -9.9312,7.5502 -10.6591,7.5502 -2.9566,0 -1.0581,-6.8697 3.553,-12.7318 6.4142,-8.1542 5.1863,-14.291 -3.1089,-15.2485 -7.4126,-0.855 -7.2821,-0.531 -4.2194,-8.5865 1.2706,-3.3418 3.9354,-6.0698 5.9218,-6.0698 2.7749,0 3.6272,-2.868 3.6272,-12.3618 0,-12.3982 -6.0049,-32.643 -9.6968,-32.643 -1.9539,0 -1.7895,-1.4773 1.4063,-10.6592 1.5946,-4.5815 1.7136,-4.5621 3.7011,0.592 2.3517,6.0987 9.7067,7.027 14.0642,1.7765 1.6218,-1.9542 4.4231,-3.553 6.2178,-3.553 1.8393,0 3.257,-2.4362 3.257,-5.5518 0,-4.3293 0.704,-6.7252 1.8506,-7.0322 z m -18.2096,0.74 c 1.1635,0 2.1468,1.5277 2.1468,3.405 0,3.8234 -3.3302,6.6627 -5.4037,4.5894 -1.8483,-1.8485 0.643,-7.9944 3.2569,-7.9944 z m -26.2783,2.3687 c 1.3028,0 2.3687,1.5989 2.3687,3.5531 0,1.9542 -1.0659,3.553 -2.3687,3.553 -1.3028,0 -2.3687,-1.5988 -2.3687,-3.553 0,-1.9542 1.0659,-3.5531 2.3687,-3.5531 z m -294.69,8.3644 c 0.786,-0.1 1.6112,0.05 2.4428,0.37 4.7988,1.8414 3.9586,9.678 -1.3323,12.5096 -6.4792,3.4675 -7.2542,3.1056 -7.2542,-3.0348 0,-5.3784 2.7387,-9.4319 6.1437,-9.8448 z m -17.9872,29.5353 c 2.5639,0 5.0368,7.0566 3.405,9.697 -0.733,1.1852 -2.2559,2.1466 -3.405,2.1466 -1.149,0 -2.6724,-0.961 -3.405,-2.1466 -1.6318,-2.6402 0.841,-9.697 3.405,-9.697 z m 291.1369,7.0322 1.6283,8.5865 c 1.1455,6.1051 0.633,9.1799 -1.7024,10.6592 -9.5814,6.0684 -13.5485,-3.4107 -5.4037,-12.8798 z m -278.9855,0.07 c 0.319,-0.04 0.685,0 1.0363,0 2.0618,0 3.4051,2.3449 3.4051,5.9218 0,6.8891 -0.102,6.8659 -5.8477,2.6647 -4.3821,-3.2043 -3.3758,-7.9991 1.4063,-8.5865 z m 196.3061,2.5909 c -1.5897,0.04 -3.5415,2.2759 -5.8477,6.7361 -3.8095,7.3667 -4.7172,14.8245 -2.0726,17.4692 2.6752,2.6754 5.1311,1.8299 10.2148,-3.627 2.8356,-3.0435 4.2817,-6.7733 3.4053,-8.8826 -0.831,-1.9999 -2.0836,-5.4926 -2.739,-7.7722 -0.762,-2.6496 -1.7246,-3.9579 -2.9608,-3.923 z m -77.0562,7.6983 c -0.845,0.161 -2.2429,1.1755 -3.4789,2.6648 -1.8682,2.2511 -2.0149,3.6269 -0.444,3.6269 2.8628,0 6.2321,-4.501 4.5894,-6.1439 -0.149,-0.149 -0.384,-0.202 -0.666,-0.148 z m 81.7936,43.0061 c 1.7369,0 3.6023,1.3324 4.1452,2.9609 0.587,1.7613 -1.0922,2.9608 -4.1452,2.9608 -3.0531,0 -4.7325,-1.1995 -4.1453,-2.9608 0.543,-1.6285 2.4083,-2.9609 4.1453,-2.9609 z m -184.7586,5.9217 c -1.3028,0 -2.3687,1.0659 -2.3687,2.3687 0,1.3028 1.0659,2.3687 2.3687,2.3687 1.3027,0 2.3687,-1.0659 2.3687,-2.3687 0,-1.3028 -1.066,-2.3687 -2.3687,-2.3687 z m 278.109,14.4344 c 0.971,0.08 1.4063,0.962 0.962,2.2947 -0.57,1.7099 -2.4353,3.5753 -4.1452,4.1452 -1.7766,0.592 -2.6648,-0.296 -2.0727,-2.0726 0.57,-1.7099 2.4353,-3.5753 4.1453,-4.1452 0.444,-0.148 0.786,-0.25 1.1104,-0.222 z m -40.5048,5.2112 c 1.9208,-0.145 4.2699,0.417 6.8101,1.7765 l 5.3295,2.887 -5.7734,3.1089 c -8.1429,4.5114 -11.6216,4.1331 -11.6216,-1.4064 0,-3.8634 2.0544,-6.1238 5.2554,-6.3659 z m 17.0992,4.0713 c 1.8277,0.03 3.9107,0.735 4.7374,2.0726 0.721,1.1662 -0.18,2.7069 -1.9987,3.405 -3.473,1.3328 -6.1437,-0.22 -6.1437,-3.5531 0,-1.3226 1.5773,-1.9574 3.405,-1.9245 z m -28.1283,4.7374 c 0.574,0 1.0363,1.0659 1.0363,2.3687 0,1.3028 -1.137,2.3687 -2.5167,2.3687 -1.3798,0 -1.8415,-1.0659 -1.0363,-2.3687 0.805,-1.3028 1.9423,-2.3687 2.5167,-2.3687 z m 19.8379,5.4776 c 2.9303,-10e-4 4.8854,1.9663 4.8854,5.3296 0,2.0616 -2.3448,3.405 -5.9217,3.405 -6.6241,0 -8.1531,-5.7635 -2.1468,-8.0683 1.1713,-0.449 2.2062,-0.666 3.1831,-0.666 z m 17.4691,4.2191 c 2.1411,-0.328 3.4233,1.3595 3.3309,5.1074 -0.07,2.9313 0.695,7.1779 1.7026,9.4748 2.3327,5.3185 -16.2268,23.0948 -24.1323,23.0948 -2.9317,0 -5.3296,0.97 -5.3296,2.2207 0,1.2503 -2.9312,2.1694 -6.5139,1.9986 -3.5827,-0.171 -9.4452,0.539 -13.0278,1.5544 -4.8156,1.3654 -6.514,0.972 -6.514,-1.4064 0,-2.1832 -3.4981,-3.3422 -10.8811,-3.6269 -5.985,-0.231 -11.3579,-0.847 -11.9176,-1.4064 -2.6087,-2.6087 2.4957,-8.1685 12.2137,-13.324 10.4036,-5.519 10.8551,-5.5948 18.3574,-1.5544 9.7316,5.2407 18.7317,4.0947 21.7622,-2.8129 1.2862,-2.9312 3.4853,-5.3295 4.8857,-5.3295 1.4002,0 4.9565,-3.1978 7.8461,-7.1061 3.1137,-4.2114 6.0755,-6.5557 8.2165,-6.884 z m -39.6023,5.4035 c 0.283,-0.01 0.637,0.09 0.962,0.296 1.3028,0.805 2.3687,2.4753 2.3687,3.7011 0,1.2259 -1.0659,2.2206 -2.3687,2.2206 -1.3027,0 -2.3687,-1.67 -2.3687,-3.7011 0,-1.5233 0.557,-2.479 1.4063,-2.5167 z m -601.12865,21.2444 c 2.79981,-0.194 5.12776,0.514 6.58783,1.9986 4.63531,4.7116 10.31356,16.6801 8.95677,18.8757 -3.51279,5.6839 -19.83787,-2.1754 -19.83787,-9.5487 0,-2.2712 -1.1185,-5.2637 -2.51674,-6.662 -1.8104,-1.8103 -0.6808,-2.9898 3.92304,-4.1452 1.03228,-0.259 1.9537,-0.453 2.88697,-0.518 z m 265.50758,16.877 c 0.4245,0.05 0.9179,0.183 1.4063,0.37 1.95418,0.75 3.55305,1.7827 3.55305,2.2947 0,0.512 -1.59887,0.962 -3.55305,0.962 -1.95418,0 -3.55305,-1.0328 -3.55305,-2.2947 0,-0.946 0.8726,-1.4718 2.14675,-1.3324 z m -171.212,13.0278 c 0.897,-0.105 1.68391,0.06 2.22066,0.592 0.6267,0.627 -0.425,2.4455 -2.2948,3.9972 -2.33435,1.9375 -3.82403,2.0132 -4.88521,0.296 -1.16042,-1.8775 2.26851,-4.57 4.95935,-4.8855 z m 10.36306,2.4426 c 1.30279,0 2.3687,1.066 2.3687,2.3687 0,1.3028 -1.06591,2.3687 -2.3687,2.3687 -1.30278,0 -2.3687,-1.0659 -2.3687,-2.3687 0,-1.3027 1.06592,-2.3687 2.3687,-2.3687 z m 498.32711,5.5518 c 0.216,0.03 0.457,0.402 0.74,1.1103 0.684,1.7099 0.565,3.7284 -0.223,4.5152 -0.787,0.787 -1.3611,-0.612 -1.2583,-3.1089 0.07,-1.7246 0.381,-2.5712 0.74,-2.5167 z m -34.583,4.5882 c 1.3061,-0.154 3.225,0.06 5.6998,0.592 4.234,0.907 7.672,1.751 7.6983,1.9246 0.03,0.174 1.3191,3.8222 2.8128,8.0683 2.3699,6.737 2.1233,8.0195 -1.7026,10.067 -7.0751,3.7866 -9.9675,1.4549 -4.7374,-3.7753 4.1556,-4.1554 0,-12.8056 -6.1437,-12.8056 -3.1052,0 -5.6257,-1.1845 -5.6257,-2.5909 0,-0.822 0.693,-1.3265 1.9985,-1.4805 z m -13.842,4.0713 c 1.3028,0 2.3687,1.0659 2.3687,2.3687 0,1.3028 -1.0659,2.3687 -2.3687,2.3687 -1.3028,0 -2.3687,-1.0659 -2.3687,-2.3687 0,-1.3028 1.0659,-2.3687 2.3687,-2.3687 z m -15.3965,0.37 c 0.238,-0.006 0.425,0.03 0.666,0.07 2.0079,0.39 4.004,1.796 4.4413,3.1089 1.0432,3.1345 -8.0818,8.8031 -9.7709,6.0698 -2.0719,-3.3521 1.0908,-9.1597 4.6633,-9.2526 z m -17.6172,6.9581 c 1.5375,-0.08 3.2214,1.0748 5.4776,3.3308 1.9774,1.9775 4.4306,3.4337 5.4776,3.1831 3.3391,-0.799 14.8532,5.7031 13.62,7.6983 -0.652,1.0554 -2.7046,1.361 -4.5152,0.666 -1.8109,-0.695 -5.574,-0.09 -8.3646,1.4064 -3.8212,2.0452 -5.8808,2.0612 -8.3646,0 -1.8137,-1.5054 -4.5865,-1.9247 -6.1437,-0.962 -2.0333,1.2566 -1.5683,2.6219 1.6285,4.9596 3.423,2.503 3.9098,4.2241 1.9987,7.2541 -4.9141,7.79024 -10.4372,6.16884 -10.4372,-3.0348 0,-3.3441 -1.9352,-5.9103 -5.3296,-7.0322 l -5.3295,-1.7025 5.3295,-1.1103 c 2.9457,-0.579 6.9834,-4.1784 8.9568,-7.9944 2.2815,-4.4121 4.019,-6.5537 5.9957,-6.6619 z m -95.859,14.8043 c -0.849,-0.143 -1.4063,0.372 -1.4063,1.4065 0,1.3796 1.0659,2.5167 2.3687,2.5167 1.3028,0 2.3687,-0.462 2.3687,-1.0363 0,-0.575 -1.0659,-1.7116 -2.3687,-2.5168 -0.326,-0.201 -0.679,-0.323 -0.962,-0.37 z m 75.3555,17.24704 c 1.2748,-0.01 2.7351,0.865 5.2554,2.5168 3.0701,2.0116 5.6257,5.4759 5.6257,7.7721 0,8.241 -5.571,9.3412 -12.2877,2.4426 -5.7561,-5.912 -5.966,-6.8398 -2.5908,-10.215 1.6777,-1.6777 2.7223,-2.5087 3.9974,-2.5167 z m -72.1719,0.888 c -2.5286,0 -4.5894,0.417 -4.5894,0.962 0,0.545 -0.69,2.6766 -1.4804,4.7374 -1.7135,4.4652 -0.68,4.6175 7.1802,1.0363 6.6111,-3.0123 6.008,-6.7361 -1.1104,-6.7361 z m 32.5696,0 c -4.2191,0.03 -4.5171,0.502 -1.6285,2.3687 4.6666,3.0158 10.1544,3.0158 8.2905,0 -0.805,-1.3028 -3.8077,-2.3877 -6.662,-2.3687 z m -62.7706,12.8056 c -0.154,0.03 -0.281,0.121 -0.444,0.222 -1.3028,0.805 -2.3687,3.0083 -2.3687,4.8855 0,1.8772 1.0659,3.405 2.3687,3.405 1.3028,0 2.3687,-2.203 2.3687,-4.8855 0,-2.3471 -0.848,-3.8359 -1.9246,-3.6269 z m 128.7981,17.9875 c 0.574,0 1.0363,1.0659 1.0363,2.3687 0,1.3028 -1.137,2.3687 -2.5167,2.3687 -1.3798,0 -1.8415,-1.0659 -1.0363,-2.3687 0.805,-1.3028 1.9423,-2.3687 2.5167,-2.3687 z m -34.493,19.4678 c -2.5608,0.262 -4.6957,4.5984 -4.7374,10.7331 -0.05,7.1324 4.1682,6.7567 7.5502,-0.666 2.088,-4.5827 2.0544,-6.6802 -0.147,-8.8826 -0.885,-0.885 -1.8111,-1.2718 -2.6648,-1.1844 z m 29.9048,4.1453 c 0.897,-0.105 1.6839,0.06 2.2207,0.592 0.627,0.627 -0.425,2.4455 -2.2948,3.9972 -2.3344,1.9375 -3.824,2.0133 -4.8852,0.296 -1.1604,-1.8775 2.2685,-4.5699 4.9593,-4.8854 z m -186.0898,9.5487 c 1.3798,0 1.8414,1.0659 1.0363,2.3687 -0.805,1.3028 -1.9423,2.3687 -2.5167,2.3687 -0.574,0 -1.0363,-1.0659 -1.0363,-2.3687 0,-1.3028 1.137,-2.3687 2.5167,-2.3687 z m 64.1776,19.3196 c -3.014,0.48 -3.9579,4.7028 -1.1105,7.5502 2.4829,2.4829 6.662,0.335 6.662,-3.405 0,-1.8278 -1.8654,-3.6322 -4.1452,-4.0713 -0.511,-0.1 -0.976,-0.143 -1.4063,-0.07 z m -94.03741,25.6885 c 6.91423,0 9.91798,3.6092 4.66349,5.6257 -2.05342,0.788 -3.92612,1.3612 -4.14522,1.2584 -0.2203,-0.103 -1.70262,-0.749 -3.3311,-1.4065 -5.04463,-2.0355 -3.26881,-5.4776 2.81283,-5.4776 z" />
      <path
         id="path6731"
         style="fill:#8e8e8e;stroke-width:2.3687"
         inkscape:connector-curvature="0"
         d="m 718.39293,213.05317 c 10.2956,2.8074 20.9919,6.0577 32.347,9.7709 13.4246,4.3897 26.3068,9.2552 38.8609,14.5083 -22.8549,-9.9121 -46.6303,-18.09 -71.2079,-24.2792 z m -72.468,13.3239 c -13.1169,0.407 -29.9096,2.7274 -50.48173,6.9581 -9.26422,1.9051 -21.25577,2.8699 -26.64788,2.1466 -8.87646,-1.1905 -9.77088,-0.864 -9.77088,3.7753 0,2.818 1.60645,5.7668 3.55305,6.5139 1.94659,0.747 2.94145,2.3127 2.22065,3.4791 -2.03495,3.2928 -5.7737,2.4675 -5.7737,-1.2583 0,-5.0188 -64.39311,-3.1701 -72.39221,2.0726 -3.36143,2.2025 -10.80507,3.7011 -18.50547,3.7011 -11.59384,0 -42.89242,9.6586 -59.88311,18.5054 -2.40991,1.255 -7.29844,3.3965 -10.88109,4.8114 -7.86669,3.107 -8.70024,11.3396 -1.99848,19.6156 4.39086,5.4225 4.59339,5.4748 9.25262,1.2584 2.63281,-2.3827 6.72782,-3.965 9.10481,-3.4791 3.72881,0.762 3.32589,1.9184 -3.3311,8.6604 -4.24329,4.2975 -7.1061,8.8975 -6.29198,10.215 0.8144,1.3176 0.1895,4.8663 -1.4063,7.8463 -2.41892,4.5197 -4.71063,5.3969 -14.06416,5.2557 -9.17137,-0.138 -12.4982,1.0419 -18.13524,6.44 -3.79086,3.6298 -11.8461,9.7276 -17.91353,13.5461 -9.72849,6.1227 -11.35697,8.4125 -13.91611,19.3196 -3.42467,14.5976 -6.30027,20.6523 -9.69675,20.6523 -1.5162,0 -1.84521,-2.7489 -0.8883,-7.1061 2.00984,-9.1508 -4.55075,-12.6875 -10.36306,-5.5518 -2.64987,3.2532 -6.941,4.8525 -13.84197,5.0335 -10.49524,0.275 -15.71965,-3.1959 -8.80873,-5.8479 2.22421,-0.854 9.75099,-6.8294 16.72895,-13.3239 11.13265,-10.3614 12.73176,-12.949 12.73176,-21.0222 0,-6.4528 1.18956,-9.6558 3.99718,-10.7331 2.23511,-0.858 4.43942,-0.302 4.95959,1.2584 1.27009,3.8105 6.93105,3.5436 9.25261,-0.444 1.04176,-1.7895 7.7871,-6.8126 14.95242,-11.1033 23.26537,-13.9313 27.96724,-21.0265 13.62003,-20.6522 -13.84008,0.361 -36.08478,12.4008 -79.72097,43.2288 -17.87919,12.6308 -22.3674,13.5892 -20.05981,4.2191 1.04696,-4.2514 2.47766,-7.6955 5.18153,-11.4735 -86.18278,84.7189 -139.67987,202.6257 -139.67987,333.01549 0,257.9041 209.10884,466.91814 467.01289,466.91814 257.90414,0 466.91811,-209.03544 466.91811,-466.91814 0,-97.2991 -29.7721,-187.61519 -80.68257,-262.40459 9.93047,17.4441 19.83377,38.0248 22.05847,47.3006 0.991,4.1315 2.6515,6.056 4.7374,5.2557 2.084,-0.8 4.2201,1.4104 5.9218,6.2917 3.2662,9.3694 3.3348,11.6955 0.296,11.6955 -1.3027,0 -2.3687,-1.4623 -2.3687,-3.257 0,-1.7947 -1.6346,-4.6384 -3.6271,-6.2917 -3.0021,-2.4917 -4.6219,-2.1254 -9.3266,2.2946 -5.7862,5.436 -12.10447,4.6299 -9.84497,-1.2583 0.686,-1.788 -0.178,-4.096 -1.9246,-5.1074 -1.7457,-1.0116 -3.8906,-6.3034 -4.8113,-11.8435 -1.4411,-8.6695 -1.1296,-9.9178 2.1465,-8.6605 3.2603,1.2512 3.4493,0.482 1.4066,-5.3295 -5.5345,-15.7431 -18.144,-38.6478 -21.9846,-39.9719 -2.2799,-0.786 -4.1453,-3.0286 -4.1453,-4.9595 0,-1.931 -3.6226,-7.266 -8.0685,-11.8435 -7.3256,-7.5432 -8.6154,-8.0008 -13.3239,-5.1816 -4.5088,2.6999 -5.5674,2.5175 -7.9202,-1.2583 -7.4936,-12.0259 -7.175,-11.8767 -14.6564,-7.9205 -9.678,5.118 -19.9859,18.9688 -19.9859,26.944 0,6.5601 7.9755,20.5591 16.8029,29.386 2.4592,2.459 4.4989,6.9138 4.5154,9.8448 0.04,6.2292 24.3503,32.5697 30.0541,32.5697 1.3172,0 4.3039,2.1318 6.662,4.7374 5.0323,5.5605 16.6164,6.3 18.5793,1.1843 2.5102,-6.5411 6.292,-3.6743 6.292,4.8113 0,5.3414 -1.0768,8.2391 -2.9608,7.9944 -5.5089,-0.715 -8.8827,0.212 -8.8827,2.3687 0,1.1809 2.0698,1.5471 4.5894,0.888 7.0672,-1.8481 20.63207,3.6362 24.79787,9.9931 4.1973,6.4062 5.029,15.3966 1.4063,15.3966 -1.3028,0 -2.3687,-1.0659 -2.3687,-2.3687 0,-1.3028 -1.7355,-2.3687 -3.8491,-2.3687 -3.14757,0 -3.30337,0.643 -0.88797,3.553 2.48307,2.9919 2.01907,3.5531 -2.8128,3.5531 -3.1558,0 -6.9218,1.1481 -8.3644,2.5908 -1.9184,1.9182 -3.302,1.2818 -5.2557,-2.3687 -1.4693,-2.7453 -4.0883,-4.9595 -5.7737,-4.9595 -1.6853,0 -10.4509,-5.6342 -19.4676,-12.5096 -9.0169,-6.8756 -19.4589,-14.0706 -23.2431,-15.9887 -3.784,-1.9183 -8.3542,-6.978 -10.1409,-11.2514 -2.3052,-5.5138 -5.2168,-8.2087 -10.067,-9.1787 -4.2963,-0.859 -7.3147,-3.201 -8.1424,-6.3659 -1.0434,-3.99 -1.9049,-4.4609 -4.2193,-2.1466 -4.4908,4.4908 -13.8231,3.7108 -13.9161,-1.1843 -0.1,-5.0615 -6.0367,-12.1872 -14.8044,-17.8392 -5.2699,-3.3974 -6.0824,-5.105 -4.2191,-8.5865 2.9092,-5.436 -5.2271,-13.4876 -14.0642,-13.9161 -3.257,-0.158 -6.9877,-2.0577 -8.2904,-4.2192 -6.0144,-9.9788 -11.0147,-14.7908 -16.5068,-15.8407 -7.4863,-1.431 -11.7139,3.3619 -9.7709,11.1033 1.1931,4.754 0.709,5.6224 -2.3687,4.4413 -2.4871,-0.954 -5.7441,0.932 -9.4009,5.4035 l -5.6257,6.8839 -0.147,-11.8435 c -0.121,-9.0077 -1.5612,-13.403 -5.9218,-18.3574 -3.1532,-3.5827 -6.7375,-6.5139 -7.9943,-6.5139 -1.2566,0 -2.6006,-0.949 -3.035,-2.0726 -3.8712,-10.0196 -22.8433,-28.7205 -29.09,-28.7205 -8.548,0 -15.5446,-6.6215 -15.5446,-14.6563 0,-6.8172 0.42,-7.1848 7.1061,-5.8479 3.9202,0.784 10.1262,3.5992 13.768,6.2917 7.6332,5.6435 14.7239,4.3255 12.954,-2.4426 -1.4698,-5.6199 4.781,-12.2779 9.7709,-10.363 2.0508,0.787 5.4925,0.744 7.6241,-0.07 3.563,-1.3673 3.5573,-1.8273 -0.147,-5.9218 -2.2166,-2.4494 -7.522,-5.1109 -11.8435,-5.9217 -5.6943,-1.0683 -9.6207,-4.0548 -14.1383,-10.8814 -3.7328,-5.641 -8.1087,-9.4009 -10.8811,-9.4009 -2.993,0 -4.153,-1.1887 -3.3311,-3.3308 1.6768,-4.3696 -3.4436,-7.4375 -6.81,-4.0713 -1.4496,1.4498 -5.7616,2.6647 -9.5487,2.6647 -5.1652,0 -6.5063,0.872 -5.4776,3.5531 1.7644,4.5979 -2.349,15.3965 -5.8476,15.3965 -1.6865,0 -2.1266,-2.2423 -1.1844,-5.9956 1.9696,-7.8477 -3.0717,-9.7771 -15.6926,-5.9957 -11.2899,3.3825 -14.6272,0.781 -12.6579,-9.993 0.662,-3.623 -0.454,-13.2162 -2.5167,-21.3183 -2.0627,-8.1022 -3.9903,-17.3297 -4.2933,-20.504 -0.606,-6.3493 -3.3832,-7.8371 -22.6507,-11.9915 -5.2324,-1.1282 -11.8195,-1.5768 -19.6898,-1.3324 z m 24.426,25.0183 c 1.62,0 2.2254,1.5666 1.4063,3.7011 -0.791,2.0607 -1.3992,4.992 -1.4063,6.5139 0,1.5219 -3.3041,4.636 -7.2541,6.8839 -7.0677,4.022 -7.1248,4.2011 -3.4792,11.2513 2.2254,4.303 5.6297,7.18 8.4388,7.18 2.5719,0 4.6632,1.0659 4.6632,2.3687 0,1.3028 -3.1977,2.3687 -7.1061,2.3687 -10.0714,0 -9.3897,7.2636 1.5546,16.2848 7.3754,6.0795 8.2168,7.685 5.6257,10.8072 -2.2489,2.7096 -7.6289,3.7011 -20.4301,3.7011 -9.5501,0 -19.8063,1.1061 -22.7987,2.5168 -6.4114,3.022 -16.7128,18.139 -14.6566,21.4663 0.785,1.2701 0.725,4.8855 -0.07,8.0683 -0.799,3.183 -2.2306,5.7682 -3.1831,5.6995 -2.97599,-0.214 -13.41532,-7.9207 -16.65476,-12.2876 -1.70238,-2.2948 -5.81303,-4.1452 -9.10481,-4.1452 -3.76576,0 -5.54252,-1.0978 -4.8852,-2.9609 0.5744,-1.6285 2.74556,-2.8457 4.8852,-2.6648 4.68008,0.396 5.44091,-10.8439 1.03655,-15.2485 -3.7795,-3.7795 -6.58807,-3.5751 -6.58807,0.444 0,1.7947 -1.6055,4.5273 -3.55305,6.144 -2.85689,2.371 -4.68576,2.1985 -9.62284,-1.0363 -3.36569,-2.2053 -5.6233,-5.4504 -4.95959,-7.18 1.96863,-5.1297 -0.9949,-5.9542 -7.03196,-1.9986 -5.08038,3.329 -6.20433,3.3323 -11.17718,0.07 -3.04189,-1.9931 -8.6422,-6.936 -12.43568,-10.9553 -3.79371,-4.0192 -9.13181,-7.2541 -11.91764,-7.2541 -4.82836,0 -23.25613,-6.8389 -18.9496,-7.0322 2.66076,-0.119 -3.16292,-7.18 -5.92175,-7.18 -1.14337,0 -2.07261,2.1318 -2.07261,4.7374 0,2.8796 -1.62351,4.7374 -4.07108,4.7374 -3.04118,0 -3.3214,-0.676 -1.25849,-2.7387 3.9851,-3.9851 -0.748,-11.4735 -7.25415,-11.4735 -8.20091,0 -16.28481,6.6274 -14.58219,11.9915 1.33074,4.1934 0.043,4.5894 -16.35895,4.5894 -15.63271,0 -18.59856,0.667 -25.01821,6.0698 -4.00832,3.3728 -7.25415,4.9385 -7.25415,3.4791 0,-1.4594 1.44894,-3.1553 3.25697,-3.8491 1.80803,-0.694 3.93393,-4.2727 4.66326,-7.9205 1.13342,-5.6666 2.76001,-6.909 11.3996,-8.2904 5.561,-0.889 13.36895,-4.0386 17.32088,-7.0322 12.43047,-9.4151 17.66174,-11.2139 42.19366,-14.6563 23.07753,-3.2385 24.07073,-3.1705 28.94314,1.4064 6.1771,5.8031 15.05499,6.0935 19.02374,0.666 2.70293,-3.6966 3.68191,-3.3702 12.06545,3.7011 5.03444,4.2461 11.68835,9.7543 14.73023,12.2876 6.59423,5.4916 17.43743,6.3837 15.4707,1.2584 -0.7611,-1.9834 1.22722,-5.0539 4.81154,-7.4022 5.87792,-3.8515 6.25526,-3.7925 10.58501,1.5544 3.86406,4.772 5.45795,5.2204 11.25133,3.1831 3.7063,-1.3035 7.1186,-4.199 7.5502,-6.44 0.679,-3.5235 -0.633,-3.833 -9.697,-2.5909 -9.39304,1.2875 -10.62761,0.874 -11.84346,-3.7752 -3.59924,-13.7643 20.83456,-19.9705 30.57046,-7.7722 4.9702,6.2271 5.533,6.3713 13.102,3.257 4.3546,-1.7919 11.2807,-3.8245 15.3965,-4.4414 4.7639,-0.714 7.9108,-2.7588 8.6605,-5.6256 0.648,-2.4767 2.4331,-4.4413 3.9971,-4.4413 z m 40.0453,11.8435 c -2.9301,0 -4.6697,7.5907 -2.3687,10.363 3.2013,3.8577 21.8598,3.8667 27.3869,0 2.5698,-1.7974 4.1687,-3.3396 3.553,-3.405 -0.615,-0.07 -5.7706,-0.545 -11.4732,-1.0363 -5.7027,-0.491 -11.5564,-2.0075 -12.9537,-3.405 -1.3976,-1.3975 -3.2426,-2.5167 -4.1453,-2.5167 z m -137.16196,1.1843 c 1.73696,0 3.60232,1.3324 4.14522,2.9609 0.5872,1.7613 -1.09221,2.9609 -4.14522,2.9609 -3.05302,0 -4.73243,-1.1996 -4.14523,-2.9609 0.5429,-1.6285 2.40826,-2.9609 4.14523,-2.9609 z m 177.65246,6.1349 c -1.8298,-0.04 -2.638,2.4005 -1.2582,5.9957 1.1848,3.0878 2.1858,3.3657 4.293,1.2584 2.1074,-2.1073 2.1366,-3.4152 0,-5.5518 -1.1306,-1.1307 -2.2031,-1.6862 -3.0348,-1.7025 z m -68.6188,0.37 c 2.407,0.04 4.8115,1.8942 4.8115,4.2932 0,2.8823 -6.4384,2.877 -8.2163,0 -0.75,-1.2128 -0.288,-2.8827 1.0361,-3.7011 0.707,-0.437 1.5664,-0.604 2.3687,-0.592 z m -123.099,89.4184 c 1.30278,0 2.3687,1.0659 2.3687,2.3687 0,1.3028 -1.06592,2.3687 -2.3687,2.3687 -1.30279,0 -2.3687,-1.0659 -2.3687,-2.3687 0,-1.3028 1.06591,-2.3687 2.3687,-2.3687 z m 47.15134,5.0335 c 0.7153,-0.07 1.43425,0.102 1.99847,0.666 0.8035,0.803 0.2842,2.6025 -1.11021,3.9971 -1.7012,1.7011 -2.99735,1.7659 -3.99742,0.148 -1.26157,-2.0414 0.9629,-4.6078 3.10916,-4.8113 z m 290.54476,4.4413 c -0.574,0 -1.7116,1.0659 -2.5168,2.3687 -0.805,1.3028 -0.343,2.3687 1.0363,2.3687 1.3798,0 2.5168,-1.0659 2.5168,-2.3687 0,-1.3028 -0.462,-2.3687 -1.0363,-2.3687 z m -34.6423,1.1843 c -3.6447,0 -5.8819,8.6766 -3.7011,14.3603 0.714,1.8594 2.8903,3.405 4.8116,3.405 2.5579,0 3.377,-2.3773 2.9609,-8.8826 -0.38,-5.9291 -1.7735,-8.8827 -4.0714,-8.8827 z m -68.6923,22.5027 c 1.2258,0 2.896,1.0659 3.7011,2.3687 0.805,1.3028 -0.19,2.3687 -2.2206,2.3687 -2.0312,0 -3.7011,-1.0659 -3.7011,-2.3687 0,-1.3028 0.995,-2.3687 2.2206,-2.3687 z m -221.10389,3.7752 c 3.83493,-0.206 10.48955,1.4818 11.7696,3.5531 0.7089,1.1472 -1.78363,2.1466 -5.55176,2.1466 -7.18356,0 -10.60301,-1.908 -8.80849,-4.8113 0.339,-0.549 1.3125,-0.819 2.59065,-0.888 z m 27.60957,1.7025 c 2.35827,0.115 4.14522,2.4085 4.14522,6.2178 0,2.3692 -1.54178,5.5599 -3.405,7.1061 -2.71667,2.2546 -3.9266,1.7743 -6.14394,-2.3687 -2.21402,-4.1371 -2.03376,-5.8864 0.8144,-8.7345 1.57353,-1.5735 3.1743,-2.2897 4.58936,-2.2207 z m 3.03501,20.6522 c 3.64922,-0.269 6.42557,1.3174 8.21631,4.6635 2.9137,5.4443 -0.02,12.7342 -5.99589,15.0266 -2.05129,0.787 -3.49194,2.7953 -3.25696,4.4413 0.2345,1.6459 -0.4183,6.4992 -1.4063,10.7331 -1.52686,6.5428 -2.86091,7.6982 -8.80848,7.6982 -6.56462,0 -6.88795,0.423 -5.40372,7.18 1.48873,6.7783 1.2457,7.1085 -4.36717,5.6996 -5.37079,-1.3479 -6.05345,-0.742 -6.73611,6.2178 -0.4171,4.2521 -2.07332,8.2002 -3.70109,8.7346 -3.90101,1.2806 -6.54496,-5.8076 -3.55305,-9.5487 1.28904,-1.6119 3.09849,-5.285 3.99718,-8.2165 1.28999,-4.2076 0.6793,-5.3296 -2.81283,-5.3296 -2.43289,0 -5.63846,1.1972 -7.18024,2.7387 -4.67819,4.6784 -5.82345,0.508 -1.92434,-7.0322 3.11532,-6.0248 3.13143,-7.2764 0.2961,-8.3644 -5.77418,-2.2157 0.8961,-16.1654 7.32805,-15.3226 3.23896,0.424 9.49162,-3.0485 17.02503,-9.4009 7.41522,-6.2524 13.5916,-9.5726 18.28352,-9.9189 z m 397.27838,26.7213 c -0.84697,0.213 -0.46897,1.616 0.814,4.9596 1.776,4.6278 5.6998,4.9317 5.6998,0.444 0,-1.8148 -1.5989,-3.9136 -3.5531,-4.6635 -1.4894,-0.572 -2.4528,-0.868 -2.9608,-0.74 z m -293.43457,11.2514 c 1.7159,0.03 3.5843,0.806 6.3659,2.2946 2.5198,1.3487 4.5893,4.0136 4.5893,5.9218 0,4.7526 -12.7324,4.5195 -16.7289,-0.296 -2.5679,-3.0942 -2.5222,-4.0642 0.296,-5.8478 2.2012,-1.393 3.7617,-2.1056 5.4776,-2.0727 z m -44.7826,19.3937 c 1.4671,-0.04 2.9644,0.173 4.4413,0.74 4.9591,1.903 5.0607,9.5144 0.149,11.3994 -7.0452,2.7034 -12.8059,0.136 -12.8059,-5.6996 0,-3.6845 3.8153,-6.3114 8.2163,-6.44 z m -113.32812,9.1048 c 0.551,-0.21 0.3593,0.702 -0.4441,2.8128 -0.8819,2.3161 -3.55518,5.2474 -5.92175,6.514 -5.82818,3.1191 -6.95805,2.9042 -6.95805,-1.2584 0,-1.9542 1.87411,-3.5531 4.21936,-3.5531 2.34502,0 5.61359,-1.3324 7.25391,-2.9608 0.897,-0.89 1.51999,-1.4283 1.85067,-1.5545 z m 163.21762,0.962 4.2191,7.8463 c 4.2057,7.7658 4.2066,7.8852 -0.74,9.1787 -7.419,1.9401 -5.5022,12.7654 2.9609,16.8031 3.5827,1.7092 6.5139,4.6981 6.5139,6.662 0,1.964 1.5432,8.623 3.405,14.7304 1.8618,6.1075 3.9307,13.88229 4.6635,17.32119 1.868,8.7684 8.0678,10.5824 10.8811,3.183 3.3965,-8.9333 11.2956,-7.3015 9.6968,1.9986 -0.369,2.1497 9.0155,16.1939 12.3617,18.5055 1.1771,0.813 5.7167,0.322 10.1409,-1.0363 5.6333,-1.729 9.6686,-1.6977 13.3981,0.07 2.9294,1.3916 9.4691,2.5096 14.5824,2.5167 6.947,0.01 10.4285,1.4766 13.6201,5.6257 4.5055,5.8578 5.8355,13.8422 2.2945,13.8422 -1.1528,0 -3.928,2.7621 -6.1437,6.1439 -3.8614,5.8931 -3.8472,6.306 0.888,9.6229 2.9665,2.078 4.9593,6.0169 4.9593,9.9189 0,9.6726 4.041,12.6572 11.7694,8.6604 5.8381,-3.0189 6.8498,-2.7841 12.8059,2.7387 3.5613,3.3025 7.5632,8.8327 8.8826,12.2877 2.5613,6.7077 3.0021,6.4196 10.6592,-5.9957 2.5155,-4.0789 3.1537,-3.8771 9.845,2.7387 6.8406,6.7636 6.9685,7.2004 2.6648,10.215 -2.4696,1.7298 -4.5155,4.8217 -4.5155,6.8839 0,2.0624 -1.7069,5.0015 -3.775,6.514 -3.234,2.3646 -3.4078,4.6843 -1.1843,16.803 2.9708,16.1939 9.2737,26.0321 16.5067,25.7597 5.5558,-0.208 6.2229,1.8641 2.6648,8.5126 -2.7453,5.1297 1.3348,16.5809 5.9218,16.5809 3.8858,0 10.6591,-7.9096 10.6591,-12.4357 0,-2.5909 1.4734,-3.3157 4.8116,-2.4426 2.6828,0.702 6.6418,-0.422 8.9565,-2.5167 2.44,-2.208 6.2564,-3.2262 9.2526,-2.4426 4.6081,1.2049 4.9613,2.5316 3.8491,13.5461 -0.677,6.7077 -2.3407,14.5855 -3.7749,17.5431 -1.8853,3.8889 -1.9459,6.1226 -0.07,7.9943 3.8878,3.8875 7.7724,0.221 7.7724,-7.3283 0,-4.5263 1.9175,-7.8875 5.9218,-10.5111 4.1883,-2.7443 5.9217,-6.0331 5.9217,-11.1774 0,-5.2812 1.2976,-7.613 4.7374,-8.5126 4.9985,-1.3071 6.3697,-6.4839 2.3687,-8.9566 -3.5469,-2.1921 -2.8441,-5.9217 1.1102,-5.9217 5.2924,0 8.2936,7.7985 6.7362,17.3953 -1.6577,10.214 -0.548,10.5532 9.6969,2.7386 4.2701,-3.2569 8.4435,-5.9217 9.2527,-5.9217 0.809,0 4.8421,3.2321 8.9565,7.2541 l 7.4763,7.3283 6.88417,-7.5502 c 3.8046,-4.1656 6.7953,-9.337 6.5878,-11.4735 -0.208,-2.1364 -0.298,-7.7762 -0.147,-12.5096 0.234,-7.4083 1.2029,-8.7445 6.81,-9.8448 9.0326,-1.7725 10.4766,0.496 11.1033,17.3211 0.529,14.1983 0.362,14.757 -6.1439,17.0251 -5.3485,1.8645 -6.7359,3.8245 -6.7359,9.4009 0,4.0729 0.993,6.4016 2.3687,5.5517 1.3028,-0.805 2.3687,-2.9379 2.3687,-4.6635 0,-3.2261 11.4131,-6.5546 14.9524,-4.3674 1.0901,0.674 1.3481,3.7248 0.592,6.7361 -1.835,7.3117 0.81,13.5381 5.0335,11.9174 3.3406,-1.2819 3.1032,1.277 -1.1843,12.6579 -0.754,2.0007 -0.197,2.7211 1.3323,1.7765 1.5897,-0.982 1.1605,3.1516 -1.0363,10.8813 -1.9451,6.8444 -4.1158,14.834 -4.8113,17.7653 -0.696,2.9313 -2.7131,5.3296 -4.5154,5.3296 -1.9341,0 -3.257,2.4279 -3.257,5.9956 0,4.5363 -1.7457,6.6473 -6.8841,8.4385 -4.7173,1.6445 -6.4896,3.6817 -5.7735,6.44 1.3042,5.0264 -6.0364,14.8577 -7.8466,10.5111 -3.4879,-8.3762 -11.42277,0.07 -9.03037,9.6229 0.708,2.8277 -0.204,7.2169 -2.0726,9.7709 -3.0111,4.1132 -4.1831,4.3093 -10.067,1.6285 -6.0132,-2.7399 -7.0177,-2.526 -10.9552,2.4426 -12.7962,16.1471 -20.7595,30.0753 -19.3198,33.8274 1.1331,2.953 -2.4197,7.7809 -13.1759,17.7652 -13.1868,12.2405 -14.695,14.4898 -13.99,21.6144 0.705,7.1272 -0.114,8.4188 -7.7725,12.0657 -7.2416,3.4479 -8.8051,5.5617 -10.1411,13.9161 -0.927,5.7957 -0.56,11.1341 0.888,12.8798 1.7613,2.1223 1.4461,3.8003 -1.1102,5.9218 -1.9703,1.6351 -3.5531,4.4972 -3.5531,6.2917 0,4.8618 8.1261,3.9361 13.0279,-1.4804 3.8624,-4.268 10.6591,-6.5327 10.6591,-3.5531 0,1.6625 -18.1345,20.134 -19.7637,20.134 -3.2465,0 -13.693,11.85324 -15.9148,18.06134 -1.3424,3.7504 -6.1956,9.4748 -10.8072,12.7318 -4.6116,3.2569 -14.8693,10.9848 -22.7988,17.173 -13.7545,10.734 -23.144,14.7793 -19.2456,8.2905 2.6297,-4.3771 -5.6172,2.2471 -19.0238,15.3226 -6.3742,6.2169 -13.1474,11.3253 -15.1004,11.3253 -1.9528,0 -10.1037,4.0954 -18.0614,9.1048 -7.9574,5.0091 -17.0989,9.7029 -20.3559,10.4369 -3.2569,0.734 -12.8502,4.3056 -21.3183,7.9205 -8.4681,3.6146 -19.8222,6.7688 -25.2408,7.0322 -5.4192,0.263 -10.7487,1.0076 -11.8435,1.6285 -5.6551,3.2072 -15.8341,4.017 -18.8014,1.5544 -1.8426,-1.5292 -5.1424,-1.9463 -7.4763,-0.962 -2.2964,0.968 -11.0737,2.1247 -19.5418,2.5168 -34.3461,1.5904 -50.9768,3.405 -51.7418,5.6996 -0.911,2.7322 -3.3051,2.6946 -21.68858,-0.296 -7.16532,-1.1658 -16.11734,-2.4284 -19.83786,-2.8129 -3.72052,-0.384 -8.60146,-3.1953 -10.8811,-6.2178 -3.48601,-4.6213 -5.45274,-5.2074 -12.21373,-3.7752 -9.02498,1.9119 -25.8283,2.0041 -27.68536,0.148 -0.6682,-0.668 0.1895,-3.8638 1.92457,-7.1061 2.75101,-5.1403 2.57217,-6.5082 -1.18435,-10.6591 -2.36941,-2.6184 -5.58729,-4.7374 -7.18024,-4.7374 -1.59272,0 -4.19639,-1.5786 -5.77347,-3.4792 -3.36592,-4.0557 0.4583,-5.3189 21.09611,-7.0322 8.10025,-0.672 13.54494,-2.4127 14.80438,-4.6635 1.09931,-1.9642 6.28866,-5.9686 11.47351,-8.8826 10.27873,-5.777 11.56115,-9.917 5.32957,-16.8031 -3.47914,-3.8444 -3.54594,-4.7625 -0.5922,-6.5878 1.89141,-1.1691 5.86632,-1.5527 8.80848,-0.814 4.05877,1.0187 5.32958,0.326 5.32958,-2.8869 0,-7.1744 -5.561,-19.9118 -8.66068,-19.9118 -3.89817,0 -6.76832,4.921 -5.92175,10.067 0.3752,2.2799 -0.6682,4.1452 -2.29456,4.1452 -1.62635,0 -5.42314,2.2749 -8.43849,5.1074 -4.33212,4.0699 -5.47762,4.3923 -5.47762,1.4804 0,-2.0266 -3.46423,-6.3111 -7.69828,-9.5487 -4.23405,-3.2377 -12.31747,-10.4021 -17.98719,-15.9148 -6.54022,-6.3588 -11.15042,-9.2057 -12.58396,-7.7722 -2.88958,2.8898 -37.93236,-8.83104 -39.37964,-13.17594 -0.5711,-1.7145 1.15285,-3.6814 3.77524,-4.3674 5.9478,-1.5554 8.18954,-9.2161 3.77523,-12.8798 -1.81987,-1.5102 -3.3311,-1.9327 -3.3311,-0.962 0,0.97 -1.70333,0.313 -3.775,-1.4064 -3.42514,-2.8424 -3.39269,-3.4123 0.4439,-6.2178 2.32085,-1.697 7.08549,-3.0348 10.58524,-3.0348 3.49976,0 7.70491,-1.5989 9.32676,-3.553 1.62185,-1.9542 4.99559,-3.5531 7.55023,-3.5531 7.02083,0 3.73639,-5.7114 -4.21913,-7.3283 -11.94038,-2.4265 -0.09,-5.3601 14.6561,-3.6269 10.39101,1.2212 13.17399,0.826 14.28634,-2.0726 0.7622,-1.9863 0.2321,-5.0281 -1.18435,-6.7362 -3.34721,-4.0331 1.00598,-8.6604 8.1424,-8.6604 2.83699,0 6.3204,-1.3748 7.69828,-3.0348 3.24488,-3.91 0.8283,-22.1722 -3.40501,-25.6862 -1.78529,-1.4816 -3.25696,-4.0066 -3.25696,-5.6256 0,-1.619 -2.18536,-5.746 -4.88545,-9.1787 -5.88029,-7.4757 -3.95454,-7.7987 8.4385,-1.4805 10.21146,5.2062 16.69246,6.0208 18.9496,2.3687 0.9726,-1.5737 3.0227,-1.5223 6.1437,0.148 2.59112,1.3866 7.51612,2.1825 10.95523,1.7765 5.96605,-0.704 6.12593,-0.931 2.14676,-4.8854 -3.98084,-3.9565 -3.98439,-4.1453 0.5922,-4.1453 2.63731,0 7.49433,1.2294 10.80719,2.7387 5.01881,2.2868 6.85194,2.0249 10.8072,-1.5544 2.61078,-2.3628 4.7374,-6.5907 4.7374,-9.4009 0,-5.7164 9.66216,-13.8849 19.31986,-16.2848 6.6873,-1.6619 11.6101,-11.6131 11.3252,-22.9468 -0.08,-3.2115 0.612,-8.7429 1.4804,-12.2877 1.317,-5.3779 0.586,-6.9623 -4.4413,-9.2526 -3.3136,-1.5097 -7.3337,-5.8095 -8.8826,-9.5487 -1.5489,-3.7392 -3.5758,-6.7361 -4.51522,-6.7361 -0.9397,0 -3.60043,-3.5355 -5.92175,-7.8463 -3.87827,-7.2013 -3.91025,-8.4672 -0.5183,-15.0266 2.03045,-3.9266 5.36202,-8.5218 7.40217,-10.215 5.3017,-4.4001 4.5918,-19.5077 -1.40652,-31.0157 -4.21913,-8.0948 -5.93715,-9.4938 -10.43697,-8.3644 -4.48537,1.1258 -5.64958,0.216 -6.88391,-5.4035 -0.8181,-3.724 -4.66753,-9.7882 -8.51264,-13.472 -3.84511,-3.6838 -6.95805,-8.0938 -6.95805,-9.7708 0,-4.1945 -13.49543,-10.9683 -15.47069,-7.7722 -1.71376,2.773 -17.69111,-13.6077 -17.69111,-18.1353 0,-4.5301 15.12628,-12.7317 23.46505,-12.7317 5.9343,0 8.36696,-1.5539 11.54741,-7.2542 2.45184,-4.3946 6.62668,-7.7634 10.58501,-8.5865 3.58266,-0.745 6.51393,-2.7979 6.51393,-4.5894 0,-4.7573 8.76821,-4.0377 13.99025,1.1844 2.64514,2.6451 5.34284,3.6876 6.58784,2.4426 2.697,-2.697 12.5619,-3.325 17.7653,-1.1103 3.2226,1.3717 4.3451,-0.03 5.6995,-7.2542 1.1242,-5.9926 0.783,-9.2384 -1.036,-9.8448 -4.1611,-1.3869 -3.2551,-10.2688 1.4063,-13.6939 3.9313,-2.8891 3.9014,-3.4889 -0.444,-10.8813 -6.367,-10.8314 -7.9702,-41.052 -2.2948,-43.2288 2.1603,-0.82899 5.1247,-0.68299 6.5881,0.37 1.4634,1.0535 6.7172,3.341 11.6955,5.0335 8.0675,2.7425 9.633,2.6273 14.2122,-1.2584 2.8256,-2.3978 6.5013,-6.23249 8.2165,-8.51259 1.7149,-2.2799 5.6368,-4.1452 8.6604,-4.1452 3.0237,0 6.8939,-1.6615 8.5866,-3.7011 2.5451,-3.0668 2.3869,-4.8471 -0.74,-10.1409 -4.6368,-7.8494 -1.5553,-15.5832 5.3295,-13.3979 3.3236,1.0549 5.2801,-0.542 7.9944,-6.44 1.976,-4.2935 3.9562,-10.9699 4.3672,-14.8783 l 0.74,-7.1061 z m 321.33787,13.99 c 1.0768,-0.209 1.9245,1.2799 1.9245,3.627 0,2.6825 -1.0659,4.8854 -2.3687,4.8854 -1.3028,0 -2.3687,-1.5277 -2.3687,-3.405 0,-1.8773 1.0659,-4.0803 2.3687,-4.8854 0.163,-0.101 0.29,-0.192 0.444,-0.222 z m -774.56491,25.3901 c 4.95816,-0.154 5.83813,4.2286 1.40653,8.6604 -4.72745,4.7273 -9.34452,3.4148 -8.51263,-2.4426 0.4865,-3.4251 2.64465,-5.6574 6.06979,-6.1439 0.366,-0.05 0.7059,-0.06 1.03631,-0.07 z m 352.86524,16.2109 c 1.9667,-0.239 4.6699,1.2122 7.9944,4.8855 3.6298,4.01089 3.9064,5.70849 1.5543,9.47479 -4.4169,7.0724 -3.4071,15.5339 2.2948,19.3195 3.0026,1.9937 4.4143,4.5847 3.4048,6.2179 -2.5807,4.1758 -8.5084,3.3912 -9.9929,-1.3324 -0.717,-2.2799 -2.4096,-6.81 -3.775,-10.067 -6.67851,-15.9295 -6.50726,-27.88909 -1.4804,-28.49779 z m -166.99335,0.962 c 1.40985,-0.06 3.66888,1.5255 6.43978,4.5152 3.27355,3.53219 7.33989,6.47439 9.03067,6.51389 1.8618,0.04 1.47428,0.981 -1.0363,2.4426 -5.44659,3.1724 -5.24431,7.5979 0.5922,12.8798 6.32301,5.7223 6.01342,8.1581 -2.22066,17.1731 -6.58332,7.208 -7.88942,7.6983 -23.53895,7.6983 -16.87083,0 -22.61493,-2.8536 -16.13677,-7.9205 4.52848,-3.5419 13.46014,-18.3356 13.47198,-22.3546 0,-1.6694 -1.81679,-3.7527 -3.99718,-4.5893 -5.84098,-2.2414 -12.58372,-9.62639 -12.58372,-13.76809 0,-3.1854 0.7345,-3.2108 6.51393,-0.222 6.91447,3.5755 19.53703,2.5636 22.3546,-1.7766 0.2535,-0.39 0.6403,-0.574 1.11045,-0.592 z m 423.47615,3.257 c 3.4235,-0.136 7.8852,1.7722 10.5111,5.47759 1.7875,2.5219 5.1804,4.5893 7.5503,4.5893 2.3696,0 4.9664,1.0624 5.7737,2.3687 0.981,1.5877 2.9552,1.5877 5.9217,0 5.6378,-3.0172 9.4677,-3.0831 4.7374,-0.07 -2.9286,1.8629 -3.0326,3.0943 -0.592,7.0322 1.6284,2.6276 2.9608,7.595 2.9608,11.0292 0,5.0121 0.657,5.7107 3.257,3.553 2.4623,-2.0435 3.9027,-1.8122 6.1437,0.888 3.6364,4.3816 1.2568,11.6509 -3.257,9.9189 -5.664,-2.1736 -6.1773,1.1602 -1.2582,8.0683 3.1804,4.4666 7.2183,6.9054 12.3617,7.4022 6.2894,0.607 7.6348,1.7875 7.8461,6.6619 0.499,11.5079 0.737,11.7701 7.7724,10.3631 6.712,-1.3424 6.7892,-1.2087 8.4385,11.9915 1.4108,11.2912 2.3976,13.2567 6.144,12.6579 2.4416,-0.39 5.9845,1.4656 7.9202,4.0713 3.5192,4.7374 3.5547,4.7374 7.2541,0 3.4981,-4.4797 3.8373,-4.5119 6.884,-0.592 1.7722,2.2799 5.3077,4.1453 7.8465,4.1453 12.8019,0 17.3273,14.7091 4.9594,16.1367 -5.8304,0.673 -6.514,0.007 -6.514,-6.5139 0,-3.9948 -1.2101,-7.2541 -2.6648,-7.2541 -1.6173,0 -2.1176,2.5302 -1.3324,6.5139 1.3694,6.9469 -5.763,23.9547 -12.5837,30.1275 -3.4604,3.1316 -3.775,2.6934 -3.775,-4.7374 -2e-4,-10.2958 -4.1734,-15.1171 -9.9191,-11.4735 -2.951,1.8714 -4.0711,5.7687 -4.0711,14.1383 0,10.8145 -0.454,11.671 -6.4398,12.3617 -5.9331,0.685 -6.6651,-0.276 -10.4372,-13.0278 -2.2399,-7.5718 -3.8807,-19.7694 -3.6272,-27.0932 0.448,-12.9267 0.284,-13.4004 -6.3656,-14.7305 -3.9844,-0.797 -7.3845,-3.2316 -8.0685,-5.8478 -1.1763,-4.4984 -11.5015,-7.4913 -25.9823,-7.5502 -11.3842,-0.05 -18.2577,-9.9685 -23.4651,-33.8274 -4.009,-18.3691 -4.2433,-23.2448 -1.8506,-34.6423 1.5328,-7.3006 2.8791,-15.3818 3.035,-17.9874 0.161,-2.69019 2.2225,-4.03909 4.8854,-4.14519 z m -489.13652,3.84909 c 1.10287,-0.113 2.14794,0.149 2.88698,0.888 1.39445,1.3946 1.8374,3.6911 0.9622,5.1073 -1.91864,3.1045 -7.67198,3.3612 -9.4748,0.444 -1.61498,-2.6129 2.31683,-6.1013 5.62566,-6.44 z m 536.36842,9.4748 c 0.849,0.04 1.4805,0.993 1.4805,2.5167 0,2.0311 -1.066,3.7011 -2.3687,3.7011 -1.3028,0 -2.3687,-0.995 -2.3687,-2.2206 0,-1.2259 1.0659,-2.896 2.3687,-3.7011 0.326,-0.201 0.605,-0.309 0.888,-0.296 z m -325.17512,0.296 c 4.70802,0 5.6998,1.152 5.6998,7.0322 0,8.1978 -4.85631,10.2015 -11.91764,4.9596 -3.76481,-2.7951 -4.18052,-4.2604 -2.07261,-7.6983 1.4449,-2.3562 5.17561,-4.2933 8.29045,-4.2933 z m -192.38345,8.2904 c 9.85474,0 14.00612,5.773 8.5124,11.8435 -5.36795,5.9317 -9.74436,6.0063 -12.87957,0.148 -4.37712,-8.1787 -2.98433,-11.9916 4.36717,-11.9916 z m 527.55687,15.0266 c 0.283,0.05 0.637,0.169 0.962,0.37 1.3028,0.805 2.3687,1.9422 2.3687,2.5167 0,0.575 -1.0659,1.0363 -2.3687,1.0363 -1.3028,0 -2.3687,-1.137 -2.3687,-2.5167 0,-1.0348 0.557,-1.5492 1.4063,-1.4064 z m -24.7979,1.5544 c -3.1061,0 -7.641,6.1272 -5.8476,7.9205 3.2427,3.2428 7.9202,1.3689 7.9202,-3.1831 0,-2.6055 -0.929,-4.7374 -2.0726,-4.7374 z m 123.02547,10.437 c 1.1619,-0.102 2.5447,0.288 4.2191,1.1844 7.1928,3.8493 10.4699,11.4273 8.8088,20.282 -0.796,4.2437 -3.405,9.4037 -5.7737,11.5474 -4.0067,3.626 -4.5532,3.6037 -8.2164,-0.444 -2.5624,-2.8313 -3.9469,-8.4032 -3.9232,-15.9887 0.04,-11.2655 1.3999,-16.2741 4.8854,-16.5809 z m -600.4654,29.8314 c 0.5744,0 1.0363,1.0659 1.0363,2.3687 0,1.3028 -1.13697,2.3687 -2.51674,2.3687 -1.37977,0 -1.84143,-1.0659 -1.03631,-2.3687 0.8051,-1.3028 1.94234,-2.3687 2.51675,-2.3687 z m -99.33854,3.257 c 0.3432,0.04 0.6843,0.153 1.0363,0.37 1.21278,0.75 2.22066,2.9341 2.22066,4.8113 0,3.9086 -3.74373,4.5607 -5.92175,1.0363 -1.69031,-2.7349 0.2625,-6.4921 2.66479,-6.2178 z m 248.19238,0.518 c 1.25636,-0.133 2.65579,-0.07 4.07109,0.296 3.54333,0.927 3.97159,1.9597 1.85066,4.5152 -3.26715,3.9366 -8.35464,4.2014 -10.58525,0.592 -1.62469,-2.6288 0.8939,-5.0053 4.6635,-5.4035 z m -235.31613,3.3309 c 5.24027,0 5.84619,2.4443 1.70262,6.5878 -3.46375,3.4635 -5.83411,3.6545 -7.77242,0.518 -2.18702,-3.5386 0.8641,-7.1061 6.0698,-7.1061 z m 112.06793,7.1061 c 0.3797,0.04 0.8208,0.146 1.25849,0.296 1.43354,0.493 1.61688,2.1835 0.4439,4.0713 -1.48044,2.3829 -2.42745,2.5047 -3.70086,0.444 -1.75781,-2.8441 -0.6597,-5.1059 1.99847,-4.8113 z m 20.94807,2.3687 c 0.2061,-0.04 0.4408,0 0.6663,0 1.97384,0 3.55305,2.1055 3.55305,4.7374 0,4.7189 -2.54872,6.112 -5.55152,3.1089 -2.70482,-2.7046 -1.7661,-7.2852 1.33215,-7.8463 z m 476.32192,12.7318 c -0.339,0.05 -0.654,0.18 -0.962,0.37 -1.2341,0.763 -1.5771,2.3931 -0.814,3.6269 0.763,1.2341 2.3931,1.651 3.627,0.888 1.2341,-0.763 1.5771,-2.3931 0.814,-3.627 -0.572,-0.926 -1.6491,-1.4138 -2.6648,-1.2583 z m 19.0976,5.0335 c -2.6186,0.271 -5.6257,4.5474 -5.6257,9.9189 0,3.422 1.174,5.4317 2.8129,4.8854 4.5204,-1.5067 7.5606,-7.9718 5.8478,-12.4356 -0.702,-1.8292 -1.8447,-2.4917 -3.035,-2.3687 z m -326.0752,23.8338 c -1.1249,0.158 -2.5054,1.2554 -4.0711,3.3309 -3.5775,4.7426 -4.0505,4.8425 -12.8059,1.1843 -12.3829,-5.1739 -15.93829,-1.766 -9.8448,9.5487 4.8843,9.0693 8.4726,10.2551 14.2122,4.5152 2.0807,-2.0807 5.2701,-3.2669 7.0322,-2.5908 4.2821,1.6433 8.5124,-2.8673 8.5124,-9.1048 0,-4.7419 -1.16,-7.1478 -3.035,-6.884 z m -488.47334,15.6927 c 4.99653,0.37 8.78171,10.3502 4.66326,13.768 -1.9395,1.6098 -3.31382,6.9604 -3.25697,12.6579 0.057,5.4099 -0.047,11.7104 -0.2227,13.99 -0.1753,2.2799 -1.88832,4.1452 -3.84913,4.1452 -2.46463,0 -3.16648,-1.4505 -2.14676,-4.6635 0.8113,-2.5563 0.4534,-6.5883 -0.8141,-8.9565 -3.47985,-6.5018 0.024,-29.9877 4.58936,-30.8665 0.3418,-0.07 0.7033,-0.1 1.0363,-0.07 z m 822.15204,0.518 c 0.283,-0.07 0.637,0.02 0.962,0.222 1.3028,0.805 2.3687,3.0082 2.3687,4.8854 0,1.8773 -1.0659,3.405 -2.3687,3.405 -1.3027,0 -2.3687,-2.203 -2.3687,-4.8854 0,-2.0119 0.557,-3.4091 1.4063,-3.627 z m -463.74405,8.5126 c 4.12959,0 10.55019,6.5263 8.95653,9.1048 -1.85659,3.004 -6.85691,3.5801 -9.32652,1.1104 -2.23155,-2.2314 -1.93452,-10.215 0.37,-10.215 z m -330.43365,19.3938 c 0.4882,0.06 1.22273,0.557 2.07262,1.4064 1.54131,1.5416 2.22776,3.324 1.55434,3.9972 -1.58064,1.5808 -4.36718,-1.2056 -4.36718,-4.3674 0,-0.742 0.252,-1.0982 0.7402,-1.0363 z m 233.76227,6.6619 c 1.30278,0 2.3687,1.066 2.3687,2.3687 0,1.3028 -1.06592,2.3687 -2.3687,2.3687 -1.30279,0 -2.3687,-1.0659 -2.3687,-2.3687 0,-1.3027 1.06591,-2.3687 2.3687,-2.3687 z m 120.13809,5.1074 c 0.2793,-0.06 0.6777,0.005 1.11045,0.148 1.54795,0.516 3.25933,2.228 3.77523,3.7752 1.42099,4.2634 -3.52936,3.3434 -5.18176,-0.962 -0.6637,-1.7301 -0.5415,-2.7915 0.2961,-2.9609 z m -367.43274,12.4357 c 0.2833,-0.07 0.6367,0.02 0.9624,0.222 1.30279,0.805 2.3687,3.0082 2.3687,4.8854 0,1.8773 -1.06591,3.405 -2.3687,3.405 -1.30278,0 -2.3687,-2.203 -2.3687,-4.8854 0,-2.0119 0.5571,-3.4091 1.4063,-3.627 z m 18.43156,9.4009 c 0.8494,0.04 1.48044,0.993 1.48044,2.5167 0,2.0311 -1.06591,3.7011 -2.3687,3.7011 -1.30278,0 -2.3687,-0.995 -2.3687,-2.2206 0,-1.2259 1.06592,-2.896 2.3687,-3.7011 0.3257,-0.201 0.6052,-0.309 0.8883,-0.296 z m 288.0813,18.0613 c 1.30278,0 2.3687,1.066 2.3687,2.3687 0,1.3028 -1.06592,2.3687 -2.3687,2.3687 -1.30279,0 -2.3687,-1.0659 -2.3687,-2.3687 0,-1.3027 1.06591,-2.3687 2.3687,-2.3687 z m -255.22743,16.729 c 0.297,0.04 0.5474,0.177 0.7402,0.37 0.7713,0.771 1.02518,4.4406 0.5922,8.1424 l -0.8144,6.7361 -3.10868,-5.6257 c -2.25809,-3.9853 -2.48548,-6.3232 -0.6663,-8.1424 1.05147,-1.0513 2.36586,-1.5949 3.25696,-1.4804 z m 279.95666,25.9088 c 2.03116,0 3.70109,1.0659 3.70109,2.3687 0,1.3028 -0.9949,2.3687 -2.22066,2.3687 -1.2258,0 -2.89597,-1.0659 -3.70109,-2.3687 -0.8051,-1.3028 0.1895,-2.3687 2.22066,-2.3687 z m -248.7135,14.7305 c 1.30776,-0.185 3.56844,0.442 6.88391,1.7025 4.50622,1.7132 6.29198,4.0737 6.29198,8.3644 0,9.1706 -8.6377,8.0142 -12.65762,-1.7026 -2.27466,-5.4977 -2.69771,-8.0559 -0.5183,-8.3643 z m 700.09299,4.2191 c -1.3028,0 -2.3687,1.0659 -2.3687,2.3687 0,1.3028 1.0659,2.3687 2.3687,2.3687 1.3028,0 2.3687,-1.0659 2.3687,-2.3687 0,-1.3028 -1.0659,-2.3687 -2.3687,-2.3687 z m -608.04531,17.545 c 5.06404,-0.359 11.07722,3.9316 10.28916,8.0682 -0.933,4.8964 -9.18369,6.3612 -13.17613,2.3687 -4.01779,-4.0177 -3.65656,-8.2771 0.8144,-9.993 0.6618,-0.254 1.34921,-0.393 2.07261,-0.444 z m 12.80566,36.9375 c 4.86603,0 9.84503,4.3868 9.84503,8.7346 0,3.8993 -1.93404,3.7844 -10.14111,-0.666 -6.89529,-3.7395 -6.75103,-8.0683 0.2961,-8.0683 z m -75.08779,0.666 c 3.17359,0.195 6.81002,2.57 6.81002,5.1815 0,3.5739 12.43093,6.5267 14.36024,3.405 1.40654,-2.2757 26.48917,-1.1904 30.57044,1.3324 1.32079,0.816 2.44284,2.8816 2.44284,4.5894 0,1.9116 3.96094,3.5715 10.36307,4.2933 6.88368,0.776 13.56886,3.6676 19.68981,8.5865 5.08608,4.0872 15.02491,9.4973 22.13266,11.9915 14.4801,5.0816 17.06578,10.0909 10.43697,20.2079 -3.15179,4.8101 -5.89806,6.0698 -13.32394,6.0698 -5.14695,0 -11.32712,-1.0624 -13.76807,-2.3687 -2.96656,-1.5877 -4.94063,-1.5877 -5.92175,0 -2.17896,3.5258 -4.6976,2.9021 -9.40066,-2.2947 -2.45823,-2.7162 -3.69469,-6.6691 -2.96087,-9.4748 1.50483,-5.7552 -2.02974,-8.6448 -6.29198,-5.1074 -2.20384,1.829 -4.34325,1.6186 -7.62413,-0.814 -3.85269,-2.8567 -4.05403,-4.1225 -1.55458,-8.2166 2.61575,-4.2845 2.19057,-5.1671 -3.84914,-8.2904 -3.74302,-1.9356 -7.44814,-5.1778 -8.21631,-7.18 -0.7684,-2.0024 -2.39665,-3.627 -3.62719,-3.627 -1.31344,0 -1.17819,2.856 0.3702,6.9581 2.36515,6.2664 1.96105,7.5635 -3.77524,12.8798 -6.83488,6.3344 -8.16751,12.9288 -3.55305,17.543 3.54974,3.5498 1.04389,3.5806 -9.77088,0.148 -17.35239,-5.5075 -25.97043,-10.4877 -29.97827,-17.3953 -4.79425,-8.2637 -8.54651,-10.9344 -19.912,-14.2861 -4.63129,-1.3657 -8.59128,-4.2326 -9.03067,-6.5139 -1.14171,-5.9286 6.21878,-5.1197 11.47351,1.2584 l 4.36717,5.3295 2.73893,-7.6982 c 1.78623,-5.0288 4.31079,-7.6983 7.2539,-7.6983 2.47814,0 4.51546,-1.5277 4.51546,-3.405 0,-1.8773 0.9615,-4.0789 2.14675,-4.8113 0.7978,-0.493 1.82887,-0.657 2.88673,-0.592 z m 188.45851,8.8826 c 1.62849,-0.323 3.10892,0.888 3.10892,3.3309 0,1.8773 -1.00788,3.9879 -2.22065,4.7374 -2.81615,1.7405 -5.63277,-2.6482 -3.7011,-5.7737 0.8167,-1.3216 1.83575,-2.1006 2.81283,-2.2947 z m 498.68243,16.507 c 1.3866,0 1.1817,1.5051 -0.518,3.5531 -1.6219,1.9541 -3.3243,3.553 -3.775,3.553 -0.451,0 -0.232,-1.5989 0.518,-3.553 0.75,-1.9542 2.4521,-3.5531 3.775,-3.5531 z m -576.11523,4.7374 c 1.30279,0 2.3687,1.5989 2.3687,3.5531 0,1.9541 -1.06591,3.553 -2.3687,3.553 -1.30278,0 -2.3687,-1.5989 -2.3687,-3.553 0,-1.9542 1.06592,-3.5531 2.3687,-3.5531 z m 555.93393,4.8108 c 2.1086,-0.06 2.2358,1.6705 0.444,6.8101 -3.4799,9.9826 -11.5474,12.1088 -11.5474,3.0347 0,-3.8392 6.6357,-9.7263 11.1033,-9.8448 z m -709.80468,5.9218 c 1.85919,-0.284 4.51948,3.0184 4.58912,6.44 0.052,2.5964 -4.14002,2.1707 -5.84761,-0.592 -0.8051,-1.3027 -0.7431,-3.5916 0.1469,-5.0334 0.2984,-0.483 0.6812,-0.749 1.11044,-0.814 z m 134.94247,1.1103 c -1.30279,0 -2.3687,1.0659 -2.3687,2.3687 0,1.3028 1.06591,2.3687 2.3687,2.3687 1.30278,0 2.3687,-1.0659 2.3687,-2.3687 0,-1.3028 -1.06592,-2.3687 -2.3687,-2.3687 z m 145.37896,17.6172 c -5.77631,-0.157 -11.36549,0.363 -13.91611,1.3324 -6.14607,2.3367 -20.13395,15.8452 -20.13395,19.4679 0,1.0425 2.39831,0.377 5.32957,-1.4804 2.93127,-1.857 10.47653,-3.3968 16.80285,-3.4792 6.32656,-0.08 12.91202,-1.2785 14.58243,-2.6648 1.80945,-1.5017 7.00732,-1.9013 12.87981,-0.962 8.19238,1.31 10.59353,0.718 14.43438,-3.405 6.03734,-6.4803 5.99447,-6.6278 -3.03502,-6.81 -4.23405,-0.09 -13.75551,-0.838 -21.17025,-1.6285 -1.85375,-0.198 -3.84819,-0.318 -5.77371,-0.37 z m -183.57425,6.071 c 1.37977,0 2.51675,1.0659 2.51675,2.3687 0,1.3028 -0.4619,2.3687 -1.03631,2.3687 -0.5744,0 -1.71162,-1.0659 -2.51674,-2.3687 -0.8051,-1.3028 -0.3435,-2.3687 1.0363,-2.3687 z m 556.7866,7.18 c -0.782,-0.07 -1.65,0.54 -2.8867,1.7765 -2.4739,2.4739 -2.3576,3.4377 0.518,5.2557 6.8368,4.3224 9.1337,2.0993 4.8116,-4.7374 -0.909,-1.4377 -1.661,-2.2215 -2.4429,-2.2947 z m -489.13653,6.3659 c 1.30516,-0.1 2.62808,1.1306 3.10892,3.6269 0.4993,2.5928 -0.6692,4.1453 -3.10892,4.1453 -2.27561,0 -3.55589,-1.5551 -3.10891,-3.7011 0.5356,-2.5727 1.80376,-3.9735 3.10891,-4.0713 z m 119.3967,12.8057 c -0.8229,-0.03 -1.73602,0.102 -2.59089,0.444 -1.88951,0.756 -1.353,1.2927 1.40654,1.4064 2.49684,0.103 3.8958,-0.471 3.10868,-1.2584 -0.3934,-0.393 -1.10168,-0.558 -1.92433,-0.592 z m 32.93914,2.3687 c -0.6929,0.184 -1.26773,0.926 -1.99871,2.0726 -1.24594,1.9542 -1.74786,4.9269 -1.11021,6.6619 0.6377,1.73514 1.18435,4.66644 1.18435,6.51404 0,5.0607 5.53068,4.0204 9.10457,-1.7025 2.76167,-4.42194 2.55464,-5.67264 -1.85043,-10.06704 -2.70434,-2.698 -4.17459,-3.7859 -5.32957,-3.4792 z m -189.27334,6.81 c 2.12922,-0.157 5.35752,1.1788 7.32804,3.55304 2.45019,2.9524 2.14676,3.5531 -1.70238,3.5531 -4.92003,0 -7.77242,-1.9407 -7.77242,-5.18164 0,-1.2275 0.8691,-1.8306 2.14676,-1.9245 z m 182.75941,52.11144 c 1.37977,0 1.84143,1.0659 1.03631,2.3687 -0.8051,1.3028 -1.94233,2.3687 -2.51674,2.3687 -0.5744,0 -1.03631,-1.0659 -1.03631,-2.3687 0,-1.3028 1.13698,-2.3687 2.51674,-2.3687 z m 30.20093,3.923 c -1.71352,0.315 -4.25442,2.0129 -6.36588,4.4413 -4.82765,5.5523 -4.88947,6.2278 -1.25849,11.7696 2.11761,3.2316 4.75611,5.9218 5.84784,5.9218 5.36298,0 14.06416,-6.0094 14.06416,-9.697 0,-2.2899 0.6445,-5.9644 1.48044,-8.1424 1.19643,-3.1177 0.3146,-3.7596 -4.14523,-3.1831 -3.11579,0.403 -6.78419,0 -8.21631,-0.888 -0.3581,-0.223 -0.8354,-0.327 -1.40653,-0.222 z m -21.83657,39.5289 c -0.4974,-0.04 -0.9333,0.02 -1.25826,0.222 -3.44409,2.1286 -3.17311,7.7192 0.4441,9.1788 4.8556,1.9592 11.25133,1.7759 11.25133,-0.37 0,-3.107 -6.95498,-8.7556 -10.4372,-9.0306 z m 99.11586,6.5878 c -3.64,0.05 -4.6791,2.353 -1.8504,5.1815 0.868,0.869 3.6466,1.6285 6.1437,1.6285 6.143,0 3.9188,-5.7782 -2.5907,-6.7361 -0.623,-0.09 -1.1827,-0.08 -1.7026,-0.07 z" />
    </g>
  </g>
  <metadata
     id="metadata25">
    <rdf:RDF>
      <cc:Work>
        <dc:format>image/svg+xml</dc:format>
        <dc:type
           rdf:resource="http://purl.org/dc/dcmitype/StillImage" />
        <cc:license
           rdf:resource="http://creativecommons.org/licenses/publicdomain/" />
        <dc:publisher>
          <cc:Agent
             rdf:about="http://openclipart.org/">
            <dc:title>Openclipart</dc:title>
          </cc:Agent>
        </dc:publisher>
        <dc:title />
        <dc:date>2012-06-14T11:14:31</dc:date>
        <dc:description />
        <dc:source>https://openclipart.org/detail/170669/weather-icon---full-moon-by-gnokii-170669</dc:source>
        <dc:creator>
          <cc:Agent>
            <dc:title>gnokii</dc:title>
          </cc:Agent>
        </dc:creator>
        <dc:subject>
          <rdf:Bag>
            <rdf:li>cosmic</rdf:li>
            <rdf:li>full moon</rdf:li>
            <rdf:li>icon</rdf:li>
            <rdf:li>moon</rdf:li>
            <rdf:li>weather</rdf:li>
          </rdf:Bag>
        </dc:subject>
      </cc:Work>
      <cc:License
         rdf:about="http://creativecommons.org/licenses/publicdomain/">
        <cc:permits
           rdf:resource="http://creativecommons.org/ns#Reproduction" />
        <cc:permits
           rdf:resource="http://creativecommons.org/ns#Distribution" />
        <cc:permits
           rdf:resource="http://creativecommons.org/ns#DerivativeWorks" />
      </cc:License>
    </rdf:RDF>
  </metadata>
</svg>
