<?xml version="1.0" encoding="UTF-8" standalone="no"?>
<svg
   xmlns:dc="http://purl.org/dc/elements/1.1/"
   xmlns:cc="http://creativecommons.org/ns#"
   xmlns:rdf="http://www.w3.org/1999/02/22-rdf-syntax-ns#"
   xmlns:svg="http://www.w3.org/2000/svg"
   xmlns="http://www.w3.org/2000/svg"
   xmlns:sodipodi="http://sodipodi.sourceforge.net/DTD/sodipodi-0.dtd"
   xmlns:inkscape="http://www.inkscape.org/namespaces/inkscape"
   version="1.1"
   id="svg4770"
   viewBox="0 0 119.45625 119.45625"
   height="33.713207mm"
   width="33.713207mm"
   sodipodi:docname="10e5 - B Earth.svg"
   inkscape:version="1.0 (4035a4fb49, 2020-05-01)">
  <sodipodi:namedview
     inkscape:document-rotation="0"
     pagecolor="#ffffff"
     bordercolor="#666666"
     borderopacity="1"
     objecttolerance="10"
     gridtolerance="10"
     guidetolerance="10"
     inkscape:pageopacity="0"
     inkscape:pageshadow="2"
     inkscape:window-width="1366"
     inkscape:window-height="705"
     id="namedview13"
     showgrid="false"
     inkscape:zoom="2.0175"
     inkscape:cx="93.920076"
     inkscape:cy="67.923409"
     inkscape:window-x="-8"
     inkscape:window-y="-8"
     inkscape:window-maximized="1"
     inkscape:current-layer="layer1" />
  <defs
     id="defs4772" />
  <metadata
     id="metadata4775">
    <rdf:RDF>
      <cc:Work
         rdf:about="">
        <dc:format>image/svg+xml</dc:format>
        <dc:type
           rdf:resource="http://purl.org/dc/dcmitype/StillImage" />
        <dc:title />
      </cc:Work>
    </rdf:RDF>
  </metadata>
  <g
     transform="matrix(0.23891249,0,0,0.23891249,22.184732,-270.19417)"
     id="layer1">
    <ellipse
       ry="250"
       rx="249.99994"
       style="fill:#178181;fill-opacity:1"
       cx="157.14279"
       cy="1380.9336"
       id="circle4657" />
    <path
       style="fill:#2aa846;fill-opacity:1"
       d="m 407.14273,1380.9336 c 0,-50.1591 -14.76953,-96.8662 -40.20019,-136.0107 0,0 -14.26171,20.834 -11.58203,34.2256 2.67774,13.3935 18.41308,14.416 16.79687,24.2402 -1.61621,9.8242 -13.22362,-2.8115 -27.51171,23.0791 -14.2871,25.8926 -7.14062,61.6172 13.39258,64.291 20.53417,2.6719 49.10448,-9.8252 49.10448,-9.8252 z"
       id="path4659" />
    <path
       style="fill:#2aa846;fill-opacity:1"
       d="m 222.79707,1139.6446 c 29.09862,7.8984 56.08788,20.9219 79.93846,38.0381 0,0 -28.98828,-4.7813 -39.96972,5.0371 -10.98047,9.8213 -26.99511,33.039 -39.96972,0 -12.97265,-33.0371 9.8e-4,-43.0752 9.8e-4,-43.0752 z"
       id="path4661" />
    <path
       style="fill:#2aa846;fill-opacity:1"
       d="m -30.82689,1216.1084 c 45.81835,-52.2119 113.04294,-85.1748 187.96968,-85.1748 0,0 -16.96093,10.2696 15.18164,27.6797 32.14354,17.4121 17.41015,25.4463 10.71386,30.8037 -6.69531,5.3575 -18.30957,-10.7138 -25.8955,-21.4267 -7.58691,-10.7158 -40.16796,-27.2315 -65.16991,-18.3008 -25.00097,8.9307 -46.42479,15.5273 -42.85643,23.8359 3.56738,8.3067 46.42479,-7.7587 62.49608,-6.8701 16.07128,0.8906 10.71386,10.71 -4.46192,22.3184 -15.17773,11.6084 -16.96679,25.8926 -0.89453,34.8203 16.07031,8.9316 35.70898,9.8252 40.1787,4.4687 4.4668,-5.3574 -8.03613,-40.1787 22.32226,-25.0019 30.35839,15.1768 55.35937,24.1123 30.35839,46.4307 -25.00194,22.3164 -53.57127,47.3252 -54.4658,61.6054 -0.89453,14.2823 8.93164,25.8985 3.57422,26.7871 -5.35743,0.8887 -10.27442,-5.8017 -13.84375,-10.7158 -3.56738,-4.9111 -20.08886,-6.6943 -28.12402,-3.5723 -8.03613,3.1221 -23.21679,15.1768 -14.73242,26.7852 8.48535,11.6104 20.08301,6.2461 31.69336,11.6045 11.60839,5.3574 22.43358,25.7471 20.21093,30.3555 -2.22266,4.6064 -12.11816,-1.2266 -20.21093,-16.9619 -8.09473,-15.7374 -23.27637,-5.3575 -33.958,-8.0362 -10.68262,-2.6777 -18.71875,-4.4629 -29.43359,-23.2138 -10.71484,-18.7491 -32.89745,-23.9961 -41.9619,-34.8204 -25.96582,-31.0058 -24.1084,-54.4638 -29.46484,-65.1777 -5.35742,-10.7168 -19.22558,-28.2227 -19.22558,-28.2227 z"
       id="path4663" />
    <path
       style="fill:#2aa846;fill-opacity:1"
       d="m 181.24923,1384.5059 c 0,0 26.78612,2.6738 40.1787,14.2842 13.39257,11.6084 15.18164,16.0752 35.71581,20.5381 20.53417,4.4609 29.46484,16.0654 16.07129,38.3896 -13.39258,22.3213 -37.5039,58.0371 -49.10839,68.752 -11.60351,10.7158 -25.89062,19.6435 -31.24804,37.5 -5.35644,17.8545 -7.14551,28.5625 4.46289,35.7109 0,0 -6.24609,15.1807 -20.5332,-4.4629 -14.28808,-19.6455 -2.67969,-42.8564 0,-56.25 2.67773,-13.3916 9.81933,-53.5664 5.35547,-63.3926 -4.46094,-9.8232 -25.00097,-16.0751 -30.35839,-36.6074 -5.35742,-20.5332 4.01855,-60.4922 29.46386,-54.4619 z"
       id="path4665" />
    <path
       style="opacity:0.367001;fill:#414141;fill-opacity:1;enable-background:new"
       d="m -19.6345,1204.1582 c 97.63181,-97.6338 255.91985,-97.6318 353.55264,0 97.63279,97.6299 97.63279,255.92 9.7e-4,353.5518 0,0 113.42577,-149.9902 -47.16111,-310.5771 -160.58785,-160.5879 -306.3925,-42.9747 -306.3925,-42.9747 z"
       id="path4667" />
  </g>
</svg>
